<svg width="422" height="39" viewBox="0 0 422 39" fill="none" xmlns="http://www.w3.org/2000/svg">
<path d="M35.5398 16.2452C35.1778 11.9449 33.2265 7.93384 30.0665 4.99482C26.9065 2.05579 22.7647 0.399772 18.4495 0.349981C14.1343 0.300189 9.95542 1.8602 6.72847 4.72553C3.50151 7.59086 1.45809 11.5559 0.99705 15.8466L4.23318 16.1944C4.60774 12.7084 6.26786 9.48718 8.88952 7.15932C11.5112 4.83146 14.9062 3.56407 18.412 3.60452C21.9177 3.64498 25.2826 4.99036 27.8498 7.3781C30.4171 9.76583 32.0024 13.0245 32.2965 16.5182L35.5398 16.2452Z" fill="white"/>
<path d="M32.4815 22.1995C32.4883 30.0576 26.1236 36.4333 18.2655 36.4401C10.4074 36.4469 4.0317 30.0822 4.02489 22.2241C4.01809 14.3661 10.3828 7.99033 18.2409 7.98353C26.0989 7.97672 32.4747 14.3414 32.4815 22.1995ZM6.6938 22.2218C6.69933 28.6059 11.8791 33.7767 18.2632 33.7712C24.6473 33.7657 29.8181 28.5859 29.8126 22.2018C29.807 15.8177 24.6272 10.6469 18.2432 10.6524C11.8591 10.658 6.68827 15.8378 6.6938 22.2218Z" fill="white"/>
<path d="M6.46023 29.163C6.46023 29.163 11.4549 21.901 15.9977 22.3876C22.6298 23.0979 9.9385 38.3563 9.9385 38.3563L6.46819 38.3593L6.46023 29.163Z" fill="white"/>
<path d="M163.617 13.4853C162.976 13.4859 162.42 13.2642 161.951 12.8204C161.482 12.3766 161.247 11.7722 161.246 11.0072C161.245 10.2422 161.479 9.63741 161.948 9.1928C162.416 8.7482 162.971 8.52562 163.613 8.52506C164.279 8.52448 164.835 8.7461 165.279 9.18992C165.748 9.63371 165.983 10.2381 165.984 11.0031C165.985 11.7681 165.751 12.3729 165.282 12.8176C164.839 13.2621 164.283 13.4847 163.617 13.4853ZM162.844 18.7053L157.884 18.7096L157.882 16.1555L165.878 16.1485L165.887 26.6983C165.888 28.4011 166.124 29.5484 166.593 30.1402C167.062 30.7074 167.766 30.9906 168.704 30.9898C169.419 30.9892 170.073 30.9022 170.665 30.729C171.282 30.5557 171.763 30.3702 172.108 30.1725L172.555 32.7633C172.407 32.8374 172.197 32.9363 171.926 33.0599C171.655 33.1589 171.334 33.2579 170.964 33.3569C170.618 33.4559 170.224 33.5426 169.779 33.617C169.36 33.6914 168.916 33.7288 168.447 33.7292C167.361 33.7302 166.46 33.5829 165.744 33.2874C165.028 32.9919 164.448 32.5482 164.003 31.9563C163.583 31.3644 163.287 30.6366 163.113 29.7731C162.94 28.8848 162.852 27.8608 162.851 26.7009L162.844 18.7053Z" fill="white"/>
<path d="M140.758 33.3457L140.738 10.4324L153.731 10.4211L153.733 13.0123L143.776 13.0209L143.782 20.1651L152.555 20.1575L152.557 22.7117L143.784 22.7193L143.793 33.3431L140.758 33.3457Z" fill="white"/>
<path d="M135.7 23.5777C135.701 25.1077 135.48 26.5146 135.037 27.7982C134.594 29.0571 133.953 30.1435 133.115 31.0573C132.277 31.9465 131.266 32.6383 130.081 33.1329C128.922 33.6274 127.614 33.8754 126.158 33.8766C124.727 33.8779 123.419 33.6322 122.234 33.1397C121.074 32.6471 120.074 31.957 119.234 31.0693C118.394 30.157 117.739 29.0717 117.269 27.8136C116.799 26.5307 116.563 25.1243 116.562 23.5943C116.561 22.0643 116.794 20.6698 117.262 19.4108C117.754 18.1518 118.42 17.0777 119.258 16.1886C120.121 15.2995 121.132 14.6076 122.291 14.113C123.476 13.6185 124.759 13.3706 126.141 13.3694C127.547 13.3682 128.831 13.6138 129.991 14.1064C131.176 14.5989 132.188 15.289 133.028 16.1767C133.868 17.0644 134.523 18.1373 134.993 19.3954C135.463 20.6536 135.698 22.0477 135.7 23.5777ZM130.073 23.5826C130.072 21.8798 129.725 20.5475 129.033 19.5857C128.366 18.5991 127.403 18.1064 126.145 18.1075C124.886 18.1086 123.912 18.603 123.222 19.5907C122.531 20.5537 122.187 21.8866 122.189 23.5894C122.19 25.2922 122.537 26.6492 123.229 27.6603C123.92 28.6469 124.896 29.1396 126.154 29.1385C127.413 29.1374 128.375 28.643 129.04 27.6553C129.73 26.6429 130.075 25.2854 130.073 23.5826Z" fill="white"/>
<path d="M101.565 9.05979L107.08 8.16661L107.085 13.9042L113.711 13.8985L113.715 18.4885L107.089 18.4943L107.095 25.3423C107.096 26.5022 107.294 27.4274 107.689 28.1181C108.109 28.8087 108.936 29.1535 110.17 29.1524C110.763 29.1519 111.367 29.102 111.984 29.0028C112.625 28.8788 113.205 28.7179 113.723 28.52L114.504 32.8133C113.838 33.0853 113.098 33.3204 112.284 33.5185C111.47 33.7167 110.47 33.8162 109.286 33.8173C107.781 33.8186 106.534 33.6222 105.547 33.2282C104.559 32.8096 103.769 32.2427 103.176 31.5275C102.583 30.7877 102.163 29.8997 101.915 28.8634C101.692 27.8271 101.58 26.6797 101.579 25.4212L101.565 9.05979Z" fill="white"/>
<path d="M96.5931 32.7179C95.6556 32.9902 94.4466 33.238 92.9661 33.4614C91.4856 33.7094 89.9311 33.8342 88.3023 33.8356C86.6489 33.837 85.2668 33.6161 84.1559 33.1729C83.0697 32.7296 82.2054 32.1134 81.5631 31.3243C80.9208 30.5105 80.4634 29.5484 80.191 28.4382C79.9186 27.3279 79.7818 26.1065 79.7806 24.7739L79.7712 13.928L85.2867 13.9232L85.2955 24.1028C85.2971 25.8796 85.5326 27.1626 86.0022 27.9519C86.4718 28.7412 87.3482 29.1353 88.6314 29.1342C89.0262 29.1338 89.4458 29.1211 89.8899 29.0961C90.3341 29.0463 90.7289 28.9966 91.0743 28.947L91.0613 13.9182L96.5768 13.9134L96.5931 32.7179Z" fill="white"/>
<path d="M76.0347 33.772C74.4306 33.7487 73.1225 33.5771 72.1104 33.2571C71.1231 32.9372 70.333 32.4937 69.7402 31.9266C69.1721 31.3348 68.7767 30.6318 68.5539 29.8177C68.3557 28.9788 68.2562 28.0411 68.2553 27.0046L68.2367 5.57199L73.7514 4.67882L73.7698 25.8894C73.7702 26.3829 73.8076 26.8271 73.882 27.2219C73.9564 27.6167 74.0924 27.9497 74.2901 28.221C74.5124 28.4922 74.8211 28.7141 75.2161 28.8865C75.6111 29.0589 76.1417 29.1695 76.8081 29.2182L76.0347 33.772Z" fill="white"/>
<path d="M52.4858 7.47331C56.3109 7.47 59.2481 8.1461 61.2976 9.5016C63.347 10.8324 64.373 13.0279 64.3757 16.0879C64.3783 19.1726 63.3438 21.4069 61.2721 22.7906C59.2003 24.1497 56.2396 24.8309 52.3898 24.8342L50.576 24.8358L50.5834 33.4237L44.8088 33.4287L44.787 8.14628C46.0453 7.89841 47.3778 7.72451 48.7843 7.62459C50.1909 7.52466 51.4247 7.47423 52.4858 7.47331ZM52.8603 12.3962C52.4408 12.3966 52.0212 12.4093 51.6017 12.4343C51.2069 12.4593 50.8614 12.4843 50.5653 12.5092L50.5717 19.9126L52.3856 19.911C54.3845 19.9093 55.8896 19.6365 56.9009 19.0927C57.9122 18.5489 58.4172 17.5367 58.4159 16.0561C58.4153 15.3404 58.2791 14.7482 58.0072 14.2796C57.76 13.8109 57.3896 13.4411 56.8958 13.1701C56.4266 12.8743 55.8465 12.6774 55.1555 12.5793C54.4644 12.4565 53.6993 12.3955 52.8603 12.3962Z" fill="white"/>
</svg>
