<svg width="25" height="23" viewBox="0 0 25 23" fill="none" xmlns="http://www.w3.org/2000/svg">
<path fill-rule="evenodd" clip-rule="evenodd" d="M20.8877 17.9569C21.8838 16.9606 22.4434 15.6095 22.4434 14.2006C22.4434 12.7918 21.8838 11.4407 20.8877 10.4444L12.7127 2.26939C12.4781 2.03501 12.3463 1.71705 12.3462 1.38546C12.3461 1.05387 12.4777 0.73582 12.7121 0.501269C12.9464 0.266718 13.2644 0.134883 13.596 0.134766C13.9276 0.134648 14.2456 0.266259 14.4802 0.500644L22.6552 8.67564C24.1205 10.1406 24.9438 12.1277 24.9441 14.1998C24.9443 16.2718 24.1214 18.2591 22.6564 19.7244C21.1914 21.1897 19.2044 22.0131 17.1323 22.0133C15.0603 22.0135 13.073 21.1906 11.6077 19.7256L1.66519 9.78189C0.610124 8.72666 0.0174609 7.29553 0.0175781 5.80333C0.0176954 4.31112 0.610583 2.88008 1.66581 1.82502C2.72104 0.769955 4.15218 0.177291 5.64438 0.177409C7.13658 0.177526 8.56762 0.770414 9.62269 1.82564L19.5639 11.7669C20.1934 12.4152 20.5425 13.2852 20.5358 14.1888C20.5291 15.0924 20.1671 15.9571 19.528 16.596C18.889 17.2349 18.0242 17.5966 17.1206 17.6031C16.217 17.6096 15.3471 17.2603 14.6989 16.6306L5.64144 7.57189C5.40689 7.33751 5.27505 7.01955 5.27494 6.68796C5.27482 6.35637 5.40643 6.03832 5.64081 5.80377C5.8752 5.56922 6.19316 5.43738 6.52475 5.43727C6.85633 5.43715 7.17439 5.56876 7.40894 5.80314L16.4677 14.8619C16.6437 15.0381 16.8826 15.1372 17.1316 15.1373C17.3807 15.1374 17.6196 15.0386 17.7958 14.8625C17.972 14.6865 18.0711 14.4477 18.0712 14.1986C18.0713 13.9495 17.9725 13.7106 17.7964 13.5344L7.85519 3.59314C7.56497 3.30276 7.22039 3.07238 6.84114 2.91516C6.46188 2.75794 6.05537 2.67696 5.64482 2.67685C5.23427 2.67673 4.82772 2.75748 4.44837 2.91448C4.06903 3.07149 3.72432 3.30167 3.43394 3.59189C2.84748 4.17802 2.51788 4.97311 2.51764 5.80226C2.51741 6.63141 2.84656 7.42668 3.43269 8.01314L13.3752 17.9556C14.3715 18.9518 15.7226 19.5114 17.1314 19.5114C18.5403 19.5114 19.8914 18.9518 20.8877 17.9556V17.9569Z" fill="#EF5A0D"/>
</svg>
