<svg width="24" height="25" viewBox="0 0 24 25" fill="none" xmlns="http://www.w3.org/2000/svg">
<path d="M12.0191 3.68233C8.82732 3.68233 6.23339 6.27626 6.23339 9.46804V12.2548C6.23339 12.843 5.98268 13.7398 5.68375 14.2413L4.57482 16.083C3.89018 17.2209 4.36268 18.4841 5.61625 18.9084C9.77232 20.297 14.2563 20.297 18.4123 18.9084C19.5791 18.5227 20.0902 17.1438 19.4538 16.083L18.3448 14.2413C18.0555 13.7398 17.8048 12.843 17.8048 12.2548V9.46804C17.8048 6.2859 15.2013 3.68233 12.0191 3.68233Z" stroke="#243757" stroke-width="1.44643" stroke-miterlimit="10" stroke-linecap="round"/>
<path d="M13.8032 3.96196C13.5043 3.87518 13.1957 3.80768 12.8775 3.76911C11.9518 3.65339 11.0646 3.72089 10.2354 3.96196C10.515 3.24839 11.2093 2.74696 12.0193 2.74696C12.8293 2.74696 13.5236 3.24839 13.8032 3.96196Z" stroke="#243757" stroke-width="1.44643" stroke-miterlimit="10" stroke-linecap="round" stroke-linejoin="round"/>
<path d="M14.9121 19.2555C14.9121 20.8466 13.6103 22.1484 12.0192 22.1484C11.2285 22.1484 10.4956 21.8205 9.97491 21.2998C9.4542 20.7791 9.12634 20.0463 9.12634 19.2555" stroke="#243757" stroke-width="1.44643" stroke-miterlimit="10"/>
</svg>
