<svg width="25" height="24" viewBox="0 0 25 24" fill="none" xmlns="http://www.w3.org/2000/svg">
<path d="M7.5 -6.10352e-05C6.26864 -6.10352e-05 5.08771 0.497989 4.217 1.38452C3.3463 2.27106 2.85714 3.47346 2.85714 4.72721C2.85714 5.98096 3.3463 7.18336 4.217 8.0699C5.08771 8.95643 6.26864 9.45448 7.5 9.45448C8.73136 9.45448 9.91229 8.95643 10.783 8.0699C11.6537 7.18336 12.1429 5.98096 12.1429 4.72721C12.1429 3.47346 11.6537 2.27106 10.783 1.38452C9.91229 0.497989 8.73136 -6.10352e-05 7.5 -6.10352e-05ZM0 13.8181C0 13.0466 0.301019 12.3066 0.836838 11.7611C1.37266 11.2155 2.09938 10.909 2.85714 10.909H12.1429C12.6404 10.9086 13.1293 11.0405 13.5614 11.2916C12.67 12.0416 11.9524 12.983 11.4602 14.0485C10.968 15.1139 10.7133 16.277 10.7143 17.4545C10.7152 18.0315 10.7729 18.5905 10.8871 19.1316C9.96714 19.4472 8.85143 19.6363 7.5 19.6363C3.91 19.6363 1.97571 18.2981 0.974286 16.8232C0.446998 16.041 0.118163 15.138 0.0171428 14.1948C0.00899296 14.1102 0.00327628 14.0253 0 13.9403V13.8181ZM22.1429 5.81812C22.1429 6.78254 21.7666 7.70747 21.0968 8.38942C20.427 9.07137 19.5186 9.45448 18.5714 9.45448C17.6242 9.45448 16.7158 9.07137 16.046 8.38942C15.3763 7.70747 15 6.78254 15 5.81812C15 4.8537 15.3763 3.92877 16.046 3.24682C16.7158 2.56487 17.6242 2.18176 18.5714 2.18176C19.5186 2.18176 20.427 2.56487 21.0968 3.24682C21.7666 3.92877 22.1429 4.8537 22.1429 5.81812ZM25 17.4545C25 19.1904 24.3227 20.8553 23.1171 22.0828C21.9115 23.3103 20.2764 23.9999 18.5714 23.9999C16.8665 23.9999 15.2313 23.3103 14.0257 22.0828C12.8202 20.8553 12.1429 19.1904 12.1429 17.4545C12.1429 15.7185 12.8202 14.0537 14.0257 12.8261C15.2313 11.5986 16.8665 10.909 18.5714 10.909C20.2764 10.909 21.9115 11.5986 23.1171 12.8261C24.3227 14.0537 25 15.7185 25 17.4545ZM22.1414 15.8428H19.9343L19.2514 13.6159C19.2102 13.4646 19.1213 13.3312 18.9985 13.2361C18.8757 13.1411 18.7257 13.0896 18.5714 13.0896C18.4172 13.0896 18.2671 13.1411 18.1443 13.2361C18.0215 13.3312 17.9327 13.4646 17.8914 13.6159L17.21 15.8428H15C14.3086 15.8428 14.02 16.7839 14.58 17.2159L16.3657 18.5934L15.6843 20.8218C15.47 21.5199 16.2243 22.1018 16.7843 21.6698L18.57 20.2923L20.3557 21.6698C20.9157 22.1018 21.67 21.5199 21.4557 20.8218L20.7743 18.5934L22.56 17.2159C23.12 16.7839 22.8314 15.8428 22.14 15.8428" fill="#A7A7A7"/>
</svg>
