<svg width="24" height="24" viewBox="0 0 24 24" fill="none" xmlns="http://www.w3.org/2000/svg">
<path d="M10.5202 3.18137L5.21218 0.55731C2.34848 -0.844588 0 0.581274 0 3.72057V21.5019C0 22.8678 1.13829 23.9822 2.52821 23.9822H11.4189C12.0779 23.9822 12.6171 23.443 12.6171 22.784V6.50039C12.6171 5.24228 11.6705 3.74453 10.5202 3.18137ZM8.38742 14.097H4.22966C3.73839 14.097 3.331 13.6896 3.331 13.1983C3.331 12.7071 3.73839 12.2997 4.22966 12.2997H8.38742C8.87868 12.2997 9.28607 12.7071 9.28607 13.1983C9.28607 13.6896 8.89066 14.097 8.38742 14.097ZM8.38742 9.30419H4.22966C3.73839 9.30419 3.331 8.8968 3.331 8.40554C3.331 7.91427 3.73839 7.50689 4.22966 7.50689H8.38742C8.87868 7.50689 9.28607 7.91427 9.28607 8.40554C9.28607 8.8968 8.89066 9.30419 8.38742 9.30419Z" fill="#A7A7A7"/>
<path d="M24 19.2373V20.9867C24 22.6402 22.658 23.9822 21.0045 23.9822H15.5766C14.9296 23.9822 14.4144 23.467 14.4144 22.8199V20.2318C15.6965 20.3876 17.0504 20.0161 18.021 19.2373C18.8358 19.8963 19.8782 20.2917 21.0165 20.2917C22.1308 20.2917 23.1732 19.8963 24 19.2373Z" fill="#A7A7A7"/>
<path d="M24 15.6546V15.6666C23.9041 17.2363 22.6221 18.4944 21.0165 18.4944C19.351 18.4944 18.021 17.1404 18.021 15.4989C18.021 17.3321 16.3315 18.8059 14.4144 18.4345V12.0001C14.4144 11.2333 15.1213 10.6581 15.8762 10.8259L18.021 11.3052L18.5961 11.437L21.0404 11.9881C21.6276 12.108 22.1668 12.3117 22.6341 12.6112C22.6341 12.6232 22.646 12.6232 22.646 12.6232C22.7659 12.7071 22.8857 12.8029 22.9935 12.9108C23.5447 13.4619 23.9041 14.2647 23.988 15.439C23.988 15.5109 24 15.5828 24 15.6546Z" fill="#A7A7A7"/>
</svg>
