<svg width="38" height="43" viewBox="0 0 38 43" fill="none" xmlns="http://www.w3.org/2000/svg">
<path fill-rule="evenodd" clip-rule="evenodd" d="M2.69167 3.10768C0.25 5.54727 0.25 9.47643 0.25 17.3327V25.666C0.25 33.5223 0.25 37.4514 2.69167 39.891C5.13125 42.3327 9.06042 42.3327 16.9167 42.3327H21.0833C28.9396 42.3327 32.8687 42.3327 35.3083 39.891C37.75 37.4514 37.75 33.5223 37.75 25.666V17.3327C37.75 9.47643 37.75 5.54727 35.3083 3.10768C32.8687 0.666015 28.9396 0.666016 21.0833 0.666016H16.9167C9.06042 0.666016 5.13125 0.666015 2.69167 3.10768ZM10.6667 15.7702C10.2523 15.7702 9.85484 15.9348 9.56181 16.2278C9.26879 16.5209 9.10417 16.9183 9.10417 17.3327C9.10417 17.7471 9.26879 18.1445 9.56181 18.4375C9.85484 18.7306 10.2523 18.8952 10.6667 18.8952H27.3333C27.7477 18.8952 28.1452 18.7306 28.4382 18.4375C28.7312 18.1445 28.8958 17.7471 28.8958 17.3327C28.8958 16.9183 28.7312 16.5209 28.4382 16.2278C28.1452 15.9348 27.7477 15.7702 27.3333 15.7702H10.6667ZM10.6667 24.1035C10.2523 24.1035 9.85484 24.2681 9.56181 24.5612C9.26879 24.8542 9.10417 25.2516 9.10417 25.666C9.10417 26.0804 9.26879 26.4778 9.56181 26.7709C9.85484 27.0639 10.2523 27.2285 10.6667 27.2285H21.0833C21.4977 27.2285 21.8952 27.0639 22.1882 26.7709C22.4812 26.4778 22.6458 26.0804 22.6458 25.666C22.6458 25.2516 22.4812 24.8542 22.1882 24.5612C21.8952 24.2681 21.4977 24.1035 21.0833 24.1035H10.6667Z" fill="#EF5A0D"/>
</svg>
