<?xml version="1.0" encoding="UTF-8"?>
<svg version="1.1" xmlns="http://www.w3.org/2000/svg" width="512" height="512">
<path d="M0 0 C168.96 0 337.92 0 512 0 C512 168.96 512 337.92 512 512 C343.04 512 174.08 512 0 512 C0 343.04 0 174.08 0 0 Z " fill="#FEFEFE" transform="translate(0,0)"/>
<path d="M0 0 C1.77315278 0.99298545 3.56330202 1.94823081 5.35839844 2.90087891 C16.97615629 9.17468917 26.91598036 17.087143 36.60058594 26.02197266 C38.33462352 27.60412373 40.08820476 29.08456646 41.92871094 30.53759766 C72.14739392 56.72712291 90.61994689 100.68334738 93.55371094 139.85717773 C95.61196857 174.08375096 90.67386262 207.99530455 73.71630859 238.23388672 C72.72332315 240.0070395 71.76807779 241.79718874 70.81542969 243.59228516 C64.54161943 255.21004301 56.6291656 265.14986708 47.69433594 274.83447266 C46.11218486 276.56851024 44.63174213 278.32209148 43.17871094 280.16259766 C39.99069275 283.84108018 36.49372247 286.88340576 32.74121094 289.97509766 C31.98807617 290.59674805 31.98807617 290.59674805 31.21972656 291.23095703 C23.12281957 297.87137898 14.85740403 303.77651916 5.74121094 308.97509766 C5.15758789 309.31138184 4.57396484 309.64766602 3.97265625 309.99414062 C-5.42528486 315.36980334 -14.97437631 319.59883321 -25.25878906 322.97509766 C-26.05027344 323.23564941 -26.84175781 323.49620117 -27.65722656 323.76464844 C-72.27166943 338.14099247 -120.52468999 334.49436064 -162.38769531 313.43994141 C-176.6903125 305.98497223 -189.4242727 296.8496346 -201.22363281 285.85791016 C-202.91788469 284.29048327 -204.63577967 282.84020558 -206.44628906 281.41259766 C-225.73820436 264.69293773 -239.71370069 239.70596608 -248.25878906 215.97509766 C-248.52385254 215.26804687 -248.78891602 214.56099609 -249.06201172 213.83251953 C-264.62017125 171.85643632 -261.19394038 123.57623414 -243.25878906 82.97509766 C-235.41162468 65.88869197 -225.17018515 50.64007717 -212.25878906 36.97509766 C-211.1081488 35.62501308 -209.96211946 34.27098176 -208.82128906 32.91259766 C-181.90282042 2.25374954 -138.57241744 -16.82710891 -98.37670898 -19.83740234 C-64.15013576 -21.89565998 -30.23858217 -16.95755403 0 0 Z " fill="#303AB2" transform="translate(338.2587890625,100.02490234375)"/>
<path d="M0 0 C7.54569066 0 13.74495684 0.20000553 20.9375 1.75 C21.80793945 1.93336914 22.67837891 2.11673828 23.57519531 2.30566406 C53.63880185 8.82858279 78.89116896 26.08501743 95.6875 51.9375 C107.42220205 70.50990333 113.41770294 89.66551988 113.3125 111.6875 C113.30686035 112.92411377 113.3012207 114.16072754 113.29541016 115.43481445 C112.88387084 146.48973445 100.03045126 173.70157194 78.08569336 195.32763672 C56.88694908 215.50493955 30.05685942 225 1 225 C1 210.15 1 195.3 1 180 C7.93 179.01 7.93 179.01 15 178 C33.70759806 172.79273044 48.16112446 163.17612825 58.125 146.40234375 C60.52186206 142.05303781 62.50027293 137.73229941 64 133 C64.35449219 132.01128906 64.70898438 131.02257812 65.07421875 130.00390625 C68.68886133 117.08307597 67.7010642 99.14869634 62 87 C61.2884375 85.39898437 61.2884375 85.39898437 60.5625 83.765625 C52.65436354 67.56915322 39.77098514 56.57696972 23.125 50.0625 C14.64526714 47.40607963 14.64526714 47.40607963 0 46 C0 30.82 0 15.64 0 0 Z " fill="#FDFDFE" transform="translate(244,143)"/>
<path d="M0 0 C19.83251235 0 34.95156669 6.61756049 49.33203125 20.203125 C53.85104857 24.85301676 57.28651227 29.77431438 60.375 35.4375 C60.69678223 36.02152588 61.01856445 36.60555176 61.35009766 37.20727539 C66.22793882 46.65728654 67.56159015 56.21418585 67.5 66.75 C67.49427979 67.89162598 67.48855957 69.03325195 67.48266602 70.20947266 C67.10697424 88.02763564 59.8558402 102.67821569 47.59375 115.53125 C34.37870914 128.10942142 18.01482071 134 0 134 C0 119.15 0 104.3 0 89 C-14.52 89 -29.04 89 -44 89 C-44 74.48 -44 59.96 -44 45 C-29.48 45 -14.96 45 0 45 C0 30.15 0 15.3 0 0 Z " fill="#303AB2" transform="translate(244,189)"/>
<path d="M0 0 C14.52 0 29.04 0 44 0 C44 14.52 44 29.04 44 44 C29.48 44 14.96 44 0 44 C0 29.48 0 14.96 0 0 Z " fill="#FDFDFE" transform="translate(200,279)"/>
<path d="M0 0 C14.52 0 29.04 0 44 0 C44 14.52 44 29.04 44 44 C29.48 44 14.96 44 0 44 C0 29.48 0 14.96 0 0 Z " fill="#FDFDFE" transform="translate(155,234)"/>
<path d="M0 0 C14.52 0 29.04 0 44 0 C44 14.52 44 29.04 44 44 C29.48 44 14.96 44 0 44 C0 29.48 0 14.96 0 0 Z " fill="#FFFFFF" transform="translate(200,189)"/>
<path d="M0 0 C0.33 0 0.66 0 1 0 C1 14.52 1 29.04 1 44 C15.52 44 30.04 44 45 44 C45 44.33 45 44.66 45 45 C30.48 45 15.96 45 1 45 C1 59.52 1 74.04 1 89 C15.52 89 30.04 89 45 89 C45 89.33 45 89.66 45 90 C30.48 90 15.96 90 1 90 C1 104.52 1 119.04 1 134 C0.67 134 0.34 134 0 134 C0 119.48 0 104.96 0 90 C-14.52 90 -29.04 90 -44 90 C-44 89.67 -44 89.34 -44 89 C-29.48 89 -14.96 89 0 89 C0 74.48 0 59.96 0 45 C-14.52 45 -29.04 45 -44 45 C-44 44.67 -44 44.34 -44 44 C-29.48 44 -14.96 44 0 44 C0 29.48 0 14.96 0 0 Z " fill="#797FCD" transform="translate(199,189)"/>
</svg>
