<svg width="25" height="26" viewBox="0 0 25 26" fill="none" xmlns="http://www.w3.org/2000/svg">
<path d="M8.78202 0.525452C5.51371 0.525452 2.85664 3.18252 2.85664 6.45083C2.85664 9.65678 5.36402 12.2515 8.63233 12.3637C8.73213 12.3513 8.83192 12.3513 8.90677 12.3637C8.93172 12.3637 8.94419 12.3637 8.96914 12.3637C8.98162 12.3637 8.98162 12.3637 8.99409 12.3637C12.1876 12.2515 14.6949 9.65678 14.7074 6.45083C14.7074 3.18252 12.0503 0.525452 8.78202 0.525452Z" fill="#A7A7A7"/>
<path d="M15.1191 15.682C11.6387 13.3617 5.9628 13.3617 2.45747 15.682C0.873214 16.7423 0 18.1769 0 19.7112C0 21.2456 0.873214 22.6677 2.445 23.7155C4.19143 24.8881 6.48673 25.4744 8.78204 25.4744C11.0773 25.4744 13.3726 24.8881 15.1191 23.7155C16.6909 22.6552 17.5641 21.2331 17.5641 19.6863C17.5516 18.1519 16.6909 16.7298 15.1191 15.682Z" fill="#A7A7A7"/>
<path d="M22.4915 7.18683C22.6911 9.60688 20.9696 11.7275 18.587 12.0145C18.5745 12.0145 18.5745 12.0145 18.562 12.0145H18.5246C18.4497 12.0145 18.3749 12.0145 18.3125 12.0394C17.1025 12.1018 15.9923 11.7151 15.1565 11.004C16.4414 9.85637 17.1773 8.13489 17.0277 6.26372C16.9403 5.25328 16.591 4.33017 16.0671 3.54428C16.5411 3.30726 17.09 3.15757 17.6514 3.10767C20.0964 2.8956 22.2794 4.71688 22.4915 7.18683Z" fill="#A7A7A7"/>
<path d="M24.9864 18.7257C24.8866 19.9357 24.1132 20.9836 22.8158 21.6946C21.5684 22.3807 19.9966 22.705 18.4373 22.6676C19.3355 21.8568 19.8594 20.8463 19.9592 19.7735C20.0839 18.2267 19.3479 16.7422 17.8759 15.5571C17.0401 14.896 16.0671 14.3721 15.0068 13.9854C17.7637 13.187 21.2316 13.7234 23.3647 15.4449C24.5124 16.368 25.0987 17.5281 24.9864 18.7257Z" fill="#A7A7A7"/>
</svg>
