<svg width="24" height="24" viewBox="0 0 24 24" fill="" xmlns="http://www.w3.org/2000/svg">
<path d="M12 7.33333C10.8613 7.33333 9.844 7.85333 9.172 8.66667C8.75733 9.16921 8.48405 9.77317 8.38029 10.4164C8.27653 11.0596 8.34603 11.7189 8.58165 12.3263C8.81727 12.9337 9.21048 13.4674 9.72084 13.8725C10.2312 14.2775 10.8403 14.5392 11.4853 14.6307C12.3625 12.9394 13.8614 11.6542 15.6667 11.0453V11C15.6667 10.1133 15.352 9.3 14.828 8.66667C14.156 7.85333 13.1387 7.33333 12 7.33333ZM23.5693 13.2293C22.7707 12.2951 21.7497 11.5769 20.6004 11.1412C19.4511 10.7054 18.2106 10.5661 16.9933 10.736C16.9577 10.0128 16.7633 9.3063 16.424 8.66667H22C22.5304 8.66667 23.0391 8.87738 23.4142 9.25245C23.7893 9.62753 24 10.1362 24 10.6667V11.3333C24 11.9733 23.8533 12.6187 23.5693 13.2293ZM10.9427 16C10.7589 16.6508 10.666 17.3238 10.6667 18C10.6667 20.396 11.8147 22.5227 13.592 23.86C13.0666 23.9541 12.5338 24.001 12 24C7.81333 24 5.33333 21.2947 5.33333 18.6667V18C5.33263 17.7372 5.38388 17.4768 5.48414 17.2338C5.5844 16.9908 5.73169 16.7701 5.91755 16.5842C6.10341 16.3984 6.32417 16.2511 6.56713 16.1508C6.8101 16.0505 7.07049 15.9993 7.33333 16H10.9427ZM4.42 16.3787C1.60667 15.6173 0 13.4493 0 11.3333V10.6667C0 10.1362 0.210714 9.62753 0.585787 9.25245C0.960859 8.87738 1.46957 8.66667 2 8.66667H7.57733C7.19545 9.38495 6.99712 10.1865 7 11C6.99911 11.6885 7.14082 12.3698 7.41619 13.0008C7.69156 13.6319 8.09462 14.1991 8.6 14.6667H7.33333C6.73922 14.6665 6.15587 14.8251 5.64365 15.1261C5.13144 15.4271 4.70898 15.8596 4.42 16.3787ZM6.66667 0C7.63913 0 8.57176 0.386309 9.25939 1.07394C9.94703 1.76158 10.3333 2.69421 10.3333 3.66667C10.3333 4.63913 9.94703 5.57176 9.25939 6.25939C8.57176 6.94703 7.63913 7.33333 6.66667 7.33333C5.69421 7.33333 4.76158 6.94703 4.07394 6.25939C3.38631 5.57176 3 4.63913 3 3.66667C3 2.69421 3.38631 1.76158 4.07394 1.07394C4.76158 0.386309 5.69421 0 6.66667 0ZM17.3333 0C18.3058 0 19.2384 0.386309 19.9261 1.07394C20.6137 1.76158 21 2.69421 21 3.66667C21 4.63913 20.6137 5.57176 19.9261 6.25939C19.2384 6.94703 18.3058 7.33333 17.3333 7.33333C16.3609 7.33333 15.4282 6.94703 14.7406 6.25939C14.053 5.57176 13.6667 4.63913 13.6667 3.66667C13.6667 2.69421 14.053 1.76158 14.7406 1.07394C15.4282 0.386309 16.3609 0 17.3333 0ZM18 24C19.5913 24 21.1174 23.3679 22.2426 22.2426C23.3679 21.1174 24 19.5913 24 18C24 16.4087 23.3679 14.8826 22.2426 13.7574C21.1174 12.6321 19.5913 12 18 12C16.4087 12 14.8826 12.6321 13.7574 13.7574C12.6321 14.8826 12 16.4087 12 18C12 19.5913 12.6321 21.1174 13.7574 22.2426C14.8826 23.3679 16.4087 24 18 24ZM18 14.6667C18.1768 14.6667 18.3464 14.7369 18.4714 14.8619C18.5964 14.987 18.6667 15.1565 18.6667 15.3333V17.3333H20.6667C20.8435 17.3333 21.013 17.4036 21.1381 17.5286C21.2631 17.6536 21.3333 17.8232 21.3333 18C21.3333 18.1768 21.2631 18.3464 21.1381 18.4714C21.013 18.5964 20.8435 18.6667 20.6667 18.6667H18.6667V20.6667C18.6667 20.8435 18.5964 21.013 18.4714 21.1381C18.3464 21.2631 18.1768 21.3333 18 21.3333C17.8232 21.3333 17.6536 21.2631 17.5286 21.1381C17.4036 21.013 17.3333 20.8435 17.3333 20.6667V18.6667H15.3333C15.1565 18.6667 14.987 18.5964 14.8619 18.4714C14.7369 18.3464 14.6667 18.1768 14.6667 18C14.6667 17.8232 14.7369 17.6536 14.8619 17.5286C14.987 17.4036 15.1565 17.3333 15.3333 17.3333H17.3333V15.3333C17.3333 15.1565 17.4036 14.987 17.5286 14.8619C17.6536 14.7369 17.8232 14.6667 18 14.6667Z" fill="#A7A7A7"/>
</svg>
