<?xml version="1.0" encoding="UTF-8"?>
<svg version="1.1" xmlns="http://www.w3.org/2000/svg" width="512" height="512">
<path d="M0 0 C2.84385426 1.82139829 5.47081773 3.7631053 8 6 C8.55171875 6.4846875 9.1034375 6.969375 9.671875 7.46875 C11.87686226 10.0109706 11.77089361 12.73523396 12 16 C11.5978125 16.90492187 11.5978125 16.90492187 11.1875 17.828125 C10.73788906 20.32142759 10.73788906 20.32142759 13.140625 23.05078125 C14.16278875 24.1514706 15.20002183 25.23831117 16.25 26.3125 C16.7346875 26.87517578 17.219375 27.43785156 17.71875 28.01757812 C20.12496322 30.49974504 21.87985486 31.88798549 25.38037109 32.23803711 C33.0628994 31.68565697 40.63158106 29.63373218 48.125 27.9375 C76.46693889 21.83864709 76.46693889 21.83864709 87.08984375 27.75390625 C87.72019531 28.16511719 88.35054688 28.57632813 89 29 C89.68191406 29.40089844 90.36382812 29.80179688 91.06640625 30.21484375 C99.65998103 35.84061851 104.27301336 44.86544298 106.44651794 54.67874146 C106.65108109 55.71030365 106.85564423 56.74186584 107.06640625 57.8046875 C107.3057338 58.91883026 107.54506134 60.03297302 107.79164124 61.18087769 C108.55569185 64.78213355 109.28284601 68.38912876 110 72 C110.36553986 73.82682312 110.36553986 73.82682312 110.73846436 75.69055176 C111.98834098 81.96184809 113.21998401 88.23673008 114.45117188 94.51171875 C114.81940063 96.38802979 114.81940063 96.38802979 115.19506836 98.30224609 C115.69599132 100.88148048 116.1889769 103.46226738 116.67456055 106.04443359 C117.39333182 109.84980525 118.14484167 113.64748751 118.90234375 117.4453125 C119.10987778 118.591138 119.3174118 119.7369635 119.53123474 120.91751099 C121.06729249 128.42289113 123.47915887 132.73473547 129 138 C129.71961914 138.8146875 130.43923828 139.629375 131.18066406 140.46875 C133.17385819 142.67515968 135.20831335 144.8384345 137.25 147 C138.28060547 148.16208984 138.28060547 148.16208984 139.33203125 149.34765625 C140.03199219 150.07855469 140.73195313 150.80945313 141.453125 151.5625 C142.36819824 152.55443359 142.36819824 152.55443359 143.30175781 153.56640625 C146.43280415 155.22995168 147.36139767 154.93059024 150.78997803 154.56152344 C167.06886465 154.44980585 184.90592422 173.7810225 195.78710938 184.4675293 C221.45465111 210.97236003 223.00829108 242.23969603 223 277.3125 C223.00009992 278.01837785 223.00019984 278.7242557 223.00030279 279.45152378 C222.9841147 297.04855202 222.42330617 314.61730006 221.64697731 332.19542909 C221.14503335 343.56480848 220.80075364 354.92799508 220.59765625 366.30664062 C220.58415445 367.06071123 220.57065266 367.81478183 220.55674171 368.59170306 C220.50299084 371.62509055 220.45023477 374.65849309 220.39878941 377.69192058 C220.00533575 400.8251916 219.47473534 423.9573097 218.55003357 447.07593536 C218.45563175 449.47020827 218.36687667 451.86471181 218.28431702 454.2594223 C217.67731491 471.51010155 216.87532733 484.76558167 204.34375 497.7109375 C196.84054704 504.68325346 188.26626324 508.11958479 178.13541317 508.13422108 C177.09508363 508.13774942 177.09508363 508.13774942 176.03373733 508.14134905 C173.69841482 508.14803178 171.36314804 508.14758104 169.02781677 508.14717102 C167.34103516 508.1504701 165.65425434 508.15419576 163.96747452 508.1583125 C159.32310221 508.16833566 154.67874283 508.17204981 150.03436124 508.17470181 C145.0287155 508.17860394 140.02308 508.18818236 135.0174408 508.19691467 C122.92403108 508.21668195 110.83062052 508.22674576 98.73719868 508.23564246 C93.04286255 508.24002504 87.34852736 508.24539194 81.65419197 508.25063133 C62.7259042 508.26764409 43.79761702 508.28213831 24.86932278 508.28938007 C19.95674578 508.29128998 15.04416878 508.29321031 10.1315918 508.29516602 C8.91058716 508.29564976 7.68958253 508.2961335 6.43157775 508.2966319 C-13.34833665 508.30493237 -33.12819057 508.33026939 -52.90807856 508.36274669 C-73.21345235 508.39581512 -93.51879541 508.41382865 -113.82419628 508.41702431 C-125.22580301 508.41918964 -136.62732156 508.4279416 -148.02890205 508.45348549 C-157.73901475 508.47518951 -167.44901784 508.48324435 -177.15915204 508.47351871 C-182.11240503 508.46897314 -187.06543188 508.4708753 -192.01865387 508.49028015 C-196.55705269 508.50790612 -201.09506031 508.50691864 -205.63346326 508.49138286 C-207.27148756 508.48900593 -208.90953892 508.49333475 -210.5475219 508.50521151 C-224.84367712 508.60241358 -235.64712564 506.12297874 -246.12890625 495.9296875 C-252.71245185 488.9702857 -256.98708302 481.23885165 -257.22081375 471.52944088 C-257.24438926 470.6338949 -257.26796477 469.73834892 -257.29225469 468.81566519 C-257.31321604 467.83565324 -257.33417738 466.85564129 -257.35577393 465.84593201 C-257.39409777 464.27913691 -257.39409777 464.27913691 -257.43319583 462.68068939 C-257.51702553 459.16800453 -257.59334398 455.65520503 -257.66894531 452.14233398 C-257.69680744 450.91299385 -257.72466957 449.68365372 -257.75337601 448.41706085 C-258.28626613 424.84793996 -258.62053259 401.27653962 -258.87100394 377.70284435 C-258.91210696 373.83842189 -258.95463155 369.97401628 -258.99804688 366.10961914 C-259.00666224 365.34051156 -259.0152776 364.57140397 -259.02415404 363.7789901 C-259.16659037 351.39372287 -259.43584391 339.01444113 -259.75448337 326.63259434 C-260.08009201 313.87137726 -260.26814757 301.11323959 -260.33376765 288.34801728 C-260.37425025 281.19808167 -260.47378604 274.06012599 -260.73111725 266.9144268 C-262.42250515 218.51274309 -262.42250515 218.51274309 -247.10330367 200.88271219 C-241.95619613 195.38751531 -236.46007612 190.27144982 -230.60906982 185.53382874 C-229.91105114 184.96025245 -229.21303245 184.38667617 -228.49386168 183.79571879 C-223.44244547 180.06615918 -219.70178808 179.49828726 -213.46827245 180.02403349 C-209.94442481 179.9897219 -208.19373087 178.65584094 -205.71875 176.27148438 C-205.2340625 175.74876953 -204.749375 175.22605469 -204.25 174.6875 C-203.71890625 174.20732422 -203.1878125 173.72714844 -202.640625 173.23242188 C-200.36547737 170.9069129 -199.11895174 169.0773937 -198.75756836 165.80419922 C-199.41016039 155.55542507 -202.39277733 145.19101652 -204.63696289 135.18994141 C-208.08257986 119.75203744 -211.18594257 105.1658663 -202.71484375 90.82421875 C-195.4792923 80.12205211 -183.93729175 76.37648123 -171.81762695 73.96289062 C-170.93691528 73.78195358 -170.05620361 73.60101654 -169.14880371 73.41459656 C-167.25116495 73.02550138 -165.35292732 72.63931759 -163.45415688 72.25578308 C-160.44732464 71.64797088 -157.44238024 71.03151322 -154.43778992 70.41271973 C-145.90003858 68.65610443 -137.35893896 66.91600516 -128.81713867 65.17919922 C-123.58026935 64.11376753 -118.34533782 63.03920646 -113.11144066 61.95927429 C-111.12069847 61.55057348 -109.12920317 61.14552314 -107.13695717 60.74421692 C-104.35421954 60.18366993 -101.57406669 59.61164825 -98.79418945 59.03710938 C-97.97381699 58.87494431 -97.15344452 58.71277924 -96.30821228 58.54570007 C-87.11792716 56.61758276 -81.71991532 51.23599826 -75.16845703 44.8137207 C-74.13839154 43.81184271 -73.09855956 42.81991032 -72.04931641 41.83813477 C-65.901479 36.6212433 -65.901479 36.6212433 -62.66699219 29.68505859 C-63.03667763 27.33127595 -63.03667763 27.33127595 -64 24 C-60.17502043 14.15336583 -47.49976346 3.71589518 -38.25 -0.9375 C-26.62155004 -5.98840494 -11.2386022 -6.14552328 0 0 Z " fill="#2B3D65" transform="translate(276,4)"/>
<path d="M0 0 C2.12363529 8.95749559 4.0469584 17.94689803 5.87509155 26.96817017 C8.20206614 38.44231576 10.6074876 49.89206556 13.1875 61.3125 C15.11546842 69.85305636 16.87851298 78.40032049 18.46166992 87.01098633 C19.80486485 94.21351592 21.38534238 101.35394103 23 108.5 C24.80284241 116.47891639 26.52115989 124.45454555 28 132.5 C29.71787159 141.84178389 31.75432844 151.1003743 33.8527832 160.36352539 C35.49776875 167.64275718 36.99722804 174.92265291 38.26171875 182.27734375 C39.07405487 185.27310183 39.73383142 186.87207264 42 189 C45.10197397 189.80946422 45.10197397 189.80946422 48 190 C48.70078445 192.55951745 49.38585196 195.12159702 50.0625 197.6875 C50.36124023 198.7693457 50.36124023 198.7693457 50.66601562 199.87304688 C52.58818697 207.25823151 52.58818697 207.25823151 51 211 C49.13973622 212.90476769 47.38496583 214.48852756 45.3125 216.125 C44.73234131 216.59945557 44.15218262 217.07391113 43.55444336 217.56274414 C38.86386053 221.37749983 34.08739082 225.08790223 29.31274414 228.79663086 C25.02212062 232.1455407 20.86672383 235.62763583 16.75 239.1875 C12.65405764 242.72348355 8.55730179 246.2533519 4.375 249.6875 C3.61960937 250.31011719 2.86421875 250.93273437 2.0859375 251.57421875 C-0.13914477 253.09510832 -1.31722545 253.79918537 -4 254 C-6.15333557 252.42102051 -6.15333557 252.42102051 -8.50219727 250.00195312 C-9.38734512 249.10351685 -10.27249298 248.20508057 -11.1844635 247.27941895 C-11.65347643 246.79143326 -12.12248936 246.30344757 -12.6057148 245.80067444 C-14.08047284 244.26661781 -15.56999045 242.7483838 -17.06419373 241.23327637 C-20.24449706 238.00259037 -23.40415751 234.75213561 -26.5625 231.5 C-30.20116408 227.75681591 -33.84821714 224.02232576 -37.5117321 220.30345154 C-38.96447081 218.82147901 -40.40389279 217.32743353 -41.84291077 215.83215332 C-52.60608256 204.87393052 -63.2729405 197.86232791 -78.875 197.5 C-96.86658538 197.62193409 -108.35321654 210.01528559 -120.26171875 222.06640625 C-121.17838821 222.98590561 -122.09505768 223.90540497 -123.039505 224.85276794 C-125.43914517 227.25992885 -127.83271004 229.673038 -130.22491455 232.08758545 C-132.68199754 234.56538082 -135.1449799 237.037298 -137.60742188 239.50976562 C-142.41062704 244.33421577 -147.20741821 249.16499704 -152 254 C-156.45012026 252.35290194 -159.5981621 250.05516731 -163.125 246.9375 C-164.26845482 245.94147123 -165.41300572 244.94669951 -166.55859375 243.953125 C-167.13077637 243.45619141 -167.70295898 242.95925781 -168.29248047 242.44726562 C-169.90520567 241.08034613 -171.54729702 239.77335159 -173.22265625 238.484375 C-174.20105469 237.72640625 -175.17945313 236.9684375 -176.1875 236.1875 C-177.06792969 235.52105469 -177.94835937 234.85460937 -178.85546875 234.16796875 C-183.32545173 229.64913349 -183.84817227 222.61088024 -185.125 216.5625 C-185.39763672 215.33176758 -185.39763672 215.33176758 -185.67578125 214.07617188 C-186.6828539 209.33232968 -187.44318104 204.8749914 -187 200 C-185.7315625 198.824375 -185.7315625 198.824375 -184.4375 197.625 C-181.80337558 195.35976156 -181.80337558 195.35976156 -181.92440796 193.06246948 C-182.03104767 192.33141998 -182.13768738 191.60037048 -182.24755859 190.84716797 C-182.36162048 190.04518982 -182.47568237 189.24321167 -182.59320068 188.41693115 C-183.19072444 184.86684217 -183.8541921 181.34189265 -184.6015625 177.8203125 C-184.75866699 177.06260056 -184.91577148 176.30488861 -185.07763672 175.5242157 C-185.58980489 173.05704159 -186.10746238 170.59105277 -186.625 168.125 C-187.35604544 164.61106625 -188.08420166 161.09653524 -188.8125 157.58203125 C-188.99680573 156.69458725 -189.18111145 155.80714325 -189.3710022 154.89280701 C-191.02125836 146.93414958 -192.61334295 138.96451505 -194.1930542 130.99160767 C-196.60131036 118.84228371 -199.09905892 106.71766903 -201.7199707 94.61206055 C-203.80608212 84.96091434 -205.81967284 75.29574736 -207.8125 65.625 C-207.96565674 64.88385956 -208.11881348 64.14271912 -208.27661133 63.37911987 C-208.71305174 61.26603268 -209.14783897 59.15261265 -209.58203125 57.0390625 C-209.83186768 55.82428223 -210.0817041 54.60950195 -210.33911133 53.35791016 C-210.95161566 50.24583607 -211.49681284 47.13140688 -212 44 C-206.96242386 42.50721708 -201.92105747 41.26302384 -196.78515625 40.16015625 C-196.011754 39.99253281 -195.23835175 39.82490936 -194.44151306 39.65220642 C-192.80882935 39.29898212 -191.17589487 38.94691509 -189.54272461 38.59594727 C-187.10001121 38.07056792 -184.6583615 37.54045465 -182.21679688 37.00976562 C-173.35442453 35.09258423 -164.48051937 33.30616996 -155.56323242 31.66381836 C-150.73467098 30.76427341 -145.92970432 29.76813973 -141.125 28.75 C-134.09469242 27.27143987 -127.06244171 25.80382725 -120.0234375 24.3671875 C-105.15472745 21.32987638 -90.30998492 18.21438883 -75.49371338 14.93029785 C-65.42530805 12.70246624 -55.33069885 10.67749132 -45.19506836 8.77954102 C-37.2380519 7.27625087 -29.34502009 5.56040975 -21.46435547 3.69873047 C-5.72238584 0 -5.72238584 0 0 0 Z " fill="#E1EAFE" transform="translate(334,84)"/>
<path d="M0 0 C1.00933594 -0.01289063 2.01867187 -0.02578125 3.05859375 -0.0390625 C12.15674132 1.68522411 18.64713724 6.97722796 24.97817993 13.4259491 C25.76259913 14.20468504 26.54701833 14.98342098 27.3552078 15.78575498 C29.9618509 18.3795528 32.55033568 20.99072179 35.13916016 23.60229492 C37.01148364 25.47275335 38.88476734 27.34220219 40.75927734 29.21046448 C45.30692915 33.74748173 49.84122349 38.29762334 54.37107749 42.85240289 C59.64680509 48.15612798 64.93587032 53.44646892 70.22552721 58.73629562 C79.65844629 68.17040011 89.07944321 77.61631991 98.49365234 87.0690918 C107.63234324 96.24519258 116.77910485 105.41314497 125.93505859 114.57202148 C126.49996052 115.13710622 127.06486244 115.70219096 127.64688261 116.28439947 C128.21080592 116.84850176 128.77472924 117.41260405 129.35574114 117.99380034 C130.49111437 119.12953898 131.62648412 120.2652811 132.76185036 121.40102673 C133.32175198 121.96111386 133.8816536 122.521201 134.45852194 123.09826047 C143.18416511 131.82746932 151.90236391 140.56411052 160.61982233 149.30149194 C163.78114133 152.46983976 166.9435838 155.63706127 170.106842 158.80347296 C175.58624348 164.28838354 181.06054996 169.77830611 186.52915955 175.27397728 C188.34961707 177.10190411 190.17179138 178.92812292 191.99575424 180.75255203 C194.47405845 183.23210465 196.94615781 185.71767577 199.41665649 188.20500183 C200.14911547 188.93504573 200.88157445 189.66508962 201.63622916 190.41725606 C202.29190733 191.07999982 202.9475855 191.74274358 203.62313271 192.42557049 C204.19488688 192.99927559 204.76664106 193.57298068 205.35572112 194.16407079 C206.5625 195.625 206.5625 195.625 206.5625 197.625 C202.46821632 199.57285269 199.17835407 199.8754811 194.66463375 199.87668228 C193.63715561 199.8810426 193.63715561 199.8810426 192.58892033 199.88549101 C190.28875948 199.89280218 187.98886445 199.88584254 185.68870544 199.87896729 C184.024945 199.88127127 182.36118558 199.88444738 180.69742829 199.88842177 C176.12158564 199.89678685 171.5458262 199.89263674 166.96998322 199.88644934 C162.03674571 199.88193289 157.10352273 199.88890457 152.17028809 199.89440918 C142.50479668 199.90331326 132.8393363 199.90137671 123.17384367 199.8955839 C115.32073289 199.89107167 107.46763082 199.8904526 99.61451912 199.89263153 C97.93956176 199.89309123 97.93956176 199.89309123 96.23076688 199.89356022 C93.96252647 199.89419965 91.69428607 199.89484808 89.42604566 199.8955054 C68.14549917 199.9012116 46.8649699 199.89464611 25.58442623 199.88390467 C7.31286733 199.87496767 -10.95866616 199.87652186 -29.23022461 199.88574219 C-50.43489292 199.89643758 -71.63954613 199.90066354 -92.84421676 199.89451766 C-95.1039228 199.89388054 -97.36362884 199.8932518 -99.62333488 199.89263153 C-101.29118286 199.8921687 -101.29118286 199.8921687 -102.99272474 199.89169653 C-110.83963656 199.88996748 -118.68653883 199.89288917 -126.53344917 199.89759064 C-136.09147378 199.90319131 -145.64946552 199.90170015 -155.20748634 199.89102915 C-160.08690208 199.88576164 -164.96626296 199.88373403 -169.84567833 199.89032745 C-174.30832989 199.89626667 -178.77087551 199.89304549 -183.2335174 199.88237235 C-184.85186611 199.8801297 -186.47022368 199.88129386 -188.08856673 199.88612393 C-190.28099838 199.8921678 -192.47306271 199.88600603 -194.66547489 199.87668228 C-196.49545854 199.87619522 -196.49545854 199.87619522 -198.36241156 199.87569833 C-201.29840563 199.63633975 -202.96679265 199.16731501 -205.4375 197.625 C-204.09070582 194.62732565 -202.596818 192.53282027 -200.28047848 190.21070957 C-199.6271683 189.5509505 -198.97385813 188.89119144 -198.30075067 188.21143967 C-197.22145039 187.1367852 -197.22145039 187.1367852 -196.12034607 186.04042053 C-195.35727947 185.27282282 -194.59421287 184.5052251 -193.80802304 183.71436685 C-191.24193694 181.13558944 -188.6687224 178.56404569 -186.09545898 175.99243164 C-184.2571714 174.14816168 -182.4192957 172.3034811 -180.58180237 170.4584198 C-176.10233859 165.96234096 -171.61732781 161.47183541 -167.13010692 156.98349959 C-163.48130274 153.3337449 -159.83408286 149.68241456 -156.18797493 146.02996635 C-145.84650951 135.67088487 -135.50085771 125.3160105 -125.14983069 114.96648306 C-124.59177084 114.40850313 -124.03371099 113.85052319 -123.45874023 113.27563477 C-122.89999645 112.71697275 -122.34125267 112.15831073 -121.76557726 111.58271956 C-112.71693582 102.53489047 -103.6783042 93.47713492 -94.64418744 84.41480524 C-85.36407948 75.10594573 -76.07650974 65.80458859 -66.78115135 56.5109567 C-61.56428319 51.2947518 -56.35052219 46.07552703 -51.14477348 40.84822273 C-46.24651887 35.929816 -41.33796296 31.02189753 -36.42235374 26.12083626 C-34.62140562 24.32197899 -32.82385717 22.51971057 -31.03001022 20.71377182 C-28.57701801 18.24532148 -26.11195409 15.78957756 -23.64353943 13.33656311 C-22.93962096 12.62235752 -22.23570249 11.90815192 -21.51045316 11.17230374 C-15.47553354 5.22003698 -8.83637228 -0.11256525 0 0 Z " fill="#FED77F" transform="translate(255.4375,296.375)"/>
<path d="M0 0 C5.40550053 4.99898931 7.68687259 9.94540508 8.94921875 17.0078125 C9.18048714 18.17726662 9.18048714 18.17726662 9.41642761 19.37034607 C9.91318472 21.89906805 10.38611497 24.43162986 10.859375 26.96484375 C11.20298896 28.73198374 11.54854865 30.49874645 11.89599609 32.26513672 C12.58992309 35.79686372 13.27701903 39.32980887 13.95947266 42.86376953 C15.2292995 49.39698689 16.62839383 55.89982944 18.046875 62.40234375 C20.26443191 72.66030411 22.41275967 82.93101327 24.52954102 93.21020508 C26.99276711 105.1570506 29.50787619 117.09277976 32.02636719 129.02807617 C33.6835492 136.88352176 35.33308096 144.74027218 36.95532227 152.60302734 C37.93247013 157.33027756 38.92556583 162.0541003 39.921875 166.77734375 C40.16679687 167.94523438 40.41171875 169.113125 40.6640625 170.31640625 C41.4481112 174.03481541 42.24585487 177.75005731 43.046875 181.46484375 C43.28873535 182.61879639 43.5305957 183.77274902 43.77978516 184.96166992 C44.13242432 186.57779175 44.13242432 186.57779175 44.4921875 188.2265625 C44.69602051 189.17877686 44.89985352 190.13099121 45.10986328 191.11206055 C46.00824544 194.06083928 47.12080778 196.27677195 48.921875 198.77734375 C51.99748746 200.13715256 51.99748746 200.13715256 54.921875 200.77734375 C55.42921784 203.15098345 55.92789886 205.525918 56.421875 207.90234375 C56.56496094 208.5675 56.70804687 209.23265625 56.85546875 209.91796875 C58.54084778 218.10409546 58.54084778 218.10409546 57.921875 221.77734375 C55.89413347 223.80508528 54.11697557 225.28492487 51.796875 226.90234375 C50.51576138 227.84561584 49.23719304 228.79235271 47.9609375 229.7421875 C47.29739258 230.23187012 46.63384766 230.72155273 45.95019531 231.22607422 C41.92233306 234.30660344 38.15568314 237.70211458 34.36669922 241.06884766 C30.13105722 244.77734375 30.13105722 244.77734375 27.921875 244.77734375 C26.07084783 238.44426967 24.54219091 232.35269236 23.921875 225.77734375 C22.560625 225.93203125 22.560625 225.93203125 21.171875 226.08984375 C17.921875 225.77734375 17.921875 225.77734375 15.83007812 223.68188477 C13.67603887 220.4031482 12.93767463 217.82525745 12.140625 213.9921875 C11.93239357 213.01914421 11.93239357 213.01914421 11.71995544 212.02644348 C11.2737884 209.92515024 10.84764677 207.82035508 10.421875 205.71484375 C10.11517445 204.25073292 9.80730495 202.7868665 9.49829102 201.32324219 C8.62067038 197.14498399 7.76828258 192.96203751 6.921875 188.77734375 C6.72062012 187.78557129 6.51936523 186.79379883 6.31201172 185.77197266 C5.66994494 182.59425551 5.03337615 179.41560069 4.41015625 176.23413086 C3.00199303 169.06279113 1.46412508 161.92089767 -0.078125 154.77734375 C-1.97051386 146.00902173 -3.80810125 137.23509162 -5.5390625 128.43359375 C-6.97218486 121.19750055 -8.52200841 113.98786418 -10.078125 106.77734375 C-11.96866545 98.01721575 -13.80982878 89.25240144 -15.5324707 80.45776367 C-16.51010441 75.50681598 -17.54812768 70.57185501 -18.62109375 65.640625 C-18.89244141 64.39216797 -19.16378906 63.14371094 -19.44335938 61.85742188 C-19.97837373 59.40601404 -20.51723362 56.95544127 -21.06054688 54.50585938 C-21.30740234 53.37470703 -21.55425781 52.24355469 -21.80859375 51.078125 C-22.13960083 49.58019409 -22.13960083 49.58019409 -22.47729492 48.05200195 C-23.22483025 43.97776734 -23.66755727 39.89730514 -24.078125 35.77734375 C-24.62510544 35.90491562 -25.17208588 36.03248749 -25.73564148 36.16392517 C-40.07143264 39.49516868 -54.44761837 42.51336818 -68.890625 45.33984375 C-80.06058521 47.52623572 -91.20117692 49.73978691 -102.2676239 52.40640259 C-108.38004325 53.87292503 -114.52250171 55.07726937 -120.703125 56.21484375 C-130.97539656 58.14830652 -141.18739807 60.28226519 -151.39453125 62.53125 C-167.51070183 66.08029839 -183.69336227 69.31280541 -199.87768555 72.53344727 C-211.62642712 74.87558876 -223.35548433 77.30819835 -235.078125 79.77734375 C-232.4756323 93.73484651 -229.68010975 107.6423284 -226.7578125 121.53613281 C-225.56186007 127.23924503 -224.38277677 132.94584138 -223.203125 138.65234375 C-222.95377197 139.85802002 -222.70441895 141.06369629 -222.44750977 142.3059082 C-221.09161104 148.86492353 -219.7380833 155.42442421 -218.38671875 161.984375 C-218.24376373 162.67829849 -218.10080872 163.37222198 -217.95352173 164.08717346 C-217.22386973 167.62993146 -216.4950567 171.1728595 -215.76757812 174.71606445 C-214.39102317 181.41805583 -213.00932508 188.11883584 -211.60722351 194.8155365 C-210.95926827 197.91171408 -210.31435391 201.00852177 -209.66964722 204.1053772 C-209.362831 205.57491185 -209.05454338 207.0441402 -208.74465942 208.51303101 C-204.31932862 229.49523952 -204.31932862 229.49523952 -206.890625 233.83984375 C-209.078125 235.77734375 -209.078125 235.77734375 -211.078125 235.77734375 C-210.92666016 236.53877686 -210.77519531 237.30020996 -210.61914062 238.0847168 C-209.93391055 241.54381093 -209.25594642 245.00429059 -208.578125 248.46484375 C-208.22041016 250.26211914 -208.22041016 250.26211914 -207.85546875 252.09570312 C-207.51708984 253.83110352 -207.51708984 253.83110352 -207.171875 255.6015625 C-206.96240234 256.66463623 -206.75292969 257.72770996 -206.53710938 258.82299805 C-206.11559695 261.53614798 -205.98955997 264.03847034 -206.078125 266.77734375 C-210.95972892 263.23578796 -215.62230217 259.51094537 -220.203125 255.58984375 C-224.86748199 251.59868585 -229.61290122 247.74061998 -234.453125 243.96484375 C-235.04407959 243.49788086 -235.63503418 243.03091797 -236.24389648 242.54980469 C-238.59417936 240.69465162 -240.94134079 238.87128265 -243.41015625 237.17578125 C-249.22854168 232.98654374 -249.85177735 227.56467663 -251.078125 220.77734375 C-251.35374336 219.46392774 -251.63385183 218.1514476 -251.91796875 216.83984375 C-254.594158 204.2681552 -254.594158 204.2681552 -254.078125 200.77734375 C-252.75845166 199.75938499 -251.42467604 198.75947311 -250.078125 197.77734375 C-247.66835588 188.80303118 -251.64879746 177.81572255 -253.66015625 169.078125 C-255.08568196 162.85966723 -256.2855696 156.61104973 -257.453125 150.33984375 C-259.44752251 139.73855214 -261.69609819 129.20421283 -264.0305481 118.67407227 C-266.30362741 108.41616815 -268.459903 98.14090814 -270.48046875 87.82983398 C-271.46644549 82.79970352 -272.49925267 77.79235197 -273.67480469 72.80273438 C-275.02343065 66.0302156 -274.48703008 61.39654287 -270.66015625 55.6015625 C-266.93755157 51.30907759 -263.43914632 49.26412209 -257.953125 47.90234375 C-257.31826172 47.74362793 -256.68339844 47.58491211 -256.02929688 47.42138672 C-253.71648705 46.85386205 -251.39833581 46.31380868 -249.078125 45.77734375 C-247.67288574 45.44863281 -247.67288574 45.44863281 -246.23925781 45.11328125 C-232.13564764 41.83609382 -217.97457017 38.94357124 -203.75170898 36.23657227 C-192.35584912 34.05893578 -180.99563483 31.72069478 -169.640625 29.33984375 C-168.72052643 29.14694763 -167.80042786 28.95405151 -166.85244751 28.75531006 C-153.68141429 25.98971829 -140.53088015 23.1385426 -127.39013672 20.23291016 C-117.28989594 18.0115558 -107.15893574 15.97371005 -97.01245117 13.97583008 C-87.73675295 12.1385436 -78.51172853 10.11892305 -69.2890625 8.03369141 C-59.42415155 5.81873422 -49.52118661 3.82028204 -39.6015625 1.86914062 C-32.42066309 0.45592062 -25.26310803 -1.03167642 -18.11791992 -2.61645508 C-10.95493938 -4.04490907 -6.24684436 -3.96434354 0 0 Z " fill="#02BCFC" transform="translate(358.078125,48.22265625)"/>
<path d="M0 0 C2.84385426 1.82139829 5.47081773 3.7631053 8 6 C8.55171875 6.4846875 9.1034375 6.969375 9.671875 7.46875 C11.87686226 10.0109706 11.77089361 12.73523396 12 16 C11.5978125 16.90492187 11.5978125 16.90492187 11.1875 17.828125 C10.73788906 20.32142759 10.73788906 20.32142759 13.140625 23.05078125 C14.16278875 24.1514706 15.20002183 25.23831117 16.25 26.3125 C16.7346875 26.87517578 17.219375 27.43785156 17.71875 28.01757812 C20.12496322 30.49974504 21.87985486 31.88798549 25.38037109 32.23803711 C33.0628994 31.68565697 40.63158106 29.63373218 48.125 27.9375 C76.46693889 21.83864709 76.46693889 21.83864709 87.08984375 27.75390625 C87.72019531 28.16511719 88.35054688 28.57632813 89 29 C89.68191406 29.40089844 90.36382812 29.80179688 91.06640625 30.21484375 C99.65998103 35.84061851 104.27301336 44.86544298 106.44651794 54.67874146 C106.65108109 55.71030365 106.85564423 56.74186584 107.06640625 57.8046875 C107.3057338 58.91883026 107.54506134 60.03297302 107.79164124 61.18087769 C108.55569185 64.78213355 109.28284601 68.38912876 110 72 C110.36553986 73.82682312 110.36553986 73.82682312 110.73846436 75.69055176 C111.98834098 81.96184809 113.21998401 88.23673008 114.45117188 94.51171875 C114.81940063 96.38802979 114.81940063 96.38802979 115.19506836 98.30224609 C115.69599132 100.88148048 116.1889769 103.46226738 116.67456055 106.04443359 C117.39333182 109.84980525 118.14484167 113.64748751 118.90234375 117.4453125 C119.10987778 118.591138 119.3174118 119.7369635 119.53123474 120.91751099 C121.05874504 128.38112714 123.41477353 132.82468628 129 138 C130.21913086 139.18891846 130.21913086 139.18891846 131.46289062 140.40185547 C132.54860352 141.37469482 132.54860352 141.37469482 133.65625 142.3671875 C134.84734375 143.47900391 134.84734375 143.47900391 136.0625 144.61328125 C137.70051641 146.13317148 139.35729224 147.6330686 141.03125 149.11328125 C143.35671932 151.32018224 145.30393815 153.27612466 147 156 C147.06156144 158.64406403 146.63255629 160.88513911 146.09165955 163.46615601 C145.77071634 165.99855029 145.77071634 165.99855029 147.1108551 167.86557007 C147.95619057 168.75268173 147.95619057 168.75268173 148.81860352 169.65771484 C149.46697174 170.34759491 150.11533997 171.03747498 150.78335571 171.7482605 C151.51484833 172.49133453 152.24634094 173.23440857 153 174 C153.77088959 174.79326691 154.54177917 175.58653381 155.33602905 176.40383911 C157.97466738 179.09077215 160.63827492 181.75080975 163.30859375 184.40625 C164.2853001 185.38108645 165.26178234 186.35614749 166.23805237 187.3314209 C168.78227461 189.87186301 171.32948736 192.40928509 173.87738037 194.94604492 C176.48715882 197.54551127 179.09403482 200.14788494 181.70117188 202.75 C186.79797872 207.83614918 191.89795508 212.9191047 197 218 C193.48309866 221.54832536 189.88660201 224.91228401 186.0625 228.125 C185.50038818 228.59945557 184.93827637 229.07391113 184.35913086 229.56274414 C179.76095001 233.41819573 175.05116047 237.11733924 170.31176758 240.79663086 C165.41280936 244.62247748 160.69725663 248.6372895 155.99755859 252.70385742 C141.76803475 265 141.76803475 265 140 265 C139.49550598 262.41747107 138.99625699 259.83411297 138.5 257.25 C138.35691406 256.52039063 138.21382813 255.79078125 138.06640625 255.0390625 C137.41111121 251.60656468 137 248.50830509 137 245 C136.2575 245.0825 135.515 245.165 134.75 245.25 C132 245 132 245 129.9453125 243.390625 C127.5479577 240.44447814 126.97047997 238.20400751 126.125 234.5 C125.89018921 233.49175171 125.89018921 233.49175171 125.65063477 232.46313477 C125.08092548 229.9794188 124.53941904 227.49047176 124 225 C123.64736084 223.39294189 123.64736084 223.39294189 123.28759766 221.75341797 C120.96329826 211.1396592 118.69170395 200.51647402 116.57421875 189.859375 C114.92363134 181.5626501 113.18431448 173.28536707 111.44207764 165.00747681 C108.22383755 149.7131294 105.05375681 134.40990754 101.94055176 119.09384155 C99.08378213 105.04446062 96.18749645 91.0061394 93.125 77 C92.85091309 75.74356689 92.57682617 74.48713379 92.29443359 73.19262695 C91.54451735 69.7914705 90.77896286 66.39461414 90 63 C89.6143689 61.3140271 89.6143689 61.3140271 89.22094727 59.59399414 C88.96627686 58.52270264 88.71160645 57.45141113 88.44921875 56.34765625 C88.22580811 55.40156494 88.00239746 54.45547363 87.7722168 53.48071289 C86.23825686 48.55293328 83.50186501 46.02399887 79.25 43.125 C72.12675301 40.65926066 64.82134073 42.17864262 57.62109375 43.72265625 C56.74487869 43.90323578 55.86866364 44.08381531 54.96589661 44.26986694 C52.12119194 44.85864471 49.2793918 45.4603049 46.4375 46.0625 C44.43925468 46.47920686 42.44088071 46.89529721 40.44238281 47.31079102 C28.0994647 49.88568284 15.77699019 52.55031608 3.46630859 55.27490234 C-10.16555354 58.28647827 -23.8357916 61.11129963 -37.50537109 63.94580078 C-48.95464289 66.32072259 -60.40003371 68.71267965 -71.83984375 71.1328125 C-73.71889656 71.52999229 -73.71889656 71.52999229 -75.63591003 71.93519592 C-83.02890652 73.49803762 -83.02890652 73.49803762 -90.42086792 75.06576538 C-103.96022577 77.94179187 -117.51183896 80.7056044 -131.10966492 83.29193115 C-138.83137438 84.76372637 -146.52018033 86.32651463 -154.1875 88.0625 C-155.86235474 88.44136353 -155.86235474 88.44136353 -157.57104492 88.82788086 C-160.71568494 89.54495113 -163.85797002 90.2715964 -167 91 C-167.83821289 91.18949219 -168.67642578 91.37898438 -169.54003906 91.57421875 C-178.29162552 93.56815622 -184.60636636 95.02267066 -189.875 102.75 C-192.4181663 110.09692486 -190.72363288 117.28927604 -188.875 124.625 C-186.6743122 133.81175849 -184.76739828 143.0331612 -183 152.3125 C-182.74404258 153.65170508 -182.48802033 154.99089777 -182.23193359 156.33007812 C-181.85127041 158.32178344 -181.47078961 160.31352248 -181.0909729 162.3053894 C-178.14228958 177.75279599 -174.98245283 193.1592353 -171.8125 208.5625 C-171.43738281 210.39192139 -171.43738281 210.39192139 -171.0546875 212.25830078 C-169.58313204 219.38305247 -169.58313204 219.38305247 -167.84375 226.4453125 C-167.03663525 229.84565705 -166.70106542 232.82618583 -166.6875 236.3125 C-166.67074219 237.31925781 -166.65398437 238.32601562 -166.63671875 239.36328125 C-167 242 -167 242 -168.2734375 243.828125 C-170.70340081 245.47742136 -173.09297697 245.41309182 -175.96484375 245.49609375 C-178.92761465 244.7738828 -180.04680804 243.3145723 -182 241 C-182.96972656 238.2590332 -182.96972656 238.2590332 -183.640625 235.05078125 C-183.90270752 233.8292334 -184.16479004 232.60768555 -184.43481445 231.34912109 C-184.70694309 230.00366159 -184.97865968 228.6581187 -185.25 227.3125 C-185.54347721 225.91465802 -185.83801708 224.51703878 -186.13354492 223.11962891 C-189.03555089 209.27693002 -191.70284908 195.38180383 -194.33496094 181.4855957 C-194.49790146 180.63287582 -194.66084198 179.78015594 -194.82872009 178.90159607 C-195.13339542 177.30618931 -195.43486996 175.71016639 -195.73243713 174.11341858 C-196.53436685 169.93020383 -197.64766101 166.04546675 -199 162 C-199.79455911 158.78763497 -200.48116641 155.55412564 -201.1640625 152.31640625 C-201.36099701 151.38384506 -201.55793152 150.45128387 -201.76083374 149.49046326 C-202.17479405 147.51827405 -202.58650025 145.54561052 -202.99609375 143.57250977 C-203.41229083 141.58054789 -203.83504828 139.58994441 -204.26464844 137.60083008 C-211.24687618 105.26902745 -211.24687618 105.26902745 -202.71484375 90.82421875 C-195.4792923 80.12205211 -183.93729175 76.37648123 -171.81762695 73.96289062 C-170.93691528 73.78195358 -170.05620361 73.60101654 -169.14880371 73.41459656 C-167.25116495 73.02550138 -165.35292732 72.63931759 -163.45415688 72.25578308 C-160.44732464 71.64797088 -157.44238024 71.03151322 -154.43778992 70.41271973 C-145.90003858 68.65610443 -137.35893896 66.91600516 -128.81713867 65.17919922 C-123.58026935 64.11376753 -118.34533782 63.03920646 -113.11144066 61.95927429 C-111.12069847 61.55057348 -109.12920317 61.14552314 -107.13695717 60.74421692 C-104.35421954 60.18366993 -101.57406669 59.61164825 -98.79418945 59.03710938 C-97.97381699 58.87494431 -97.15344452 58.71277924 -96.30821228 58.54570007 C-87.11792716 56.61758276 -81.71991532 51.23599826 -75.16845703 44.8137207 C-74.13839154 43.81184271 -73.09855956 42.81991032 -72.04931641 41.83813477 C-65.901479 36.6212433 -65.901479 36.6212433 -62.66699219 29.68505859 C-63.03667763 27.33127595 -63.03667763 27.33127595 -64 24 C-60.17502043 14.15336583 -47.49976346 3.71589518 -38.25 -0.9375 C-26.62155004 -5.98840494 -11.2386022 -6.14552328 0 0 Z " fill="#2A3D66" transform="translate(276,4)"/>
<path d="M0 0 C1.28584557 0.96159918 2.57131039 1.92370752 3.85661316 2.8860321 C4.93043889 3.68961167 4.93043889 3.68961167 6.02595806 4.50942516 C8.09506821 6.07178484 10.11756028 7.67701047 12.11328125 9.33203125 C12.79825684 9.89833252 13.48323242 10.46463379 14.18896484 11.0480957 C14.88973145 11.63034912 15.59049805 12.21260254 16.3125 12.8125 C17.81109037 14.05221335 19.30978823 15.29179677 20.80859375 16.53125 C21.52772949 17.12679688 22.24686523 17.72234375 22.98779297 18.3359375 C27.30942759 21.90985907 31.65699874 25.45210205 36 29 C37.83345036 30.49985696 39.66678171 31.9998594 41.5 33.5 C42.86125 34.61375 42.86125 34.61375 44.25 35.75 C75.875 61.625 75.875 61.625 107.5 87.5 C108.40621094 88.24121094 109.31242187 88.98242188 110.24609375 89.74609375 C112.09337522 91.25798227 113.93971875 92.77101749 115.78515625 94.28515625 C121.82157327 99.2348484 127.89271209 104.13801591 134 109 C132.40597124 112.89025962 129.90161461 115.34211975 126.94480896 118.28897095 C126.42519453 118.80958866 125.90558009 119.33020638 125.37021977 119.86660039 C123.62839603 121.60937653 121.87952631 123.34490483 120.13061523 125.08056641 C118.88029058 126.32868983 117.63041335 127.57726159 116.38095093 128.82624817 C113.68994576 131.51431978 110.99581382 134.19920385 108.29922295 136.88167191 C104.03852288 141.12012491 99.7849048 145.36563729 95.53224182 149.6121521 C88.80824904 156.32476253 82.07959956 163.03268279 75.34891421 169.73858202 C63.28713278 181.75602601 51.23094364 193.77907418 39.17993313 205.80731905 C34.94785045 210.03097573 30.71297549 214.25180726 26.47586238 218.47041726 C23.84557005 221.09009444 21.21728469 223.71177825 18.58950424 226.33397484 C17.3668774 227.55312045 16.14337926 228.77139297 14.91896629 229.98874474 C13.2530921 231.64521968 11.59028075 233.30470907 9.9282074 234.96499634 C8.99518516 235.89449915 8.06216291 236.82400196 7.10086727 237.78167152 C4.97146393 239.81513811 4.97146393 239.81513811 4 242 C3.34 242 2.68 242 2 242 C-0.19204664 236.67006669 -0.27711377 231.97894844 -0.24050903 226.31900024 C-0.24221788 225.35015534 -0.24392673 224.38131043 -0.24568737 223.38310659 C-0.24897873 220.14025728 -0.23798426 216.89761538 -0.22705078 213.65478516 C-0.22648659 211.32880661 -0.22680338 209.00282771 -0.22793579 206.67684937 C-0.22851 200.36332526 -0.21674456 194.04987703 -0.20278788 187.73637056 C-0.19155797 181.80651386 -0.1895416 175.8766601 -0.18748413 169.9467942 C-0.18310976 158.20361021 -0.16980766 146.46045404 -0.15087891 134.71728516 C-0.13251343 123.31168761 -0.11836019 111.90609763 -0.10986328 100.50048828 C-0.10933783 99.79713367 -0.10881239 99.09377905 -0.10827102 98.36911066 C-0.10566089 94.8404937 -0.10313349 91.31187668 -0.10064721 87.78325963 C-0.07992275 58.52215498 -0.04455528 29.26107786 0 0 Z " fill="#FDCA4D" transform="translate(35,240)"/>
<path d="M0 0 C0.04561507 29.9798877 0.08101413 59.95977422 0.10213066 89.93968914 C0.1046321 93.47826612 0.10722074 97.01684304 0.10986328 100.55541992 C0.1103879 101.25989346 0.11091252 101.96436699 0.11145304 102.69018821 C0.12015809 114.10024027 0.13592862 125.51027219 0.15430559 136.92031231 C0.17300185 148.62613365 0.18411614 160.33194444 0.18817699 172.03778011 C0.19078802 178.61357748 0.19693969 185.18932917 0.21146011 191.76511192 C0.22500996 197.95133198 0.22922789 204.13748744 0.22621536 210.32372093 C0.22676669 212.59694265 0.23075953 214.87016648 0.23841095 217.1433754 C0.24833145 220.24208182 0.24597937 223.3405429 0.24050903 226.43925476 C0.24633472 227.34295435 0.2521604 228.24665394 0.25816262 229.17773837 C0.23714675 233.56888421 0.06769187 237.00627966 -2 241 C-5.85819102 239.42253002 -8.46024218 236.81476355 -11.34039307 233.90011597 C-11.86650547 233.37571241 -12.39261787 232.85130886 -12.93467307 232.31101429 C-14.69593686 230.55304412 -16.44995823 228.78802228 -18.20410156 227.02294922 C-19.46532968 225.76115696 -20.72699836 224.49980492 -21.98907471 223.23886108 C-25.4147092 219.81380099 -28.83413731 216.38260436 -32.25249958 212.9502883 C-35.82570972 209.3645854 -39.40457504 205.78453612 -42.98284912 202.20388794 C-49.75826357 195.42225445 -56.52856314 188.6355383 -63.29704833 181.84698975 C-71.00284553 174.11884677 -78.71431472 166.39637425 -86.42627001 158.6743772 C-102.29050767 142.78922794 -118.14759471 126.89695665 -134 111 C-132.67116616 107.01349847 -130.05472197 105.48984812 -126.8125 103.0625 C-121.66135104 99.11802829 -116.64983537 95.06534054 -111.75 90.8125 C-107.05174961 86.74361833 -102.29787357 82.77805688 -97.421875 78.921875 C-92.90338259 75.33623264 -88.45931292 71.65876306 -84 68 C-82.16689838 66.49971683 -80.33356573 64.99971592 -78.5 63.5 C-77.5925 62.7575 -76.685 62.015 -75.75 61.25 C-58.33333333 47 -40.91666667 32.75 -23.5 18.5 C-22.59894531 17.76265625 -21.69789063 17.0253125 -20.76953125 16.265625 C-18.87155449 14.71297828 -16.97309243 13.16092466 -15.07421875 11.609375 C-14.12160156 10.83078125 -13.16898437 10.0521875 -12.1875 9.25 C-11.28644531 8.51394531 -10.38539063 7.77789062 -9.45703125 7.01953125 C-7.41535461 5.34139639 -5.39132959 3.64584607 -3.375 1.9375 C-1 0 -1 0 0 0 Z " fill="#FDCA4D" transform="translate(477,240)"/>
<path d="M0 0 C1.00933594 -0.01289063 2.01867187 -0.02578125 3.05859375 -0.0390625 C12.15674132 1.68522411 18.64713724 6.97722796 24.97817993 13.4259491 C25.76259913 14.20468504 26.54701833 14.98342098 27.3552078 15.78575498 C29.9618509 18.3795528 32.55033568 20.99072179 35.13916016 23.60229492 C37.01148364 25.47275335 38.88476734 27.34220219 40.75927734 29.21046448 C45.30692915 33.74748173 49.84122349 38.29762334 54.37107749 42.85240289 C59.64680509 48.15612798 64.93587032 53.44646892 70.22552721 58.73629562 C79.65844629 68.17040011 89.07944321 77.61631991 98.49365234 87.0690918 C107.63234324 96.24519258 116.77910485 105.41314497 125.93505859 114.57202148 C126.49996052 115.13710622 127.06486244 115.70219096 127.64688261 116.28439947 C128.21080592 116.84850176 128.77472924 117.41260405 129.35574114 117.99380034 C130.49111437 119.12953898 131.62648412 120.2652811 132.76185036 121.40102673 C133.32175198 121.96111386 133.8816536 122.521201 134.45852194 123.09826047 C143.18416511 131.82746932 151.90236391 140.56411052 160.61982233 149.30149194 C163.78114133 152.46983976 166.9435838 155.63706127 170.106842 158.80347296 C175.58624348 164.28838354 181.06054996 169.77830611 186.52915955 175.27397728 C188.34961707 177.10190411 190.17179138 178.92812292 191.99575424 180.75255203 C194.47405845 183.23210465 196.94615781 185.71767577 199.41665649 188.20500183 C200.14911547 188.93504573 200.88157445 189.66508962 201.63622916 190.41725606 C202.29190733 191.07999982 202.9475855 191.74274358 203.62313271 192.42557049 C204.19488688 192.99927559 204.76664106 193.57298068 205.35572112 194.16407079 C206.5625 195.625 206.5625 195.625 206.5625 197.625 C199.82273221 200.97246031 191.99922671 200.2284864 184.64477539 200.32519531 C182.80669383 200.35824676 180.96886589 200.41274551 179.13208008 200.48925781 C163.9250503 201.11804286 163.9250503 201.11804286 158.34521484 197.59179688 C155.84431627 195.06745387 153.71705482 192.44645327 151.5625 189.625 C150.21609957 188.36125952 148.83607485 187.1319314 147.41796875 185.94921875 C143.46145752 182.5560814 139.6626403 179.01720995 135.875 175.4375 C134.46652425 174.11157708 133.05766522 172.78606119 131.6484375 171.4609375 C130.95717773 170.81092773 130.26591797 170.16091797 129.55371094 169.49121094 C126.71694284 166.83252343 123.86088203 164.19518892 121 161.5625 C116.3360679 157.26919233 111.69344837 152.95386587 107.0625 148.625 C101.88590727 143.78642735 96.69425709 138.96507443 91.47875977 134.16845703 C88.58268795 131.50175516 85.70253042 128.81972903 82.83984375 126.1171875 C79.10508217 122.59306323 75.34776976 119.09483061 71.5625 115.625 C71.05396484 115.15819824 70.54542969 114.69139648 70.02148438 114.21044922 C44.96122309 91.49852771 11.55054906 79.14089248 -22.0625 79.3125 C-22.81861572 79.31465515 -23.57473145 79.3168103 -24.35375977 79.31903076 C-60.92286189 79.48659233 -91.69210247 93.20820181 -118.828125 117.22167969 C-121.2298662 119.31591641 -123.70694376 121.31272573 -126.1875 123.3125 C-130.58544008 126.87978961 -134.78341251 130.62053582 -138.96484375 134.4375 C-141.43122536 136.61944898 -143.96844609 138.65978152 -146.5625 140.6875 C-151.21084088 144.34291996 -155.36312258 148.34576562 -159.4375 152.625 C-160.0975 152.295 -160.7575 151.965 -161.4375 151.625 C-142.56911673 132.66312605 -123.68925272 113.71275017 -104.79570103 94.77595234 C-96.02313178 85.98276839 -87.2543411 77.18587771 -78.49438477 68.38012695 C-70.8581433 60.70398463 -63.21486846 53.03492771 -55.56310791 45.37425393 C-51.51277446 41.31871133 -47.46602149 37.25973707 -43.42767525 33.19225502 C-39.62380744 29.36116717 -35.81058005 25.53964857 -31.99007988 21.72514915 C-30.5922507 20.3262227 -29.19782631 18.92388419 -27.80715942 17.51783752 C-10.34116701 -0.13173461 -10.34116701 -0.13173461 0 0 Z " fill="#FDCA4D" transform="translate(255.4375,296.375)"/>
<path d="M0 0 C4.99312682 3.51609596 5.32233778 8.52601974 6.3671875 14.16015625 C6.56712814 15.16845993 6.76706879 16.17676361 6.97306824 17.21562195 C7.62076025 20.49539092 8.24764443 23.77878658 8.875 27.0625 C9.54198879 30.46144193 10.2144077 33.85928142 10.88703918 37.2571106 C11.32825752 39.4881038 11.76771106 41.71944678 12.20536804 43.95114136 C13.70395936 51.58169307 15.31297538 59.17270953 17.0625 66.75 C20.00279979 79.61143357 22.53073085 92.55233062 25.0925293 105.49313354 C27.49919865 117.64030589 29.99020016 129.74995566 32.75073242 141.82226562 C35.53564466 154.12737665 37.93851862 166.51170213 40.37329102 178.88989258 C40.54028503 179.73574417 40.70727905 180.58159576 40.8793335 181.45307922 C41.19474291 183.05191537 41.50842685 184.65109318 41.82012939 186.25065613 C42.4100506 189.24090934 43.03494029 192.10482086 44 195 C44.36917963 198.98714001 44.33427147 201.34538504 42.5 204.9375 C39.47331086 207.43451854 37.80577077 207.58973104 34 207.6640625 C30.89202704 206.63211835 29.83450775 204.66224594 28 202 C26.96679688 198.81225586 26.96679688 198.81225586 26.21875 195.21484375 C26.01051857 194.24180046 26.01051857 194.24180046 25.79808044 193.24909973 C25.3519134 191.14780649 24.92577177 189.04301133 24.5 186.9375 C24.19329945 185.47338917 23.88542995 184.00952275 23.57641602 182.54589844 C22.69879538 178.36764024 21.84640758 174.18469376 21 170 C20.79874512 169.00822754 20.59749023 168.01645508 20.39013672 166.99462891 C19.74806994 163.81691176 19.11150115 160.63825694 18.48828125 157.45678711 C17.08011803 150.28544738 15.54225008 143.14355392 14 136 C12.10761114 127.23167798 10.27002375 118.45774787 8.5390625 109.65625 C7.10594014 102.4201568 5.55611659 95.21052043 4 88 C2.10945955 79.239872 0.26829622 70.47505769 -1.4543457 61.68041992 C-2.43197941 56.72947223 -3.47000268 51.79451126 -4.54296875 46.86328125 C-4.81431641 45.61482422 -5.08566406 44.36636719 -5.36523438 43.08007812 C-5.90024873 40.62867029 -6.43910862 38.17809752 -6.98242188 35.72851562 C-7.22927734 34.59736328 -7.47613281 33.46621094 -7.73046875 32.30078125 C-7.95114014 31.30216064 -8.17181152 30.30354004 -8.39916992 29.2746582 C-9.14670525 25.20042359 -9.58943227 21.11996139 -10 17 C-10.54698044 17.12757187 -11.09396088 17.25514374 -11.65751648 17.38658142 C-25.99330764 20.71782493 -40.36949337 23.73602443 -54.8125 26.5625 C-65.98246021 28.74889197 -77.12305192 30.96244316 -88.1894989 33.62905884 C-94.30191825 35.09558128 -100.44437671 36.29992562 -106.625 37.4375 C-116.89727156 39.37096277 -127.10927307 41.50492144 -137.31640625 43.75390625 C-153.43257683 47.30295464 -169.61523727 50.53546166 -185.79956055 53.75610352 C-197.54830212 56.09824501 -209.27735933 58.5308546 -221 61 C-218.3975073 74.95750276 -215.60198475 88.86498465 -212.6796875 102.75878906 C-211.48373507 108.46190128 -210.30465177 114.16849763 -209.125 119.875 C-208.87564697 121.08067627 -208.62629395 122.28635254 -208.36938477 123.52856445 C-207.01348604 130.08757978 -205.6599583 136.64708046 -204.30859375 143.20703125 C-204.16563873 143.90095474 -204.02268372 144.59487823 -203.87539673 145.30982971 C-203.14574473 148.85258771 -202.4169317 152.39551575 -201.68945312 155.9387207 C-200.31289817 162.64071208 -198.93120008 169.34149209 -197.52909851 176.03819275 C-196.88114327 179.13437033 -196.23622891 182.23117802 -195.59152222 185.32803345 C-195.284706 186.7975681 -194.97641838 188.26679645 -194.66653442 189.73568726 C-190.27613538 210.55227075 -190.27613538 210.55227075 -192.5 215 C-195.79977062 217.63981649 -197.78039403 218.14805635 -202 218 C-206.22581257 214.58661562 -207.7288403 211.87148907 -208.80859375 206.6015625 C-209.07736328 205.33376953 -209.34613281 204.06597656 -209.62304688 202.75976562 C-209.89498171 201.38159922 -210.16645348 200.00334138 -210.4375 198.625 C-210.73484595 197.18654178 -211.03369995 195.74839455 -211.33398438 194.31054688 C-212.25179809 189.87932826 -213.13163577 185.4411451 -214 181 C-214.19786102 179.98867004 -214.19786102 179.98867004 -214.39971924 178.95690918 C-215.52415458 173.19548959 -216.63346943 167.43123014 -217.72802734 161.6640625 C-219.51942217 152.28090495 -221.49421423 142.95039459 -223.5625 133.625 C-225.84426807 123.3333522 -228.0489348 113.03368558 -230.07519531 102.68823242 C-231.28849958 96.50627726 -232.55535766 90.33825288 -233.86328125 84.17578125 C-234.35177101 81.85943273 -234.83973962 79.54297488 -235.32763672 77.22650146 C-235.64721498 75.7177976 -235.96957846 74.20968063 -236.29492188 72.70220947 C-236.75206317 70.58289246 -237.19915666 68.46166013 -237.64453125 66.33984375 C-237.90596924 65.11644287 -238.16740723 63.89304199 -238.43676758 62.63256836 C-239.9888325 52.62252329 -239.9888325 52.62252329 -237.55957031 48.63647461 C-233.8977317 46.29525902 -230.28229796 45.62139921 -226.046875 44.81640625 C-224.70910004 44.54303688 -224.70910004 44.54303688 -223.34429932 44.2641449 C-220.48220329 43.68259994 -217.61645703 43.12210938 -214.75 42.5625 C-212.89945498 42.19086751 -211.04919104 41.81783247 -209.19921875 41.44335938 C-205.41567863 40.67916696 -201.6307243 39.92257171 -197.84472656 39.1706543 C-188.92199373 37.391989 -180.01996961 35.51362562 -171.11462402 33.65029907 C-165.76008945 32.53233143 -160.40340975 31.42474317 -155.046875 30.31640625 C-152.83723193 29.85876089 -150.62759655 29.40107843 -148.41796875 28.94335938 C-145.09140696 28.25432414 -141.76479068 27.56555822 -138.43798828 26.87768555 C-126.06617088 24.31916377 -113.70198128 21.730349 -101.3515625 19.0703125 C-86.48230803 15.86977066 -71.5875286 12.79722221 -56.68902588 9.73657227 C-51.16757198 8.60214101 -45.64645273 7.46608465 -40.12546921 6.32936668 C-38.24152282 5.94171974 -36.3574134 5.55486539 -34.47329712 5.16804504 C-32.71848526 4.8070295 -32.71848526 4.8070295 -30.92822266 4.4387207 C-29.22270233 4.08784897 -29.22270233 4.08784897 -27.48272705 3.72988892 C-22.68452616 2.72431093 -17.8985129 1.66419358 -13.11386108 0.59611511 C-8.84219898 -0.22164851 -4.28029879 -1.01797368 0 0 Z " fill="#2B3E67" transform="translate(344,67)"/>
<path d="M0 0 C5.646315 4.76597557 11.13941049 9.66431252 16.5 14.75 C17.3353125 15.49765625 18.170625 16.2453125 19.03125 17.015625 C24.97030733 22.72024585 24.97030733 22.72024585 25.05859375 26.52539062 C24.75772278 28.17765262 24.43667366 29.82642037 24.09165955 31.47003174 C23.77096536 33.99903387 23.77096536 33.99903387 25.1108551 35.86480713 C25.67441208 36.45630554 26.23796906 37.04780396 26.81860352 37.65722656 C27.79115585 38.6921524 27.79115585 38.6921524 28.78335571 39.74798584 C29.51484833 40.49115051 30.24634094 41.23431519 31 42 C31.77088959 42.79327698 32.54177917 43.58655396 33.33602905 44.40386963 C35.97467804 47.09078128 38.63828044 49.75081523 41.30859375 52.40625 C42.2853001 53.38108645 43.26178234 54.35614749 44.23805237 55.3314209 C46.78227461 57.87186301 49.32948736 60.40928509 51.87738037 62.94604492 C54.48715882 65.54551127 57.09403482 68.14788494 59.70117188 70.75 C64.79797872 75.83614918 69.89795508 80.9191047 75 86 C71.48309866 89.54832536 67.88660201 92.91228401 64.0625 96.125 C63.21933228 96.83668335 63.21933228 96.83668335 62.35913086 97.56274414 C57.76095001 101.41819573 53.05116047 105.11733924 48.31176758 108.79663086 C43.41280936 112.62247748 38.69725663 116.6372895 33.99755859 120.70385742 C19.76803475 133 19.76803475 133 18 133 C17.49432271 130.43850372 16.99529868 127.87600535 16.5 125.3125 C16.35691406 124.59126953 16.21382813 123.87003906 16.06640625 123.12695312 C15.34428113 119.36158641 14.8175024 115.85526187 15 112 C15.639375 111.71125 16.27875 111.4225 16.9375 111.125 C19.15206079 110.17176549 19.15206079 110.17176549 20 108 C20.21486792 99.09832904 18.12612906 90.59606323 16.08178711 82.00415039 C14.32841866 74.59889372 12.83616737 67.16737715 11.4375 59.6875 C9.93138466 51.67051253 8.31029214 43.71536151 6.38305664 35.78930664 C4.7109524 28.89797687 3.33006784 21.96514815 2 15 C1.79246094 13.93136719 1.58492188 12.86273438 1.37109375 11.76171875 C0.60619975 7.72329241 0 4.12782401 0 0 Z " fill="#F6B626" transform="translate(398,136)"/>
<path d="M0 0 C2.84385426 1.82139829 5.47081773 3.7631053 8 6 C8.55171875 6.4846875 9.1034375 6.969375 9.671875 7.46875 C11.87686226 10.0109706 11.77089361 12.73523396 12 16 C11.78351807 16.66676758 11.56703613 17.33353516 11.34399414 18.02050781 C10.76022329 20.04339351 10.76022329 20.04339351 12.07983398 21.64746094 C12.62969971 22.17114258 13.17956543 22.69482422 13.74609375 23.234375 C14.33583984 23.80800781 14.92558594 24.38164062 15.53320312 24.97265625 C16.16162109 25.55917969 16.79003906 26.14570313 17.4375 26.75 C18.06205078 27.35199219 18.68660156 27.95398438 19.33007812 28.57421875 C20.87578596 30.0609301 22.4365232 31.5319865 24 33 C23.505 33.99 23.505 33.99 23 35 C21.07104492 35.55908203 21.07104492 35.55908203 18.48046875 36.0078125 C17.49626953 36.18570313 16.51207031 36.36359375 15.49804688 36.546875 C14.40556641 36.73765625 13.31308594 36.9284375 12.1875 37.125 C1.05821456 39.15877805 -9.9677037 41.50208314 -21 44 C-33.70314767 46.86792577 -46.42246758 49.51296615 -59.2265625 51.8984375 C-63.06862064 52.6179385 -66.89211061 53.39247466 -70.7109375 54.2265625 C-71.59773193 54.42024414 -72.48452637 54.61392578 -73.39819336 54.81347656 C-75.03598123 55.17564482 -76.67235292 55.54430769 -78.30688477 55.92089844 C-83.67412361 57.10862546 -83.67412361 57.10862546 -87 56 C-86.26773193 55.31486328 -85.53546387 54.62972656 -84.78100586 53.92382812 C-82.06159215 51.36772361 -79.37241579 48.78160325 -76.69116211 46.18554688 C-75.52824935 45.06780363 -74.35737485 43.95828147 -73.1784668 42.85742188 C-71.48128684 41.26985295 -69.81529195 39.65455008 -68.15234375 38.03125 C-67.62221176 37.54756958 -67.09207977 37.06388916 -66.54588318 36.56555176 C-64.49934759 34.52191103 -63.02560385 32.90081294 -62.94120789 29.93153381 C-63.21630144 27.94203231 -63.60344884 25.96889305 -64 24 C-60.17502043 14.15336583 -47.49976346 3.71589518 -38.25 -0.9375 C-26.62155004 -5.98840494 -11.2386022 -6.14552328 0 0 Z " fill="#F6B626" transform="translate(276,4)"/>
<path d="M0 0 C0.66 0.33 1.32 0.66 2 1 C2.54180908 2.68490601 2.54180908 2.68490601 2.95800781 4.90771484 C3.11888885 5.74231735 3.2797699 6.57691986 3.44552612 7.43681335 C3.61303375 8.35227432 3.78054138 9.26773529 3.953125 10.2109375 C4.13392609 11.15866531 4.31472717 12.10639313 4.50100708 13.08283997 C4.88921668 15.1205823 5.27373325 17.1590309 5.65496826 19.1980896 C6.64298714 24.4731821 7.66295882 29.74209838 8.6796875 35.01171875 C8.87934113 36.0499025 9.07899475 37.08808624 9.28469849 38.1577301 C10.8963811 46.52029758 12.56997792 54.86434264 14.375 63.1875 C14.6009082 64.27015137 14.82681641 65.35280273 15.05957031 66.46826172 C15.27452148 67.44166504 15.48947266 68.41506836 15.7109375 69.41796875 C15.97849854 70.65196411 15.97849854 70.65196411 16.25146484 71.91088867 C17.14564042 74.40647263 17.83460371 75.46006444 20 77 C23.10839021 77.7269226 23.10839021 77.7269226 26 78 C26.88144328 82.09162856 27.7540358 86.18501322 28.6184082 90.28027344 C28.91382038 91.67369648 29.21166213 93.06660671 29.51196289 94.45898438 C29.94273612 96.45834179 30.3647908 98.45936953 30.78515625 100.4609375 C31.17006226 102.26763916 31.17006226 102.26763916 31.56274414 104.11083984 C32 107 32 107 31 109 C30.54262451 108.62302979 30.08524902 108.24605957 29.61401367 107.85766602 C20.75488358 100.55674699 11.89042505 93.26279339 3 86 C1.16654964 84.50014304 -0.66678171 83.0001406 -2.5 81.5 C-3.4075 80.7575 -4.315 80.015 -5.25 79.25 C-8 77 -10.75 74.75 -13.5 72.5 C-14.40492187 71.76007813 -15.30984375 71.02015625 -16.2421875 70.2578125 C-18.10341528 68.73403112 -19.9627483 67.20793284 -21.8203125 65.6796875 C-27.47955003 61.02933911 -33.19036836 56.46122331 -39 52 C-35.5644082 47.79396817 -31.98380925 43.95849349 -28.0390625 40.22265625 C-27.15605469 39.37896484 -26.27304687 38.53527344 -25.36328125 37.66601562 C-23.52734986 35.92044034 -21.67814187 34.18873037 -19.81640625 32.47070312 C-15.13362192 28.23158511 -15.13362192 28.23158511 -12.40136719 22.72998047 C-12.33998637 20.35603685 -12.33998637 20.35603685 -13 17 C-13 13 -13 13 -11.80664062 11.35253906 C-10.98969727 10.5670166 -10.98969727 10.5670166 -10.15625 9.765625 C-9.56972656 9.19199219 -8.98320313 8.61835938 -8.37890625 8.02734375 C-7.75886719 7.44082031 -7.13882813 6.85429687 -6.5 6.25 C-5.87996094 5.64800781 -5.25992188 5.04601562 -4.62109375 4.42578125 C-3.08955179 2.94136366 -1.54590226 1.46945655 0 0 Z " fill="#F6B627" transform="translate(78,171)"/>
<path d="M0 0 C2 2.9375 2 2.9375 2 6.5625 C0.72081829 10.87973827 0.72081829 10.87973827 -2 12.9375 C-4.984375 13.9296875 -4.984375 13.9296875 -8.75 14.8125 C-9.45116943 14.97830566 -10.15233887 15.14411133 -10.87475586 15.31494141 C-13.24689971 15.86950844 -15.62286279 16.40476615 -18 16.9375 C-18.82580566 17.12570313 -19.65161133 17.31390625 -20.50244141 17.5078125 C-33.97379306 20.56774473 -47.51370241 23.24817124 -61.09008789 25.79443359 C-67.81930121 27.06933221 -74.44877108 28.51452341 -81.08032227 30.22314453 C-86.13821011 31.46065434 -91.25537717 32.37058653 -96.375 33.3125 C-105.83995088 35.08990751 -115.24161697 37.04346528 -124.61865234 39.23779297 C-143.31232767 43.61166869 -143.31232767 43.61166869 -148 41.9375 C-150.4375 39.8125 -150.4375 39.8125 -152 36.9375 C-151.94175543 33.55931493 -151.85256332 31.1120676 -149.83129883 28.32739258 C-147.26956791 26.38312727 -144.90352232 25.98740158 -141.76171875 25.32421875 C-140.48111572 25.04876221 -139.2005127 24.77330566 -137.88110352 24.48950195 C-136.48329721 24.20103629 -135.08542774 23.91287659 -133.6875 23.625 C-132.24844157 23.32007915 -130.80956002 23.01432241 -129.37084961 22.70776367 C-118.35441519 20.37359662 -107.30932243 18.1773057 -96.26074219 16.0012207 C-89.12655894 14.58990143 -82.04406232 13.06428338 -74.98144531 11.33300781 C-68.74923676 9.82587241 -62.46097803 8.67394192 -56.15722656 7.50952148 C-49.62798327 6.2875183 -43.15781857 4.87635646 -36.6875 3.375 C-30.16248758 1.86719618 -23.63868658 0.39400644 -17.0625 -0.875 C-15.85722656 -1.10832031 -14.65195312 -1.34164062 -13.41015625 -1.58203125 C-4.19056261 -2.8810118 -4.19056261 -2.8810118 0 0 Z " fill="#2D3F67" transform="translate(331,219.0625)"/>
<path d="M0 0 C2.6162294 2.9240211 3.20498723 4.45562559 3.125 8.375 C1.68266862 11.3283452 0.34278805 12.87663287 -2.74047852 14.13842773 C-10.13811624 16.32875408 -17.64928104 17.84020056 -25.21548462 19.3069458 C-28.33519359 19.91197572 -31.45260436 20.52847435 -34.57020569 21.14425659 C-36.13629276 21.45348714 -37.70248499 21.7621856 -39.26878357 22.07034302 C-54.04926446 24.97931089 -68.77220943 28.09637817 -83.44628906 31.50048828 C-91.66802745 33.38163379 -99.94082106 34.94351623 -108.23120117 36.48901367 C-116.26455532 38.00763456 -124.20292384 39.79340541 -132.11547852 41.8515625 C-136.80010878 43.035249 -140.99777762 43.74778133 -145.875 43.375 C-149.13973709 41.22714665 -149.7808033 39.67975404 -150.9375 35.9375 C-150.875 32.375 -150.875 32.375 -149.1875 29.625 C-142.36055762 23.85078853 -129.71764002 23.50927982 -121.1875 21.9375 C-112.97209456 20.39426822 -104.82170003 18.73300314 -96.7019043 16.74975586 C-92.32053807 15.68853084 -87.93643427 14.79818692 -83.5 14 C-76.07760358 12.65718077 -68.73284066 11.03352347 -61.375 9.375 C-52.91088136 7.46769878 -44.46376779 5.68547259 -35.921875 4.1640625 C-29.73298835 3.00960934 -23.61125781 1.49324012 -17.49682617 -0.00024414 C-5.16577233 -2.91978436 -5.16577233 -2.91978436 0 0 Z " fill="#2D3F67" transform="translate(310.875,125.625)"/>
<path d="M0 0 C2.15175145 3.06210784 2.22511905 4.63677084 1.625 8.3125 C-0.42118865 11.54537382 -1.74104811 13.06744428 -5.34155273 14.45922852 C-6.48567627 14.70084717 -7.6297998 14.94246582 -8.80859375 15.19140625 C-10.72575195 15.610271 -10.72575195 15.610271 -12.68164062 16.03759766 C-14.0584812 16.3172864 -15.43543702 16.59640833 -16.8125 16.875 C-18.22753419 17.1760685 -19.64224688 17.47865181 -21.05664062 17.78271484 C-29.63518661 19.61093561 -38.24164704 21.30683389 -46.86743164 22.89697266 C-58.01408636 24.95431099 -69.06707988 27.46302328 -80.12988281 29.92578125 C-93.65077815 32.93365893 -107.20841619 35.686088 -120.81835938 38.25756836 C-128.45519421 39.69571383 -128.45519421 39.69571383 -136.01953125 41.46484375 C-140.18728073 42.51769781 -143.10276949 42.73972305 -147.375 42.3125 C-149.875 40.8125 -149.875 40.8125 -151.375 38.3125 C-151.97892884 35.50566882 -152.24105819 33.06667262 -151.375 30.3125 C-147.73098881 26.85383399 -144.82744302 25.64576264 -139.921875 24.75 C-138.67100098 24.5125708 -137.42012695 24.2751416 -136.13134766 24.03051758 C-134.79590578 23.79113739 -133.46045642 23.55179899 -132.125 23.3125 C-130.07421661 22.92821881 -128.02451715 22.5385124 -125.97488403 22.14814758 C-124.62676791 21.89146733 -123.27835926 21.63631853 -121.92965698 21.38273621 C-116.91539095 20.43538845 -111.95334084 19.34784662 -107 18.125 C-101.30741962 16.73515402 -95.60074824 15.56343227 -89.83496094 14.515625 C-80.92744645 12.88604636 -72.07555321 10.98744938 -63.21533203 9.12060547 C-59.59227621 8.35822055 -55.96858295 7.59895791 -52.34466553 6.84068298 C-48.96771653 6.13386392 -45.59104117 5.42574341 -42.2144165 4.71737671 C-40.55169385 4.3687154 -38.88889475 4.02041845 -37.22601318 3.67251587 C-34.85482937 3.17619858 -32.48402673 2.67809381 -30.11328125 2.1796875 C-29.35883728 2.02217514 -28.60439331 1.86466278 -27.8270874 1.70237732 C-22.23369487 0.52447204 -16.6903017 -0.81367153 -11.16088867 -2.26513672 C-6.85680517 -2.91767063 -3.56748057 -2.53478883 0 0 Z " fill="#2D3E67" transform="translate(321.375,172.6875)"/>
<path d="M0 0 C10.2851246 6.58729552 10.2851246 6.58729552 12 12.375 C12 16 12 16 10.0625 18.9375 C6.93826511 21.04157656 4.89823923 21.78737367 1.11328125 21.56640625 C-2.23860135 20.66802737 -4.49601089 18.64084407 -7.14453125 16.46875 C-11.87700442 12.72262387 -17.32169297 12.46803848 -23.15625 12.65625 C-33.16163317 13.86569192 -39.13077625 20.68787284 -45.47167969 27.91821289 C-49.89818274 32.73182683 -49.89818274 32.73182683 -53.13354492 33.51928711 C-56.93611798 33.62403281 -58.8945071 33.07104624 -62.0625 30.9375 C-64.07268466 27.88980067 -64.44570919 26.57375551 -63.80493164 23.0222168 C-61.99987925 18.48741276 -58.13595862 15.26860995 -54.6875 11.9375 C-53.87458496 11.13836182 -53.06166992 10.33922363 -52.22412109 9.51586914 C-38.34490429 -3.74195162 -17.86542477 -9.76922057 0 0 Z " fill="#2A3C64" transform="translate(276,4)"/>
<path d="M0 0 C2.58262227 3.03837914 2.68386922 4.64104274 2.69140625 8.5 C1.8627928 11.42586267 0.45743534 12.55863734 -1.875 14.5 C-5.07958984 15.61254883 -5.07958984 15.61254883 -8.8359375 16.45703125 C-9.50412506 16.60911545 -10.17231262 16.76119965 -10.86074829 16.91789246 C-12.26951284 17.23486088 -13.67992829 17.54456952 -15.09179688 17.84741211 C-17.24052897 18.31045901 -19.38166387 18.80079886 -21.5234375 19.29492188 C-22.89807155 19.60060865 -24.27306193 19.90469832 -25.6484375 20.20703125 C-26.89028809 20.4800708 -28.13213867 20.75311035 -29.41162109 21.03442383 C-33.99513575 21.65057796 -37.39022848 21.5158963 -41.25 18.875 C-43.52743688 15.5464384 -43.43916593 13.4491615 -42.875 9.5 C-39.49356023 4.51782264 -34.2173288 4.04321957 -28.6875 2.875 C-27.77935547 2.67132813 -26.87121094 2.46765625 -25.93554688 2.2578125 C-24.12833256 1.85419699 -22.31956889 1.45745239 -20.50927734 1.06787109 C-17.26066485 0.36756779 -14.02083137 -0.36961049 -10.78100586 -1.109375 C-6.5052481 -1.9856671 -3.89987769 -2.0347188 0 0 Z " fill="#2E4068" transform="translate(339.875,264.5)"/>
<path d="M0 0 C0.99 0.495 0.99 0.495 2 1 C1.34493123 1.65414698 0.68986246 2.30829395 0.01494312 2.98226357 C-15.92907762 18.90407822 -31.87020956 34.82878067 -47.80832195 50.75650978 C-55.51595648 58.45898948 -63.22452465 66.16053042 -70.93530273 73.85986328 C-77.65652592 80.57111481 -84.37598554 87.28412619 -91.09333926 93.99925077 C-94.64969689 97.55430551 -98.20692736 101.1084768 -101.76627159 104.66054153 C-105.11804537 108.00551597 -108.46745181 111.35284282 -111.81507683 114.70196915 C-113.04247925 115.929097 -114.27073557 117.15537146 -115.49991989 118.38071442 C-117.18206418 120.0578603 -118.86106723 121.73809154 -120.53935242 123.4190979 C-121.02282959 123.89966223 -121.50630677 124.38022657 -122.00443476 124.87535346 C-125.21752776 128.10248112 -128.1056054 131.49206816 -131 135 C-132.30011325 136.22378085 -133.63062298 137.41675108 -135 138.5625 C-138.15571349 141.25202854 -141.11430238 144.02412433 -144 147 C-144.66 146.67 -145.32 146.34 -146 146 C-97.82 97.82 -49.64 49.64 0 0 Z " fill="#EFC14F" transform="translate(240,302)"/>
</svg>
