<svg width="24" height="22" viewBox="0 0 24 22" fill="none" xmlns="http://www.w3.org/2000/svg">
<path d="M13.4218 3.33793V6.75758C13.4218 7.53955 12.7916 8.16979 12.0096 8.16979H1.41221C0.618572 8.16979 0 7.51621 0 6.73424C0.0116712 5.4154 0.536874 4.21327 1.41221 3.33793C2.28755 2.46259 3.50135 1.92572 4.83186 1.92572H12.0096C12.7916 1.92572 13.4218 2.55596 13.4218 3.33793Z" fill="#A7A7A7"/>
<path d="M0 11.3327V17.1683C0 19.841 2.15917 22.0001 4.83186 22.0001H18.4988C21.1715 22.0001 23.3423 19.8293 23.3423 17.1566V11.3327C23.3423 10.5507 22.7121 9.92047 21.9301 9.92047H1.41221C0.630243 9.92047 0 10.5507 0 11.3327ZM7.0027 18.0903H4.66847C4.18995 18.0903 3.79313 17.6935 3.79313 17.2149C3.79313 16.7364 4.18995 16.3396 4.66847 16.3396H7.0027C7.48122 16.3396 7.87804 16.7364 7.87804 17.2149C7.87804 17.6935 7.48122 18.0903 7.0027 18.0903ZM14.589 18.0903H9.92049C9.44197 18.0903 9.04515 17.6935 9.04515 17.2149C9.04515 16.7364 9.44197 16.3396 9.92049 16.3396H14.589C15.0675 16.3396 15.4643 16.7364 15.4643 17.2149C15.4643 17.6935 15.0675 18.0903 14.589 18.0903Z" fill="#A7A7A7"/>
<path d="M20.9731 0H17.5417C16.0595 0 15.1725 0.887009 15.1725 2.36925V5.80057C15.1725 7.28281 16.0595 8.16982 17.5417 8.16982H20.9731C22.4553 8.16982 23.3423 7.28281 23.3423 5.80057V2.36925C23.3423 0.887009 22.4553 0 20.9731 0ZM18.6855 6.50084C18.6505 6.53585 18.5688 6.58254 18.5105 6.58254L17.2967 6.7576C17.2616 6.76928 17.215 6.76928 17.1799 6.76928C17.0049 6.76928 16.8531 6.71092 16.7481 6.59421C16.6081 6.45415 16.5497 6.25574 16.5847 6.04566L16.7598 4.83186C16.7715 4.77351 16.8065 4.69181 16.8415 4.65679L18.8256 2.6727C18.8606 2.7544 18.8956 2.84776 18.9306 2.94113C18.9773 3.0345 19.024 3.1162 19.0707 3.1979C19.1057 3.26793 19.1524 3.33795 19.1991 3.38464C19.2457 3.45466 19.2924 3.52469 19.3274 3.55971C19.3508 3.59472 19.3624 3.60639 19.3741 3.61806C19.4792 3.74644 19.5959 3.86316 19.7009 3.94485C19.7243 3.9682 19.7476 3.99154 19.7593 3.99154C19.8176 4.03822 19.8877 4.09658 19.9343 4.13159C20.0044 4.17828 20.0627 4.22496 20.1327 4.25998C20.2144 4.30666 20.3078 4.35334 20.4012 4.40003C20.4946 4.44671 20.5879 4.48173 20.6696 4.50507L18.6855 6.50084ZM21.4749 3.71143L21.0898 4.09658C21.0781 4.11992 21.0431 4.13159 21.0081 4.13159C20.9964 4.13159 20.9847 4.13159 20.9731 4.13159C20.1327 3.8865 19.4675 3.22124 19.2224 2.38092C19.2107 2.33423 19.2224 2.28755 19.2574 2.25253L19.6426 1.86739C20.2728 1.23714 20.868 1.24881 21.4866 1.86739C21.8017 2.18251 21.9534 2.48596 21.9534 2.78941C21.9418 3.09286 21.7901 3.39631 21.4749 3.71143Z" fill="#A7A7A7"/>
</svg>
