<svg width="5600" height="2000" viewBox="0 0 5600 2000" fill="none" xmlns="http://www.w3.org/2000/svg">
<rect width="5600" height="2000" fill="#F5F5F5"/>
<path d="M2606 607C2604 614.059 2601.61 620.87 2598.91 627.688C2598.33 629.163 2598.33 629.163 2597.74 630.667C2596.52 633.78 2595.29 636.89 2594.06 640C2593.24 642.086 2592.42 644.172 2591.6 646.258C2588.1 655.183 2584.57 664.1 2581 673C2577.81 672.252 2575.17 671.195 2572.25 669.707C2535.77 651.5 2488.43 640.865 2448 652C2447.27 652.199 2446.54 652.398 2445.78 652.602C2429.93 657.064 2416.24 663.871 2404 675C2403.31 675.601 2402.61 676.202 2401.9 676.821C2373.91 702.583 2369.17 744.425 2367 780C2366.67 789.9 2366.34 799.8 2366 810C2457.08 810 2548.16 810 2642 810C2642 966.75 2642 1123.5 2642 1285C2613.29 1285 2584.58 1285 2555 1285C2555 1150.03 2555 1015.06 2555 876C2492.96 876 2430.92 876 2367 876C2367 1010.97 2367 1145.94 2367 1285C2338.29 1285 2309.58 1285 2280 1285C2280 1150.03 2280 1015.06 2280 876C2214.33 876 2148.66 876 2081 876C2081 1010.97 2081 1145.94 2081 1285C2052.29 1285 2023.58 1285 1994 1285C1994 1150.03 1994 1015.06 1994 876C1972.22 876 1950.44 876 1928 876C1928 854.22 1928 832.44 1928 810C1949.78 810 1971.56 810 1994 810C1994 800.43 1994 790.86 1994 781C1996.12 743.458 2003.01 707.331 2021 674C2021.33 673.388 2021.65 672.776 2021.99 672.145C2028.92 659.216 2037.51 648.027 2047.61 637.457C2048.96 636.045 2050.29 634.617 2051.62 633.188C2081.09 602.404 2123.93 589.18 2165.63 587.715C2196.03 587.089 2230.8 592.594 2257 609C2255.64 615.932 2253.57 622.268 2251.01 628.844C2250.62 629.853 2250.23 630.862 2249.83 631.902C2249.02 634.024 2248.2 636.146 2247.38 638.266C2246.13 641.488 2244.89 644.715 2243.65 647.942C2242.85 650.014 2242.06 652.085 2241.26 654.157C2240.89 655.11 2240.52 656.063 2240.15 657.046C2237.92 662.774 2235.55 668.411 2233 674C2232.13 673.565 2231.25 673.129 2230.35 672.68C2202.89 659.266 2173.59 653.005 2143.69 661.997C2122.04 669.517 2107.38 685.241 2097.19 705.308C2081.42 737.908 2081.86 774.635 2081 810C2146.67 810 2212.34 810 2280 810C2280 796.14 2280 782.28 2280 768C2281.35 750.171 2283.59 733.273 2288 716C2288.28 714.866 2288.28 714.866 2288.57 713.708C2296.13 683.762 2311.67 656.251 2333 634C2333.8 633.133 2334.61 632.265 2335.44 631.372C2367.41 597.926 2414.82 581.945 2460 578C2461.18 577.89 2462.35 577.779 2463.57 577.664C2511.44 573.776 2564.7 581.288 2606 607Z" fill="#00405F"/>
<path d="M1574.56 612.687C1576.29 612.69 1576.29 612.69 1578.05 612.694C1594.55 612.743 1610.73 613.019 1627 616C1628.15 616.204 1629.31 616.408 1630.49 616.618C1646.75 619.556 1662.42 623.527 1678 629C1679.34 629.452 1680.69 629.904 1682.03 630.355C1702.61 637.473 1721.92 647.969 1740 660C1741.01 660.668 1741.01 660.668 1742.03 661.351C1793.11 695.695 1829.3 748.693 1850 806C1850.47 807.284 1850.47 807.284 1850.95 808.593C1862.99 841.881 1868.97 876.829 1872 912C1872.11 913.245 1872.11 913.245 1872.22 914.515C1877.03 973.758 1870.06 1035.72 1851 1092C1850.71 1092.87 1850.41 1093.74 1850.11 1094.63C1837.11 1132.53 1817.3 1169.19 1790.07 1198.75C1788.24 1200.73 1786.49 1202.76 1784.75 1204.81C1776.33 1214.44 1767.11 1223.16 1757 1231C1755.73 1232.01 1754.47 1233.01 1753.2 1234.02C1709.66 1268.34 1657.77 1287.44 1603 1294C1602.28 1294.09 1601.56 1294.17 1600.81 1294.26C1594.3 1294.98 1587.86 1295.18 1581.31 1295.2C1580.21 1295.21 1579.1 1295.21 1577.97 1295.22C1575.64 1295.23 1573.31 1295.24 1570.98 1295.24C1567.5 1295.25 1564.02 1295.28 1560.55 1295.31C1540.97 1295.41 1521.63 1293.77 1502.44 1289.75C1501.42 1289.54 1500.41 1289.33 1499.36 1289.12C1451.78 1278.95 1408.23 1256.91 1372.32 1224.09C1370.33 1222.3 1368.31 1220.59 1366.25 1218.87C1355.2 1209.21 1345.77 1197.73 1337 1186C1336.49 1185.32 1335.97 1184.64 1335.44 1183.94C1327.57 1173.51 1320.59 1162.81 1314.3 1151.36C1313.45 1149.82 1312.59 1148.28 1311.73 1146.75C1292.6 1112.77 1280.82 1074.43 1274.25 1036.12C1274.06 1035.05 1273.88 1033.98 1273.68 1032.88C1269.97 1009.84 1268.5 986.841 1268.61 963.523C1268.63 959.566 1268.61 955.611 1268.59 951.654C1268.54 893.109 1280.43 833.858 1306 781C1306.47 780.037 1306.93 779.074 1307.41 778.082C1317.71 757.011 1330.11 737.146 1345 719C1345.62 718.234 1345.62 718.234 1346.24 717.454C1352.87 709.235 1360.12 701.675 1367.56 694.187C1368.42 693.316 1369.29 692.444 1370.18 691.546C1376.14 685.61 1382.4 680.222 1389 675C1389.6 674.517 1390.2 674.034 1390.81 673.536C1427.12 644.26 1471.09 625.895 1516.69 617.25C1517.73 617.051 1518.77 616.852 1519.85 616.647C1538.07 613.366 1556.07 612.625 1574.56 612.687ZM1429.64 744.201C1425.56 748.668 1421.87 753.424 1418.28 758.28C1417.04 759.949 1415.78 761.601 1414.52 763.254C1381.14 807.742 1366.5 864.498 1361 919C1360.91 919.909 1360.81 920.818 1360.71 921.754C1353.38 1002.16 1369.81 1090.42 1422 1154C1424.79 1157.23 1427.68 1160.35 1430.61 1163.45C1432.55 1165.52 1434.39 1167.62 1436.19 1169.81C1439.45 1173.64 1443.14 1176.8 1447 1180C1447.51 1180.43 1448.01 1180.86 1448.53 1181.3C1488.36 1214.99 1537.77 1227.94 1589.31 1224.8C1638.58 1220.58 1683.31 1196.31 1715.59 1159.17C1718.88 1155.23 1721.97 1151.15 1725 1147C1725.77 1145.95 1726.53 1144.91 1727.32 1143.83C1744.02 1120.38 1756.11 1094.32 1765 1067C1765.29 1066.12 1765.57 1065.25 1765.87 1064.35C1793.45 978.126 1787.16 875.699 1746.24 794.898C1736.14 775.516 1723.65 757.206 1708.43 741.478C1706.94 739.941 1705.48 738.385 1704.02 736.828C1673.11 704.436 1628.4 684.552 1583.68 682.875C1523.62 681.574 1471.28 700.198 1429.64 744.201Z" fill="#00405F"/>
<path d="M4353 834C4370.2 849.648 4383.59 869.259 4392 891C4392 891.99 4392 892.98 4392 894C4392.66 894 4393.32 894 4394 894C4394.37 892.964 4394.37 892.964 4394.75 891.906C4396.19 888.551 4398.02 885.553 4400 882.5C4400.4 881.89 4400.79 881.28 4401.2 880.651C4408.5 869.559 4416.86 859.605 4426 850C4426.69 849.243 4427.38 848.487 4428.1 847.707C4456.86 817.283 4498.61 800.609 4539.97 798.876C4580.54 797.829 4616.53 807.645 4648 834C4648.71 834.587 4649.42 835.173 4650.15 835.777C4654.93 839.817 4659.05 844.155 4663 849C4663.77 849.948 4664.55 850.895 4665.34 851.871C4704.1 900.291 4709.21 963.157 4709.12 1022.87C4709.11 1026.4 4709.11 1029.93 4709.11 1033.46C4709.11 1039.56 4709.11 1045.65 4709.11 1051.74C4709.1 1060.55 4709.1 1069.36 4709.09 1078.17C4709.09 1092.46 4709.08 1106.76 4709.08 1121.06C4709.07 1134.93 4709.06 1148.81 4709.05 1162.68C4709.05 1163.54 4709.05 1164.4 4709.05 1165.28C4709.05 1169.58 4709.05 1173.89 4709.05 1178.19C4709.04 1213.79 4709.02 1249.4 4709 1285C4680.62 1285 4652.24 1285 4623 1285C4622.98 1271.83 4622.98 1271.83 4622.96 1258.39C4622.91 1230.22 4622.84 1202.04 4622.77 1173.86C4622.76 1169.48 4622.75 1165.09 4622.74 1160.71C4622.73 1159.4 4622.73 1159.4 4622.73 1158.06C4622.7 1143.98 4622.67 1129.89 4622.65 1115.8C4622.63 1101.32 4622.59 1086.84 4622.55 1072.35C4622.52 1063.44 4622.51 1054.52 4622.5 1045.6C4622.5 1039.46 4622.48 1033.33 4622.45 1027.19C4622.44 1023.66 4622.43 1020.14 4622.43 1016.61C4622.44 995.599 4621.47 974.712 4616.31 954.25C4615.93 952.712 4615.93 952.712 4615.54 951.143C4608.31 923.223 4594.72 897.862 4569.31 882.813C4548.27 870.883 4520.19 867.867 4496.87 874.098C4494.9 874.687 4492.95 875.328 4491 876C4490.3 876.236 4489.61 876.472 4488.89 876.715C4472.51 882.436 4459.2 891.8 4447 904C4446.28 904.716 4445.57 905.431 4444.83 906.168C4429.38 922.604 4419.21 943.963 4415 966C4414.83 966.899 4414.66 967.798 4414.48 968.724C4412.37 981.881 4412.69 995.152 4412.68 1008.44C4412.68 1012.16 4412.66 1015.88 4412.65 1019.6C4412.63 1026.03 4412.61 1032.46 4412.6 1038.89C4412.59 1048.18 4412.56 1057.47 4412.54 1066.77C4412.49 1081.85 4412.45 1096.93 4412.42 1112.01C4412.39 1126.66 4412.36 1141.3 4412.32 1155.94C4412.31 1156.85 4412.31 1157.75 4412.31 1158.68C4412.3 1163.22 4412.29 1167.75 4412.27 1172.29C4412.17 1209.86 4412.08 1247.43 4412 1285C4383.95 1285 4355.9 1285 4327 1285C4326.98 1276.04 4326.96 1267.08 4326.94 1257.85C4326.88 1229.14 4326.8 1200.42 4326.72 1171.7C4326.71 1167.23 4326.69 1162.76 4326.68 1158.3C4326.68 1156.96 4326.68 1156.96 4326.68 1155.6C4326.64 1141.24 4326.6 1126.87 4326.57 1112.51C4326.54 1097.75 4326.5 1082.99 4326.46 1068.23C4326.43 1059.13 4326.41 1050.04 4326.39 1040.95C4326.38 1034.69 4326.36 1028.44 4326.34 1022.19C4326.33 1018.59 4326.32 1015 4326.32 1011.4C4326.31 993.134 4326 975.025 4322.31 957.063C4322.06 955.843 4322.06 955.843 4321.81 954.599C4315.95 927.701 4302.91 900.78 4279.31 885.25C4258.49 872.154 4233.03 868.344 4208.91 873.08C4205.54 873.877 4202.27 874.871 4199 876C4198.3 876.236 4197.61 876.472 4196.89 876.715C4181.48 882.097 4168.68 890.653 4157 902C4155.79 903.1 4155.79 903.1 4154.55 904.223C4139.89 917.995 4129.05 937.188 4122.56 956.125C4122.34 956.768 4122.12 957.41 4121.89 958.072C4116.52 974.998 4116.55 992.016 4116.57 1009.59C4116.57 1013.3 4116.55 1017 4116.54 1020.71C4116.51 1027.11 4116.5 1033.51 4116.5 1039.91C4116.49 1049.17 4116.47 1058.42 4116.44 1067.68C4116.4 1082.7 4116.37 1097.72 4116.35 1112.74C4116.33 1127.32 4116.3 1141.9 4116.26 1156.48C4116.26 1157.38 4116.26 1158.28 4116.26 1159.21C4116.24 1163.73 4116.23 1168.24 4116.22 1172.76C4116.13 1210.18 4116.06 1247.59 4116 1285C4087.62 1285 4059.24 1285 4030 1285C4029.98 1272.89 4029.96 1260.78 4029.94 1248.31C4029.87 1209.38 4029.8 1170.45 4029.72 1131.52C4029.71 1125.45 4029.69 1119.39 4029.68 1113.32C4029.68 1112.11 4029.68 1110.91 4029.68 1109.66C4029.64 1090.22 4029.6 1070.77 4029.57 1051.33C4029.54 1031.31 4029.5 1011.3 4029.46 991.282C4029.43 980.066 4029.41 968.851 4029.4 957.635C4029.55 899.159 4029.55 899.159 4027.57 840.73C4027.02 830.397 4027 820.425 4027 810C4051.75 810 4076.5 810 4102 810C4103.38 812.762 4103.3 815.18 4103.48 818.266C4103.52 818.909 4103.56 819.552 4103.6 820.214C4103.73 822.344 4103.85 824.475 4103.97 826.606C4104.06 828.088 4104.15 829.571 4104.24 831.053C4104.42 834.166 4104.6 837.279 4104.78 840.392C4105.01 844.369 4105.25 848.345 4105.49 852.322C4105.67 855.387 4105.85 858.452 4106.03 861.518C4106.12 862.983 4106.2 864.448 4106.29 865.913C4106.41 867.971 4106.53 870.029 4106.65 872.087C4106.72 873.255 4106.78 874.424 4106.85 875.628C4107 879.09 4107.02 882.536 4107 886C4107.66 886 4108.32 886 4109 886C4109.26 885.289 4109.52 884.577 4109.78 883.844C4118.21 864.168 4137.06 844.633 4154 832C4154.53 831.6 4155.05 831.2 4155.59 830.787C4212.12 787.845 4299.02 786.089 4353 834Z" fill="#00405F"/>
<path d="M724.803 613.111C727.248 615.361 729.623 617.677 731.999 620C732.85 620.788 733.701 621.577 734.577 622.39C773.555 659.407 780.568 716.876 782.113 767.746C783.485 832.433 773.892 908.192 727.525 957.38C700.412 985.533 664.955 1000.22 625.89 1001.2C586.896 1001.67 549.904 993.149 519.999 967C519.271 966.392 518.543 965.785 517.792 965.16C513.03 961.144 508.94 956.817 504.999 952C504.261 951.122 503.522 950.244 502.761 949.339C465.056 902.735 455.787 837.844 455.749 779.75C455.748 778.672 455.747 777.594 455.746 776.484C455.78 723.133 461.904 665.738 499.999 625C500.502 624.455 501.004 623.91 501.522 623.348C526.089 596.937 560.431 582.111 595.999 578C596.896 577.889 597.794 577.778 598.718 577.664C642.034 573.162 691.538 583.482 724.803 613.111Z" fill="#00405F"/>
<path d="M1616 1414C1618.79 1415.36 1619.88 1416.56 1622 1419C1623.41 1423.95 1622.5 1427.79 1621.19 1432.62C1614.69 1459.58 1616.48 1489.57 1616 1517C1631.51 1517 1647.02 1517 1663 1517C1663.66 1514.03 1664.32 1511.06 1665 1508C1666.18 1505.19 1667.36 1502.56 1668.75 1499.87C1669.11 1499.18 1669.46 1498.48 1669.83 1497.77C1673.24 1491.28 1677 1485.13 1683.75 1481.66C1690.1 1479.79 1698.08 1479.7 1704.19 1482.44C1709.55 1485.65 1714.28 1489.94 1719 1494C1719.88 1489.28 1720.29 1484.61 1720.53 1479.82C1720.57 1479.01 1720.61 1478.19 1720.66 1477.35C1721.27 1464.33 1721.36 1451.28 1721.55 1438.25C1721.6 1434.77 1721.66 1431.29 1721.72 1427.8C1721.73 1426.73 1721.75 1425.66 1721.76 1424.55C1721.78 1423.57 1721.79 1422.59 1721.81 1421.59C1721.82 1420.72 1721.84 1419.86 1721.85 1418.97C1722 1417 1722 1417 1723 1416C1727.04 1415.47 1731.19 1415.12 1734.93 1416.94C1738.21 1419.54 1739.81 1422.06 1741 1426C1741.08 1429.25 1741.08 1429.25 1740.81 1433C1740.76 1433.7 1740.71 1434.41 1740.66 1435.14C1740.37 1438.87 1739.94 1442.55 1739.33 1446.24C1736.9 1460.81 1736.25 1475.34 1735.65 1490.08C1735.61 1490.97 1735.57 1491.86 1735.54 1492.78C1735.47 1494.44 1735.4 1496.11 1735.34 1497.77C1735.09 1504.22 1734.54 1510.55 1734 1517C1748.19 1517 1762.38 1517 1777 1517C1777 1507.43 1777 1497.86 1777 1488C1781.32 1485.84 1783.26 1485.59 1788 1486C1791.27 1487.36 1793.5 1488.5 1796 1491C1796.68 1499.08 1795.67 1509.66 1792 1517C1806.19 1517 1820.38 1517 1835 1517C1835 1509.28 1834.96 1503.31 1834 1496C1833.07 1487.49 1833.07 1487.49 1835.09 1484.25C1837.81 1481.71 1840.04 1480.99 1843.69 1480.5C1847 1481 1847 1481 1848.69 1482.16C1850.57 1484.8 1850.34 1486.76 1850.29 1489.98C1850.28 1491.73 1850.28 1491.73 1850.26 1493.51C1850.24 1494.72 1850.21 1495.94 1850.19 1497.19C1850.17 1498.41 1850.16 1499.64 1850.15 1500.9C1850.11 1503.94 1850.06 1506.97 1850 1510C1850.65 1508.85 1851.3 1507.71 1851.98 1506.53C1852.86 1505 1853.74 1503.47 1854.62 1501.94C1855.05 1501.18 1855.48 1500.43 1855.92 1499.66C1859.86 1492.86 1864.17 1485.47 1872 1483C1882.38 1481.8 1890.33 1484.14 1898.75 1490.19C1907.29 1497.3 1909.93 1505.42 1914 1516C1929.18 1516 1944.36 1516 1960 1516C1962.31 1509.73 1964.62 1503.46 1967 1497C1971.39 1489.14 1975.44 1482.58 1984 1479C1991.4 1477.87 1997.36 1478.67 2003.56 1482.92C2011.46 1489.66 2016.85 1497.83 2021.53 1506.99C2025.67 1512.03 2031.44 1515.31 2037.87 1516.56C2040.93 1516.77 2043.93 1516.81 2046.99 1516.77C2048.7 1516.79 2048.7 1516.79 2050.45 1516.8C2054.19 1516.83 2057.93 1516.82 2061.67 1516.8C2064.28 1516.82 2066.88 1516.83 2069.49 1516.85C2075.63 1516.88 2081.76 1516.88 2087.9 1516.88C2094.9 1516.87 2101.89 1516.9 2108.88 1516.93C2123.26 1516.99 2137.63 1517.01 2152 1517C2151.98 1515.31 2151.98 1515.31 2151.97 1513.59C2151.86 1502.96 2151.79 1492.34 2151.74 1481.72C2151.71 1476.25 2151.68 1470.79 2151.62 1465.33C2151.57 1460.06 2151.54 1454.79 2151.53 1449.52C2151.52 1447.51 2151.5 1445.5 2151.47 1443.49C2151.44 1440.67 2151.43 1437.85 2151.43 1435.03C2151.41 1434.2 2151.4 1433.38 2151.38 1432.52C2151.41 1428.38 2151.76 1425.77 2154.39 1422.48C2157 1420 2157 1420 2159.35 1419.24C2160.1 1419.26 2160.85 1419.29 2161.62 1419.31C2162.38 1419.31 2163.14 1419.3 2163.91 1419.3C2166 1420 2166 1420 2167.67 1422.1C2169.38 1425.83 2169.02 1428.01 2168.42 1432.05C2168.32 1432.71 2168.23 1433.37 2168.14 1434.05C2167.84 1436.14 2167.51 1438.22 2167.19 1440.31C2166.98 1441.73 2166.77 1443.16 2166.57 1444.58C2166.06 1448.06 2165.54 1451.53 2165 1455C2165.8 1453.56 2165.8 1453.56 2166.61 1452.09C2175.9 1435.38 2185.57 1421.08 2204.9 1415.45C2217.67 1412.73 2231.04 1414.34 2242.03 1421.28C2251.55 1428.45 2256.18 1440.45 2258.58 1451.73C2261.02 1470.77 2258.19 1488.54 2248 1505C2245.2 1508.55 2242.22 1511.83 2239 1515C2238.67 1515.33 2238.34 1515.66 2238 1516C2268.19 1516.49 2268.19 1516.49 2299 1517C2299 1507.1 2299 1497.2 2299 1487C2302.48 1483.52 2303.28 1483.55 2308 1483.5C2309.05 1483.47 2310.1 1483.44 2311.19 1483.41C2314 1484 2314 1484 2315.86 1485.95C2317.42 1490.13 2317.36 1493.83 2317.25 1498.25C2317.24 1499.46 2317.24 1499.46 2317.23 1500.7C2317.16 1506.24 2316.62 1511.42 2316 1517C2329.86 1517 2343.72 1517 2358 1517C2357.29 1507.23 2357.29 1507.23 2355 1499C2354.62 1496.14 2354.71 1493.93 2355 1491C2357.24 1488.67 2358.67 1488.05 2361.88 1487.57C2362.91 1487.56 2363.94 1487.56 2365 1487.56C2366.55 1487.53 2366.55 1487.53 2368.12 1487.5C2371.74 1488.13 2372.73 1489.16 2375 1492C2375.47 1494.53 2375.47 1494.53 2375.43 1497.35C2375.42 1498.37 2375.41 1499.38 2375.4 1500.43C2375.37 1501.48 2375.34 1502.54 2375.31 1503.62C2375.3 1504.69 2375.29 1505.75 2375.28 1506.84C2375.17 1514.66 2375.17 1514.66 2374 1517C2386.87 1517 2399.74 1517 2413 1517C2413.66 1512.71 2414.32 1508.42 2415 1504C2416.09 1500.99 2417.09 1498.46 2418.56 1495.69C2418.91 1495.01 2419.25 1494.34 2419.61 1493.65C2423.13 1487.16 2427.82 1481.39 2435 1479C2448.13 1477.22 2457.67 1481.66 2468.09 1489.25C2474.54 1494.7 2477.94 1499.76 2480 1508C2480 1510.97 2480 1513.94 2480 1517C2494.19 1517 2508.38 1517 2523 1517C2523 1507.43 2523 1497.86 2523 1488C2527.32 1485.84 2529.26 1485.59 2534 1486C2537.27 1487.36 2539.5 1488.5 2542 1491C2542.68 1499.08 2541.67 1509.66 2538 1517C2552.52 1517 2567.04 1517 2582 1517C2582 1509.28 2581.96 1503.31 2581 1496C2580.07 1487.49 2580.07 1487.49 2582.09 1484.25C2584.81 1481.71 2587.04 1480.99 2590.69 1480.5C2594 1481 2594 1481 2595.69 1482.16C2597.57 1484.8 2597.34 1486.76 2597.29 1489.98C2597.28 1491.14 2597.27 1492.31 2597.26 1493.51C2597.24 1494.72 2597.21 1495.94 2597.19 1497.19C2597.17 1498.41 2597.16 1499.64 2597.15 1500.9C2597.11 1503.94 2597.06 1506.97 2597 1510C2597.65 1508.85 2598.3 1507.71 2598.98 1506.53C2599.86 1505 2600.74 1503.47 2601.62 1501.94C2602.05 1501.18 2602.48 1500.43 2602.92 1499.66C2606.86 1492.86 2611.17 1485.47 2619 1483C2629.38 1481.8 2637.33 1484.14 2645.75 1490.19C2654.29 1497.3 2656.93 1505.42 2661 1516C2675.85 1516.33 2690.7 1516.66 2706 1517C2706.33 1514.69 2706.66 1512.38 2707 1510C2707.83 1507.28 2708.97 1504.72 2710.12 1502.12C2710.43 1501.43 2710.74 1500.73 2711.06 1500.01C2714.48 1492.58 2718.42 1485.68 2726 1482C2737.47 1479.98 2746.51 1483.77 2755.76 1490.23C2765.26 1497.22 2773 1504.98 2775 1517C2787.87 1517 2800.74 1517 2814 1517C2814.66 1512.71 2815.32 1508.42 2816 1504C2817.09 1500.99 2818.09 1498.46 2819.56 1495.69C2819.91 1495.01 2820.25 1494.34 2820.61 1493.65C2824.13 1487.16 2828.82 1481.39 2836 1479C2849.13 1477.22 2858.67 1481.66 2869.09 1489.25C2875.54 1494.7 2878.94 1499.76 2881 1508C2881 1510.97 2881 1513.94 2881 1517C2893.87 1517 2906.74 1517 2920 1517C2920.66 1512.71 2921.32 1508.42 2922 1504C2923.09 1500.99 2924.09 1498.46 2925.56 1495.69C2925.91 1495.01 2926.25 1494.34 2926.61 1493.65C2930.13 1487.16 2934.82 1481.39 2942 1479C2955.13 1477.22 2964.67 1481.66 2975.09 1489.25C2981.54 1494.7 2984.94 1499.76 2987 1508C2987 1510.97 2987 1513.94 2987 1517C3032.54 1516.67 3078.08 1516.34 3125 1516C3122.36 1512.7 3119.72 1509.4 3117 1506C3107.14 1490.76 3106.34 1473.21 3110.03 1455.93C3112.34 1446.05 3116.82 1437.97 3123 1430C3123.46 1429.36 3123.92 1428.73 3124.39 1428.07C3129.67 1421.22 3137.65 1416.14 3146 1414C3158.2 1412.62 3169.25 1413.49 3179.48 1420.76C3192.73 1431.7 3199.19 1447.11 3201.66 1463.75C3202.03 1466.17 3202.43 1468.57 3202.84 1470.97C3207.29 1497.62 3207.29 1497.62 3202 1508C3199.63 1510.9 3199.11 1510.98 3195.12 1511.56C3191.6 1511.4 3190.96 1510.97 3188 1508.62C3185.04 1504.38 3185.42 1499.96 3186 1495C3186.31 1493.41 3186.64 1491.83 3187 1490.25C3190.55 1473.85 3187.12 1454.99 3178.59 1440.62C3175.57 1436.24 3172.26 1432.49 3167 1431C3157.06 1429.59 3149.25 1431.27 3141 1437C3132.3 1444.32 3126.66 1456.56 3125.66 1467.76C3125.49 1485.66 3131.96 1496.55 3143.69 1509.77C3149.6 1515.47 3153.75 1516.58 3161.68 1516.45C3162.63 1516.45 3163.59 1516.45 3164.58 1516.46C3167.73 1516.45 3170.87 1516.42 3174.02 1516.39C3176.21 1516.38 3178.4 1516.38 3180.59 1516.37C3186.34 1516.36 3192.09 1516.32 3197.84 1516.27C3203.71 1516.23 3209.58 1516.22 3215.46 1516.19C3226.97 1516.15 3238.49 1516.08 3250 1516C3250.39 1515.06 3250.78 1514.12 3251.18 1513.15C3251.7 1511.89 3252.23 1510.63 3252.76 1509.37C3253.01 1508.75 3253.27 1508.13 3253.53 1507.5C3258.03 1496.81 3265.27 1488.09 3275.19 1482.06C3282.6 1480 3290.11 1479.69 3297.19 1483C3310.46 1490.67 3320.12 1501.35 3325 1516C3344.8 1516.49 3344.8 1516.49 3365 1517C3365.03 1502.26 3365.03 1502.26 3365.05 1487.52C3365.05 1481.49 3365.06 1475.47 3365.08 1469.45C3365.09 1464.58 3365.09 1459.72 3365.09 1454.86C3365.1 1453.01 3365.1 1451.17 3365.11 1449.33C3365.14 1438.5 3364.9 1427.79 3364 1417C3368.91 1413.94 3372.25 1412.93 3378 1414C3380.79 1415.36 3381.88 1416.56 3384 1419C3385.41 1423.95 3384.5 1427.79 3383.19 1432.62C3376.66 1459.72 3378.45 1489.31 3378 1517C3391.2 1517 3404.4 1517 3418 1517C3417.88 1507.26 3417.88 1507.26 3417.73 1497.52C3417.72 1496.31 3417.71 1495.1 3417.71 1493.86C3417.68 1491.99 3417.68 1491.99 3417.66 1490.09C3418 1487 3418 1487 3419.34 1485.1C3421.86 1483.43 3424.01 1483.53 3427 1483.5C3428.05 1483.47 3429.1 1483.44 3430.19 1483.41C3433 1484 3433 1484 3434.86 1485.95C3436.42 1490.13 3436.36 1493.83 3436.25 1498.25C3436.24 1499.06 3436.24 1499.87 3436.23 1500.7C3436.16 1506.24 3435.62 1511.42 3435 1517C3448.86 1517 3462.72 1517 3477 1517C3476.29 1507.23 3476.29 1507.23 3474 1499C3473.62 1496.14 3473.71 1493.93 3474 1491C3476.24 1488.67 3477.67 1488.05 3480.88 1487.57C3481.91 1487.56 3482.94 1487.56 3484 1487.56C3485.55 1487.53 3485.55 1487.53 3487.12 1487.5C3490.74 1488.13 3491.73 1489.16 3494 1492C3494.47 1494.53 3494.47 1494.53 3494.43 1497.35C3494.41 1498.87 3494.41 1498.87 3494.4 1500.43C3494.37 1501.48 3494.34 1502.54 3494.31 1503.62C3494.3 1504.69 3494.29 1505.75 3494.28 1506.84C3494.17 1514.66 3494.17 1514.66 3493 1517C3508.35 1516.5 3508.35 1516.5 3524 1516C3524 1514.02 3524 1512.04 3524 1510C3526.97 1505.92 3529.85 1504.28 3534.8 1503.27C3538.54 1502.81 3542.24 1502.87 3546 1503C3545.98 1501.73 3545.98 1501.73 3545.96 1500.43C3545.9 1491.86 3546.3 1483.43 3547 1474.87C3547.19 1472.52 3547.38 1470.16 3547.56 1467.8C3547.7 1466.11 3547.7 1466.11 3547.83 1464.38C3548.05 1460.04 3547.85 1455.76 3547.55 1451.43C3548 1449 3548 1449 3550.37 1447.17C3554.07 1445.52 3556.18 1446.09 3559.97 1447.16C3562 1448 3562 1448 3564.06 1449.94C3566.99 1459.49 3564.33 1470.65 3563.07 1480.33C3562.2 1487.26 3561.81 1494.01 3562 1501C3562.76 1500.84 3563.52 1500.68 3564.3 1500.51C3567.45 1499.91 3570.42 1499.83 3573.62 1499.81C3574.75 1499.8 3575.88 1499.78 3577.04 1499.77C3580 1500 3580 1500 3583 1502C3584.06 1505.42 3584.26 1507.31 3583 1510.69C3581 1513 3581 1513 3574 1516C3595.78 1516.49 3595.78 1516.49 3618 1517C3618 1507.43 3618 1497.86 3618 1488C3622.32 1485.84 3624.26 1485.59 3629 1486C3632.27 1487.36 3634.5 1488.5 3637 1491C3637.68 1499.08 3636.67 1509.66 3633 1517C3646.86 1516.67 3660.72 1516.34 3675 1516C3677.97 1509.07 3677.97 1509.07 3681 1502C3686.8 1493.12 3693.31 1483.98 3704 1481C3715.75 1479.63 3722.96 1482.8 3732.19 1489.75C3740.62 1496.81 3746.52 1505.55 3750 1516C3762.21 1516.33 3774.42 1516.66 3787 1517C3787 1509.28 3786.96 1503.31 3786 1496C3785.07 1487.49 3785.07 1487.49 3787.09 1484.25C3789.81 1481.71 3792.04 1480.99 3795.69 1480.5C3799 1481 3799 1481 3800.69 1482.16C3802.57 1484.8 3802.34 1486.76 3802.29 1489.98C3802.28 1491.14 3802.27 1492.31 3802.26 1493.51C3802.24 1494.72 3802.21 1495.94 3802.19 1497.19C3802.17 1498.41 3802.16 1499.64 3802.15 1500.9C3802.11 1503.94 3802.06 1506.97 3802 1510C3802.98 1508.28 3802.98 1508.28 3803.98 1506.53C3804.86 1505 3805.74 1503.47 3806.62 1501.94C3807.05 1501.18 3807.48 1500.43 3807.92 1499.66C3811.86 1492.86 3816.17 1485.47 3824 1483C3834.38 1481.8 3842.33 1484.14 3850.75 1490.19C3859.29 1497.3 3861.93 1505.42 3866 1516C3881.18 1516.33 3896.36 1516.66 3912 1517C3912.66 1512.71 3913.32 1508.42 3914 1504C3915.09 1500.99 3916.09 1498.46 3917.56 1495.69C3917.91 1495.01 3918.25 1494.34 3918.61 1493.65C3922.13 1487.16 3926.82 1481.39 3934 1479C3947.13 1477.22 3956.67 1481.66 3967.09 1489.25C3973.3 1494.5 3977.38 1499.89 3979 1508C3979.07 1509.58 3979.09 1511.17 3979.06 1512.75C3979.05 1513.55 3979.04 1514.35 3979.04 1515.17C3979.02 1516.08 3979.02 1516.08 3979 1517C3981.31 1517 3983.62 1517 3986 1517C3986 1517.33 3986 1517.66 3986 1518C3983.69 1518 3981.38 1518 3979 1518C3979.03 1518.87 3979.07 1519.74 3979.11 1520.64C3979.29 1528.74 3978.92 1536.35 3976 1544C3971.79 1546.1 3966.42 1545.38 3962 1544.19C3960 1543 3960 1543 3959 1540C3959.74 1538.19 3959.74 1538.19 3960.88 1536.12C3963.76 1529.91 3963.76 1529.91 3964 1518C3952.45 1518 3940.9 1518 3929 1518C3929 1529.26 3930.75 1534.55 3938.58 1542.67C3945.57 1549.4 3953.56 1554.32 3961.75 1559.44C3966.7 1562.54 3971.61 1565.66 3976.44 1568.94C3977.92 1569.94 3977.92 1569.94 3979.43 1570.96C3983.32 1574.05 3985.77 1576.45 3986.5 1581.44C3985.78 1586.59 3984.11 1589.37 3979.96 1592.57C3966.9 1601.04 3951.95 1603.18 3936.76 1600.41C3925.06 1596.74 3910.51 1585.47 3904 1575C3904.07 1571.28 3904.2 1568.95 3906.62 1566.06C3910.14 1564.49 3912.19 1564.26 3916 1565C3917.18 1566.51 3917.18 1566.51 3918.25 1568.5C3924.17 1579.32 3938.7 1585.23 3950 1589C3952.16 1589.12 3954.33 1589.17 3956.5 1589.19C3957.64 1589.2 3958.79 1589.22 3959.97 1589.23C3963.18 1589.24 3963.18 1589.24 3966 1587C3967.01 1585.19 3967.01 1585.19 3967 1583C3964.86 1578.39 3962.09 1576.44 3957.81 1573.81C3957.2 1573.43 3956.59 1573.05 3955.96 1572.65C3952.65 1570.59 3949.3 1568.58 3945.94 1566.58C3929.67 1556.81 3917.28 1546.35 3912.31 1527.37C3911.9 1524.27 3912 1521.13 3912 1518C3896.82 1518 3881.64 1518 3866 1518C3866.99 1521.96 3867.98 1525.92 3869 1530C3871.52 1544.57 3871.19 1559.66 3871.19 1574.4C3871.19 1577.48 3871.21 1580.57 3871.22 1583.66C3871.23 1585.62 3871.23 1587.59 3871.23 1589.56C3871.24 1590.94 3871.24 1590.94 3871.25 1592.35C3871.25 1593.19 3871.25 1594.04 3871.24 1594.91C3871.24 1595.66 3871.25 1596.4 3871.25 1597.17C3871 1599 3871 1599 3869 1601C3863.65 1601.44 3860.27 1601.61 3856 1598C3855.5 1594.87 3855.33 1592.27 3855.36 1589.14C3855.35 1588.26 3855.34 1587.37 3855.33 1586.46C3855.32 1584.56 3855.31 1582.66 3855.31 1580.76C3855.31 1575.85 3855.24 1570.93 3855.17 1566.02C3855.16 1565.05 3855.15 1564.09 3855.14 1563.1C3855.05 1555.72 3854.72 1548.41 3854.06 1541.06C3853.99 1540.19 3853.91 1539.31 3853.84 1538.41C3853.21 1531.85 3852.09 1525.53 3851 1519C3831.2 1518.5 3831.2 1518.5 3811 1518C3803.36 1540.91 3799.92 1561.45 3803.56 1585.39C3804.04 1589.37 3804.2 1592.99 3804 1597C3801.64 1599.36 3800.92 1599.37 3797.69 1599.5C3795.04 1599.44 3793.52 1599.36 3791.33 1597.83C3786.83 1592.69 3786.87 1587.54 3786.89 1581.01C3786.89 1579.98 3786.89 1579.98 3786.89 1578.94C3786.89 1576.69 3786.89 1574.44 3786.9 1572.2C3786.9 1570.64 3786.91 1569.07 3786.91 1567.51C3786.91 1563.41 3786.92 1559.31 3786.93 1555.21C3786.94 1550.28 3786.95 1545.35 3786.95 1540.43C3786.96 1532.95 3786.98 1525.48 3787 1518C3775.12 1518.33 3763.24 1518.66 3751 1519C3751.66 1521.97 3752.32 1524.94 3753 1528C3756.33 1549.01 3753.5 1571.39 3741 1589C3735.41 1596.47 3729.12 1601.58 3720 1604C3706.99 1605.32 3694.65 1604.91 3684.19 1596.37C3672.71 1585.24 3669.02 1569.97 3668.76 1554.4C3668.71 1541.72 3670.51 1530.21 3674 1518C3660.47 1518 3646.94 1518 3633 1518C3633.15 1530.02 3633.15 1530.02 3633.31 1542.04C3633.37 1546.95 3633.44 1551.86 3633.5 1556.77C3633.55 1560.73 3633.6 1564.69 3633.65 1568.65C3633.67 1570.15 3633.69 1571.66 3633.71 1573.16C3633.79 1580.58 3633.92 1587.92 3634.89 1595.28C3634.94 1596.13 3634.94 1596.13 3635 1597C3633.44 1598.56 3631.91 1598.24 3629.75 1598.31C3626.4 1598.26 3625.08 1598.04 3622.06 1596.37C3618.05 1591.75 3617.75 1586.83 3617.77 1580.89C3617.77 1580.21 3617.77 1579.53 3617.77 1578.82C3617.77 1576.58 3617.79 1574.34 3617.8 1572.1C3617.81 1570.54 3617.81 1568.98 3617.81 1567.42C3617.82 1563.33 3617.84 1559.23 3617.86 1555.14C3617.89 1550.22 3617.9 1545.3 3617.91 1540.38C3617.93 1532.92 3617.97 1525.46 3618 1518C3598.86 1518 3579.72 1518 3560 1518C3560.12 1527.34 3560.25 1536.69 3560.38 1546.31C3560.43 1550.7 3560.43 1550.7 3560.48 1555.18C3560.51 1557.54 3560.55 1559.89 3560.59 1562.24C3560.6 1563.43 3560.61 1564.63 3560.62 1565.86C3560.73 1572.27 3561.21 1578.32 3562.54 1584.59C3563.49 1589.57 3564.14 1594.13 3561.44 1598.56C3558.02 1600.58 3555.9 1600.63 3552 1600C3546.39 1595.17 3545.01 1587.02 3544 1580C3543.92 1577.91 3543.88 1575.81 3543.89 1573.72C3543.89 1572.5 3543.89 1571.28 3543.89 1570.02C3543.89 1568.72 3543.9 1567.41 3543.9 1566.07C3543.9 1564.71 3543.91 1563.35 3543.91 1561.99C3543.91 1558.43 3543.92 1554.87 3543.93 1551.31C3543.94 1547.67 3543.95 1544.03 3543.95 1540.39C3543.96 1533.26 3543.98 1526.13 3544 1519C3542.95 1519.08 3541.9 1519.17 3540.82 1519.25C3539.45 1519.36 3538.07 1519.46 3536.69 1519.56C3536 1519.62 3535.31 1519.67 3534.6 1519.73C3531.37 1519.97 3529.1 1520.03 3526 1519C3523.49 1518.85 3521 1518.74 3518.49 1518.68C3517.76 1518.66 3517.03 1518.64 3516.28 1518.62C3513.96 1518.55 3511.64 1518.5 3509.31 1518.44C3507.74 1518.39 3506.16 1518.35 3504.58 1518.31C3500.72 1518.2 3496.86 1518.1 3493 1518C3491.9 1535.7 3491.51 1553.27 3492.77 1570.97C3493.07 1575.69 3493.15 1580.4 3493.19 1585.12C3493.2 1585.92 3493.21 1586.71 3493.23 1587.53C3493.23 1592.08 3492.79 1595.74 3491 1600C3489.34 1601.66 3487.4 1601.21 3485.12 1601.25C3483.8 1601.29 3483.8 1601.29 3482.45 1601.33C3480 1601 3480 1601 3478.25 1599.71C3476.32 1597.07 3475.77 1594.15 3475 1591C3474.31 1591.47 3473.62 1591.94 3472.91 1592.43C3462.57 1599.27 3453.67 1602.95 3441 1601C3433.41 1597.84 3425.71 1591.86 3422.19 1584.25C3420.32 1579.58 3419.29 1575 3418.81 1570C3418.73 1569.2 3418.65 1568.4 3418.57 1567.57C3417.2 1551.16 3417.89 1534.42 3418 1518C3404.8 1518 3391.6 1518 3378 1518C3378.09 1554.06 3378.09 1554.06 3383.68 1589.53C3384.65 1593.2 3385.18 1595.34 3384.19 1599.06C3381.7 1601.27 3380.8 1601.42 3377.56 1601.62C3374.39 1601.41 3373.24 1601.18 3370.62 1599.25C3364.81 1587.62 3364.85 1574.35 3364.9 1561.65C3364.9 1560.4 3364.91 1559.15 3364.91 1557.86C3364.91 1554.56 3364.92 1551.26 3364.93 1547.96C3364.94 1544.58 3364.95 1541.2 3364.95 1537.82C3364.96 1531.21 3364.98 1524.61 3365 1518C3352.13 1518.33 3339.26 1518.66 3326 1519C3326.66 1521.97 3327.32 1524.94 3328 1528C3331.33 1549.01 3328.5 1571.39 3316 1589C3310.41 1596.47 3304.12 1601.58 3295 1604C3281.99 1605.32 3269.65 1604.91 3259.19 1596.37C3247.71 1585.24 3244.02 1569.97 3243.76 1554.4C3243.71 1541.72 3245.51 1530.21 3249 1518C3202.97 1518.49 3202.97 1518.49 3156 1519C3170.16 1529.43 3170.16 1529.43 3184.44 1539.69C3208.35 1556.98 3208.35 1556.98 3211.68 1569.57C3212.7 1576.39 3211.38 1581.34 3207.66 1587.06C3200.6 1596.18 3188.58 1600.73 3177.48 1602.69C3161.89 1604.66 3145.95 1603.9 3131 1599C3129.82 1598.61 3128.65 1598.23 3127.43 1597.83C3118.8 1594.74 3108.87 1591.04 3103.77 1582.93C3102.35 1579.39 3102.14 1575.71 3103 1572C3104.29 1570.26 3104.29 1570.26 3106 1569C3110.94 1568.43 3114.21 1568.41 3118.31 1571.53C3120.55 1573.48 3122.74 1575.49 3124.94 1577.5C3136.05 1587.57 3147.87 1589.52 3162.62 1589.37C3164.35 1589.39 3164.35 1589.39 3166.11 1589.41C3174.45 1589.38 3182.47 1588.96 3189.06 1583.44C3192.23 1579.45 3192.57 1577.12 3192 1572C3186.59 1559.82 3173.14 1552.6 3162.62 1545.25C3157.74 1541.83 3152.92 1538.34 3148.12 1534.81C3147.38 1534.27 3146.63 1533.72 3145.86 1533.16C3145.12 1532.62 3144.39 1532.08 3143.63 1531.52C3142.92 1531 3142.21 1530.48 3141.48 1529.95C3139 1528 3139 1528 3136.64 1525.73C3129.23 1518.8 3123.76 1517.71 3113.81 1517.89C3112.42 1517.88 3111.03 1517.87 3109.64 1517.85C3105.89 1517.82 3102.15 1517.85 3098.41 1517.89C3094.49 1517.91 3090.57 1517.89 3086.65 1517.87C3079.23 1517.85 3071.82 1517.87 3064.41 1517.91C3055.96 1517.95 3047.52 1517.94 3039.07 1517.92C3021.72 1517.89 3004.36 1517.92 2987 1518C2987.02 1519.4 2987.02 1519.4 2987.05 1520.82C2987.06 1522.06 2987.07 1523.3 2987.09 1524.57C2987.11 1526.4 2987.11 1526.4 2987.13 1528.27C2986.94 1533.68 2985.94 1538.93 2984 1544C2979.79 1546.1 2974.42 1545.38 2970 1544.19C2968 1543 2968 1543 2967 1540C2967.74 1538.19 2967.74 1538.19 2968.88 1536.12C2971.76 1529.91 2971.76 1529.91 2972 1518C2960.45 1518 2948.9 1518 2937 1518C2937 1529.26 2938.75 1534.55 2946.58 1542.67C2953.57 1549.4 2961.56 1554.32 2969.75 1559.44C2974.7 1562.54 2979.61 1565.66 2984.44 1568.94C2985.92 1569.94 2985.92 1569.94 2987.43 1570.96C2991.32 1574.05 2993.77 1576.45 2994.5 1581.44C2993.78 1586.59 2992.11 1589.37 2987.96 1592.57C2974.9 1601.04 2959.95 1603.18 2944.76 1600.41C2933.06 1596.74 2918.51 1585.47 2912 1575C2912.07 1571.28 2912.2 1568.95 2914.62 1566.06C2918.14 1564.49 2920.19 1564.26 2924 1565C2925.18 1566.51 2925.18 1566.51 2926.25 1568.5C2932.17 1579.32 2946.7 1585.23 2958 1589C2960.16 1589.12 2962.33 1589.17 2964.5 1589.19C2965.64 1589.2 2966.79 1589.22 2967.97 1589.23C2971.18 1589.24 2971.18 1589.24 2974 1587C2975.01 1585.19 2975.01 1585.19 2975 1583C2972.86 1578.39 2970.09 1576.44 2965.81 1573.81C2964.9 1573.24 2964.9 1573.24 2963.96 1572.65C2960.65 1570.59 2957.3 1568.58 2953.94 1566.58C2937.67 1556.81 2925.28 1546.35 2920.31 1527.37C2919.9 1524.27 2920 1521.13 2920 1518C2907.13 1518 2894.26 1518 2881 1518C2881 1522.62 2881 1527.24 2881 1532C2879.23 1540.79 2879.23 1540.79 2878 1544C2873.79 1546.1 2868.42 1545.38 2864 1544.19C2862 1543 2862 1543 2861 1540C2861.74 1538.19 2861.74 1538.19 2862.88 1536.12C2865.76 1529.91 2865.76 1529.91 2866 1518C2854.45 1518 2842.9 1518 2831 1518C2831 1529.26 2832.75 1534.55 2840.58 1542.67C2847.57 1549.4 2855.56 1554.32 2863.75 1559.44C2868.7 1562.54 2873.61 1565.66 2878.44 1568.94C2879.92 1569.94 2879.92 1569.94 2881.43 1570.96C2885.32 1574.05 2887.77 1576.45 2888.5 1581.44C2887.78 1586.59 2886.11 1589.37 2881.96 1592.57C2868.9 1601.04 2853.95 1603.18 2838.76 1600.41C2827.06 1596.74 2812.51 1585.47 2806 1575C2806.07 1571.28 2806.2 1568.95 2808.62 1566.06C2812.14 1564.49 2814.19 1564.26 2818 1565C2819.18 1566.51 2819.18 1566.51 2820.25 1568.5C2826.17 1579.32 2840.7 1585.23 2852 1589C2854.16 1589.12 2856.33 1589.17 2858.5 1589.19C2859.64 1589.2 2860.79 1589.22 2861.97 1589.23C2865.18 1589.24 2865.18 1589.24 2868 1587C2869.01 1585.19 2869.01 1585.19 2869 1583C2866.86 1578.39 2864.09 1576.44 2859.81 1573.81C2858.9 1573.24 2858.9 1573.24 2857.96 1572.65C2854.65 1570.59 2851.3 1568.58 2847.94 1566.58C2831.67 1556.81 2819.28 1546.35 2814.31 1527.37C2813.9 1524.27 2814 1521.13 2814 1518C2801.13 1518 2788.26 1518 2775 1518C2775 1521.3 2775 1524.6 2775 1528C2772.82 1538.62 2765.94 1547.96 2757 1554C2746.94 1559.64 2739.58 1561.83 2728 1561C2725.43 1560.25 2723.41 1559.23 2721 1558C2719.01 1557.63 2717.01 1557.29 2715 1557C2716.49 1573.28 2716.49 1573.28 2726 1586C2732.77 1588.26 2740.66 1588.07 2747.19 1585.12C2756.3 1579.89 2762.82 1571.3 2769 1563C2769.33 1562.67 2769.66 1562.34 2770 1562C2773.5 1562.31 2773.5 1562.31 2777 1563C2779.01 1567.03 2778.58 1571.63 2778 1576C2773.55 1587.16 2762.17 1592.2 2751.88 1596.84C2742.73 1600.53 2729.58 1600.83 2720.31 1597.44C2711.65 1593.1 2706.31 1587.08 2703 1578C2696.85 1558.64 2699.52 1537.19 2705 1518C2690.48 1518 2675.96 1518 2661 1518C2661.99 1521.96 2662.98 1525.92 2664 1530C2666.52 1544.57 2666.19 1559.66 2666.19 1574.4C2666.19 1577.48 2666.21 1580.57 2666.22 1583.66C2666.23 1585.62 2666.23 1587.59 2666.23 1589.56C2666.24 1590.94 2666.24 1590.94 2666.25 1592.35C2666.25 1593.19 2666.25 1594.04 2666.24 1594.91C2666.24 1595.66 2666.25 1596.4 2666.25 1597.17C2666 1599 2666 1599 2664 1601C2658.65 1601.44 2655.27 1601.61 2651 1598C2650.5 1594.87 2650.33 1592.27 2650.36 1589.14C2650.35 1588.26 2650.34 1587.37 2650.33 1586.46C2650.32 1584.56 2650.31 1582.66 2650.31 1580.76C2650.31 1575.85 2650.24 1570.93 2650.17 1566.02C2650.16 1564.57 2650.16 1564.57 2650.14 1563.1C2650.05 1555.72 2649.72 1548.41 2649.06 1541.06C2648.99 1540.19 2648.91 1539.31 2648.84 1538.41C2648.21 1531.85 2647.09 1525.53 2646 1519C2626.2 1518.5 2626.2 1518.5 2606 1518C2598.36 1540.91 2594.92 1561.45 2598.56 1585.39C2599.04 1589.37 2599.2 1592.99 2599 1597C2596.64 1599.36 2595.92 1599.37 2592.69 1599.5C2590.04 1599.44 2588.52 1599.36 2586.33 1597.83C2581.83 1592.69 2581.87 1587.54 2581.89 1581.01C2581.89 1580.32 2581.89 1579.64 2581.89 1578.94C2581.89 1576.69 2581.89 1574.44 2581.9 1572.2C2581.9 1570.64 2581.91 1569.07 2581.91 1567.51C2581.91 1563.41 2581.92 1559.31 2581.93 1555.21C2581.94 1550.28 2581.95 1545.35 2581.95 1540.43C2581.96 1532.95 2581.98 1525.48 2582 1518C2567.48 1518 2552.96 1518 2538 1518C2538.15 1530.02 2538.15 1530.02 2538.31 1542.04C2538.37 1546.95 2538.44 1551.86 2538.5 1556.77C2538.55 1560.73 2538.6 1564.69 2538.65 1568.65C2538.67 1570.15 2538.69 1571.66 2538.71 1573.16C2538.79 1580.58 2538.92 1587.92 2539.89 1595.28C2539.94 1596.13 2539.94 1596.13 2540 1597C2538.44 1598.56 2536.91 1598.24 2534.75 1598.31C2531.4 1598.26 2530.08 1598.04 2527.06 1596.37C2523.05 1591.75 2522.75 1586.83 2522.77 1580.89C2522.77 1580.21 2522.77 1579.53 2522.77 1578.82C2522.77 1576.58 2522.79 1574.34 2522.8 1572.1C2522.81 1570.54 2522.81 1568.98 2522.81 1567.42C2522.82 1563.33 2522.84 1559.23 2522.86 1555.14C2522.89 1550.22 2522.9 1545.3 2522.91 1540.38C2522.93 1532.92 2522.97 1525.46 2523 1518C2508.81 1518 2494.62 1518 2480 1518C2480 1522.62 2480 1527.24 2480 1532C2478.23 1540.79 2478.23 1540.79 2477 1544C2472.79 1546.1 2467.42 1545.38 2463 1544.19C2461 1543 2461 1543 2460 1540C2460.74 1538.19 2460.74 1538.19 2461.88 1536.12C2464.76 1529.91 2464.76 1529.91 2465 1518C2453.45 1518 2441.9 1518 2430 1518C2430 1529.26 2431.75 1534.55 2439.58 1542.67C2446.57 1549.4 2454.56 1554.32 2462.75 1559.44C2467.7 1562.54 2472.61 1565.66 2477.44 1568.94C2478.92 1569.94 2478.92 1569.94 2480.43 1570.96C2484.32 1574.05 2486.77 1576.45 2487.5 1581.44C2486.78 1586.59 2485.11 1589.37 2480.96 1592.57C2467.9 1601.04 2452.95 1603.18 2437.76 1600.41C2426.06 1596.74 2411.51 1585.47 2405 1575C2405.07 1571.28 2405.2 1568.95 2407.62 1566.06C2411.14 1564.49 2413.19 1564.26 2417 1565C2418.18 1566.51 2418.18 1566.51 2419.25 1568.5C2425.17 1579.32 2439.7 1585.23 2451 1589C2453.16 1589.12 2455.33 1589.17 2457.5 1589.19C2458.64 1589.2 2459.79 1589.22 2460.97 1589.23C2464.18 1589.24 2464.18 1589.24 2467 1587C2468.01 1585.19 2468.01 1585.19 2468 1583C2465.86 1578.39 2463.09 1576.44 2458.81 1573.81C2457.9 1573.24 2457.9 1573.24 2456.96 1572.65C2453.65 1570.59 2450.3 1568.58 2446.94 1566.58C2430.67 1556.81 2418.28 1546.35 2413.31 1527.37C2412.9 1524.27 2413 1521.13 2413 1518C2400.13 1518 2387.26 1518 2374 1518C2373.14 1533.1 2373.14 1533.1 2372.88 1548.19C2372.88 1549.57 2372.88 1549.57 2372.88 1550.98C2372.92 1557.67 2373.29 1564.29 2373.77 1570.97C2374.07 1575.69 2374.15 1580.4 2374.19 1585.12C2374.21 1586.32 2374.21 1586.32 2374.23 1587.53C2374.23 1592.08 2373.79 1595.74 2372 1600C2370.34 1601.66 2368.4 1601.21 2366.12 1601.25C2364.8 1601.29 2364.8 1601.29 2363.45 1601.33C2361 1601 2361 1601 2359.25 1599.71C2357.32 1597.07 2356.77 1594.15 2356 1591C2354.97 1591.71 2354.97 1591.71 2353.91 1592.43C2343.57 1599.27 2334.67 1602.95 2322 1601C2314.41 1597.84 2306.71 1591.86 2303.19 1584.25C2301.32 1579.58 2300.29 1575 2299.81 1570C2299.73 1569.2 2299.65 1568.4 2299.57 1567.57C2298.2 1551.16 2298.89 1534.42 2299 1518C2268.31 1518.49 2268.31 1518.49 2237 1519C2240.3 1519.99 2243.6 1520.98 2247 1522C2255.94 1525.9 2260.84 1531.5 2264.38 1540.5C2266.49 1552.32 2263.54 1561.59 2256.88 1571.46C2246.76 1585.14 2231.39 1592.1 2215 1595C2210.3 1595.41 2205.65 1595.48 2200.94 1595.44C2199.69 1595.43 2198.43 1595.43 2197.14 1595.43C2186.41 1595.27 2176.36 1593.7 2166 1591C2166.21 1592.09 2166.41 1593.19 2166.62 1594.31C2167 1598 2167 1598 2165 1601C2163.54 1600.91 2162.08 1600.8 2160.62 1600.69C2159.81 1600.63 2159 1600.57 2158.16 1600.51C2156 1600 2156 1600 2154 1597C2153.75 1595.21 2153.55 1593.42 2153.38 1591.62C2152.78 1587.45 2152.78 1587.45 2150.09 1584.41C2148.64 1583.65 2147.18 1582.91 2145.71 1582.19C2145.15 1581.8 2144.58 1581.4 2144 1581C2143.5 1577.19 2143.5 1577.19 2144 1574C2146.31 1573.01 2148.62 1572.02 2151 1571C2151.1 1565.07 2151.17 1559.15 2151.22 1553.22C2151.24 1551.2 2151.27 1549.19 2151.3 1547.17C2151.35 1544.27 2151.37 1541.38 2151.39 1538.48C2151.41 1537.58 2151.43 1536.67 2151.45 1535.74C2151.45 1533.42 2151.43 1531.28 2151 1529C2149.12 1527.06 2149.12 1527.06 2147 1526C2146.69 1522.87 2146.69 1522.87 2147 1520C2147.33 1519.67 2147.66 1519.34 2148 1519C2110.71 1519 2073.42 1519 2035 1519C2030.68 1545.14 2030.68 1545.14 2029.62 1571.02C2029.63 1572.72 2029.65 1574.42 2029.66 1576.12C2029.7 1580.47 2029.76 1584.82 2029.83 1589.18C2029.95 1596.21 2030.03 1603.25 2030.09 1610.28C2030.12 1612.7 2030.16 1615.11 2030.21 1617.53C2030.37 1628.29 2029.94 1638.57 2022.8 1647.22C2015.97 1653.98 2007.66 1658.33 1998.04 1658.47C1996.78 1658.45 1996.78 1658.45 1995.5 1658.44C1994.62 1658.43 1993.74 1658.42 1992.84 1658.42C1984.75 1658.22 1977.66 1656.69 1970 1654C1968.88 1653.63 1967.77 1653.25 1966.62 1652.87C1960.39 1650.56 1955.19 1648.09 1952 1642C1951.38 1638.48 1951.61 1636.83 1953.12 1633.62C1955 1632 1955 1632 1957.81 1631.25C1961 1632 1961 1632 1962.23 1633.66C1962.65 1634.35 1963.07 1635.04 1963.5 1635.75C1967.02 1640.91 1971.22 1641.98 1977.14 1643.37C1986.44 1644.88 1995.53 1645.61 2003.91 1640.68C2011.34 1634.7 2014.79 1625.2 2016 1616C2016.14 1613.14 2016.14 1610.3 2016.12 1607.44C2016.12 1606.26 2016.12 1606.26 2016.12 1605.06C2016.07 1598.34 2015.66 1591.69 2015 1585C2014.52 1585.45 2014.03 1585.89 2013.53 1586.36C2003.5 1595.4 1995.48 1599.53 1981.7 1599.31C1976.72 1598.89 1973.19 1597.65 1969 1595C1968.29 1594.56 1967.58 1594.13 1966.86 1593.68C1960.05 1589.06 1956.27 1583.46 1954.39 1575.44C1953.57 1570.36 1953.66 1565.25 1953.69 1560.12C1953.69 1558.93 1953.69 1557.74 1953.7 1556.51C1953.86 1542.86 1956.07 1531.1 1960 1518C1944.82 1518 1929.64 1518 1914 1518C1914.99 1521.96 1915.98 1525.92 1917 1530C1919.52 1544.57 1919.19 1559.66 1919.19 1574.4C1919.19 1577.48 1919.21 1580.57 1919.22 1583.66C1919.23 1585.62 1919.23 1587.59 1919.23 1589.56C1919.24 1590.48 1919.24 1591.4 1919.25 1592.35C1919.25 1593.19 1919.25 1594.04 1919.24 1594.91C1919.24 1595.66 1919.25 1596.4 1919.25 1597.17C1919 1599 1919 1599 1917 1601C1911.65 1601.44 1908.27 1601.61 1904 1598C1903.5 1594.87 1903.33 1592.27 1903.36 1589.14C1903.35 1588.26 1903.34 1587.37 1903.33 1586.46C1903.32 1584.56 1903.31 1582.66 1903.31 1580.76C1903.31 1575.85 1903.24 1570.93 1903.17 1566.02C1903.16 1565.05 1903.15 1564.09 1903.14 1563.1C1903.05 1555.72 1902.72 1548.41 1902.06 1541.06C1901.95 1539.75 1901.95 1539.75 1901.84 1538.41C1901.21 1531.85 1900.09 1525.53 1899 1519C1879.2 1518.5 1879.2 1518.5 1859 1518C1851.36 1540.91 1847.92 1561.45 1851.56 1585.39C1852.04 1589.37 1852.2 1592.99 1852 1597C1849.64 1599.36 1848.92 1599.37 1845.69 1599.5C1843.04 1599.44 1841.52 1599.36 1839.33 1597.83C1834.83 1592.69 1834.87 1587.54 1834.89 1581.01C1834.89 1580.32 1834.89 1579.64 1834.89 1578.94C1834.89 1576.69 1834.89 1574.44 1834.9 1572.2C1834.9 1570.64 1834.91 1569.07 1834.91 1567.51C1834.91 1563.41 1834.92 1559.31 1834.93 1555.21C1834.94 1550.28 1834.95 1545.35 1834.95 1540.43C1834.96 1532.95 1834.98 1525.48 1835 1518C1820.81 1518 1806.62 1518 1792 1518C1792.15 1530.02 1792.15 1530.02 1792.31 1542.04C1792.37 1546.95 1792.44 1551.86 1792.5 1556.77C1792.55 1560.73 1792.6 1564.69 1792.65 1568.65C1792.67 1570.15 1792.69 1571.66 1792.71 1573.16C1792.79 1580.58 1792.92 1587.92 1793.89 1595.28C1793.93 1595.85 1793.96 1596.41 1794 1597C1792.44 1598.56 1790.91 1598.24 1788.75 1598.31C1785.4 1598.26 1784.08 1598.04 1781.06 1596.37C1777.05 1591.75 1776.75 1586.83 1776.77 1580.89C1776.77 1580.21 1776.77 1579.53 1776.77 1578.82C1776.77 1576.58 1776.79 1574.34 1776.8 1572.1C1776.81 1570.54 1776.81 1568.98 1776.81 1567.42C1776.82 1563.33 1776.84 1559.23 1776.86 1555.14C1776.89 1550.22 1776.9 1545.3 1776.91 1540.38C1776.93 1532.92 1776.97 1525.46 1777 1518C1762.81 1518 1748.62 1518 1734 1518C1733.94 1525.93 1733.88 1533.86 1733.84 1541.79C1733.83 1545.49 1733.81 1549.18 1733.77 1552.88C1733.34 1573.67 1733.34 1573.67 1736.35 1594.15C1736.98 1596.89 1737.2 1599.2 1737 1602C1736 1603 1736 1603 1732.25 1603.31C1729.18 1603.25 1727.94 1602.97 1725.12 1601.5C1720.39 1595.93 1720.71 1588.95 1721 1582C1720.26 1582.65 1720.26 1582.65 1719.5 1583.32C1718.07 1584.57 1716.64 1585.81 1715.21 1587.06C1713.86 1588.24 1712.52 1589.44 1711.19 1590.66C1709.51 1592.18 1707.79 1593.61 1706 1595C1705.47 1595.42 1704.93 1595.83 1704.38 1596.26C1697.66 1600.52 1688.64 1600.17 1681 1599C1670.89 1595.86 1665.18 1590.26 1660.25 1581.19C1651.27 1561.85 1656.15 1537.52 1662 1518C1646.82 1518 1631.64 1518 1616 1518C1616.09 1554.06 1616.09 1554.06 1621.68 1589.53C1622.65 1593.2 1623.18 1595.34 1622.19 1599.06C1619.7 1601.27 1618.8 1601.42 1615.56 1601.62C1612.39 1601.41 1611.24 1601.18 1608.62 1599.25C1602.81 1587.62 1602.85 1574.35 1602.9 1561.65C1602.9 1559.77 1602.9 1559.77 1602.91 1557.86C1602.91 1554.56 1602.92 1551.26 1602.93 1547.96C1602.94 1544.58 1602.95 1541.2 1602.95 1537.82C1602.96 1531.21 1602.98 1524.61 1603 1518C1588.81 1518 1574.62 1518 1560 1518C1560.15 1530.02 1560.15 1530.02 1560.31 1542.04C1560.37 1546.95 1560.44 1551.86 1560.5 1556.77C1560.55 1560.73 1560.6 1564.69 1560.65 1568.65C1560.67 1570.15 1560.69 1571.66 1560.71 1573.16C1560.79 1580.58 1560.92 1587.92 1561.89 1595.28C1561.93 1595.85 1561.96 1596.41 1562 1597C1560.44 1598.56 1558.91 1598.24 1556.75 1598.31C1553.4 1598.26 1552.08 1598.04 1549.06 1596.37C1545.05 1591.75 1544.75 1586.83 1544.77 1580.89C1544.77 1580.21 1544.77 1579.53 1544.77 1578.82C1544.77 1576.58 1544.79 1574.34 1544.8 1572.1C1544.81 1570.54 1544.81 1568.98 1544.81 1567.42C1544.82 1563.33 1544.84 1559.23 1544.86 1555.14C1544.89 1550.22 1544.9 1545.3 1544.91 1540.38C1544.93 1532.92 1544.97 1525.46 1545 1518C1531.47 1518 1517.94 1518 1504 1518C1503.14 1533.1 1503.14 1533.1 1502.88 1548.19C1502.88 1549.11 1502.88 1550.03 1502.88 1550.98C1502.92 1557.67 1503.29 1564.29 1503.77 1570.97C1504.07 1575.69 1504.15 1580.4 1504.19 1585.12C1504.2 1585.92 1504.21 1586.71 1504.23 1587.53C1504.23 1592.08 1503.79 1595.74 1502 1600C1500.34 1601.66 1498.4 1601.21 1496.12 1601.25C1495.24 1601.28 1494.36 1601.3 1493.45 1601.33C1491 1601 1491 1601 1489.25 1599.71C1487.32 1597.07 1486.77 1594.15 1486 1591C1485.31 1591.47 1484.62 1591.94 1483.91 1592.43C1473.57 1599.27 1464.67 1602.95 1452 1601C1444.41 1597.84 1436.71 1591.86 1433.19 1584.25C1431.32 1579.58 1430.29 1575 1429.81 1570C1429.73 1569.2 1429.65 1568.4 1429.57 1567.57C1428.2 1551.16 1428.89 1534.42 1429 1518C1408.54 1518.33 1388.08 1518.66 1367 1519C1370.3 1519.99 1373.6 1520.98 1377 1522C1385.94 1525.9 1390.84 1531.5 1394.38 1540.5C1396.49 1552.32 1393.54 1561.59 1386.88 1571.46C1376.76 1585.14 1361.39 1592.1 1345 1595C1340.3 1595.41 1335.65 1595.48 1330.94 1595.44C1329.69 1595.43 1328.43 1595.43 1327.14 1595.43C1316.41 1595.27 1306.36 1593.7 1296 1591C1296.21 1592.09 1296.41 1593.19 1296.62 1594.31C1297 1598 1297 1598 1295 1601C1293.54 1600.91 1292.08 1600.8 1290.62 1600.69C1289.81 1600.63 1289 1600.57 1288.16 1600.51C1286 1600 1286 1600 1284 1597C1283.75 1595.21 1283.55 1593.42 1283.38 1591.62C1282.78 1587.45 1282.78 1587.45 1280.09 1584.41C1278.64 1583.65 1277.18 1582.91 1275.71 1582.19C1274.86 1581.6 1274.86 1581.6 1274 1581C1273.5 1577.19 1273.5 1577.19 1274 1574C1276.31 1573.01 1278.62 1572.02 1281 1571C1281.1 1565.07 1281.17 1559.15 1281.22 1553.22C1281.24 1551.2 1281.27 1549.19 1281.3 1547.17C1281.35 1544.27 1281.37 1541.38 1281.39 1538.48C1281.41 1537.58 1281.43 1536.67 1281.45 1535.74C1281.45 1533.42 1281.43 1531.28 1281 1529C1279.13 1527.05 1279.13 1527.05 1277 1526C1276.52 1522.69 1276.37 1520.86 1278.38 1518.12C1280 1517 1280 1517 1282 1517C1281.99 1515.87 1281.98 1514.75 1281.97 1513.59C1281.86 1502.96 1281.79 1492.34 1281.74 1481.72C1281.71 1476.25 1281.68 1470.79 1281.62 1465.33C1281.57 1460.06 1281.54 1454.79 1281.53 1449.52C1281.52 1447.51 1281.5 1445.5 1281.47 1443.49C1281.43 1440.67 1281.43 1437.85 1281.43 1435.03C1281.41 1433.79 1281.41 1433.79 1281.38 1432.52C1281.41 1428.38 1281.76 1425.77 1284.39 1422.48C1287 1420 1287 1420 1289.35 1419.24C1290.1 1419.26 1290.85 1419.29 1291.62 1419.31C1292.38 1419.31 1293.14 1419.3 1293.91 1419.3C1296 1420 1296 1420 1297.67 1422.1C1299.38 1425.83 1299.02 1428.01 1298.42 1432.05C1298.32 1432.71 1298.23 1433.37 1298.14 1434.05C1297.84 1436.14 1297.51 1438.22 1297.19 1440.31C1296.98 1441.73 1296.77 1443.16 1296.57 1444.58C1296.06 1448.06 1295.54 1451.53 1295 1455C1295.53 1454.04 1296.06 1453.08 1296.61 1452.09C1305.9 1435.38 1315.57 1421.08 1334.9 1415.45C1347.67 1412.73 1361.04 1414.34 1372.03 1421.28C1381.55 1428.45 1386.18 1440.45 1388.58 1451.73C1391.02 1470.77 1388.19 1488.54 1378 1505C1375.2 1508.55 1372.22 1511.83 1369 1515C1368.67 1515.33 1368.34 1515.66 1368 1516C1398.19 1516.49 1398.19 1516.49 1429 1517C1429 1507.1 1429 1497.2 1429 1487C1432.48 1483.52 1433.28 1483.55 1438 1483.5C1439.05 1483.47 1440.1 1483.44 1441.19 1483.41C1444 1484 1444 1484 1445.86 1485.95C1447.42 1490.13 1447.36 1493.83 1447.25 1498.25C1447.24 1499.06 1447.24 1499.87 1447.23 1500.7C1447.16 1506.24 1446.62 1511.42 1446 1517C1459.86 1517 1473.72 1517 1488 1517C1487.29 1507.23 1487.29 1507.23 1485 1499C1484.62 1496.14 1484.71 1493.93 1485 1491C1487.24 1488.67 1488.67 1488.05 1491.88 1487.57C1492.91 1487.56 1493.94 1487.56 1495 1487.56C1496.55 1487.53 1496.55 1487.53 1498.12 1487.5C1501.74 1488.13 1502.73 1489.16 1505 1492C1505.47 1494.53 1505.47 1494.53 1505.43 1497.35C1505.42 1498.37 1505.41 1499.38 1505.4 1500.43C1505.37 1501.48 1505.34 1502.54 1505.31 1503.62C1505.3 1504.69 1505.29 1505.75 1505.28 1506.84C1505.17 1514.66 1505.17 1514.66 1504 1517C1517.53 1517 1531.06 1517 1545 1517C1545 1507.43 1545 1497.86 1545 1488C1549.32 1485.84 1551.26 1485.59 1556 1486C1559.27 1487.36 1561.5 1488.5 1564 1491C1564.68 1499.08 1563.67 1509.66 1560 1517C1574.19 1517 1588.38 1517 1603 1517C1603.03 1502.26 1603.03 1502.26 1603.05 1487.52C1603.05 1481.49 1603.06 1475.47 1603.08 1469.45C1603.09 1464.58 1603.09 1459.72 1603.09 1454.86C1603.1 1453.01 1603.1 1451.17 1603.11 1449.33C1603.14 1438.5 1602.9 1427.79 1602 1417C1606.91 1413.94 1610.25 1412.93 1616 1414ZM1316.91 1442.43C1305.51 1457.29 1296.82 1475.16 1296.9 1494.15C1296.9 1494.81 1296.91 1495.46 1296.91 1496.14C1296.91 1498.22 1296.92 1500.3 1296.94 1502.37C1296.94 1503.79 1296.95 1505.21 1296.95 1506.63C1296.96 1510.09 1296.98 1513.54 1297 1517C1332.4 1518.25 1332.4 1518.25 1363 1503C1374.12 1490.7 1375.72 1473.91 1375 1458C1373.94 1447.06 1371.12 1437.72 1363 1430C1346.56 1418.26 1328.14 1429.37 1316.91 1442.43ZM2186.91 1442.43C2175.51 1457.29 2166.82 1475.16 2166.9 1494.15C2166.9 1494.81 2166.91 1495.46 2166.91 1496.14C2166.91 1498.22 2166.92 1500.3 2166.94 1502.37C2166.94 1503.79 2166.95 1505.21 2166.95 1506.63C2166.96 1510.09 2166.98 1513.54 2167 1517C2202.4 1518.25 2202.4 1518.25 2233 1503C2244.12 1490.7 2245.72 1473.91 2245 1458C2243.94 1447.06 2241.12 1437.72 2233 1430C2216.56 1418.26 2198.14 1429.37 2186.91 1442.43ZM2437.3 1497.16C2431.86 1506.51 2431.86 1506.51 2430 1517C2441.55 1517 2453.1 1517 2465 1517C2465 1507.84 2464.7 1500.7 2458 1494C2454.96 1492.15 2452.61 1491.7 2449.06 1491.69C2448.23 1491.67 2447.39 1491.65 2446.54 1491.64C2442.4 1492.23 2439.87 1493.89 2437.3 1497.16ZM2838.3 1497.16C2832.86 1506.51 2832.86 1506.51 2831 1517C2842.55 1517 2854.1 1517 2866 1517C2866 1507.84 2865.7 1500.7 2859 1494C2855.96 1492.15 2853.61 1491.7 2850.06 1491.69C2849.23 1491.67 2848.39 1491.65 2847.54 1491.64C2843.4 1492.23 2840.87 1493.89 2838.3 1497.16ZM2944.3 1497.16C2938.86 1506.51 2938.86 1506.51 2937 1517C2948.55 1517 2960.1 1517 2972 1517C2972 1507.84 2971.7 1500.7 2965 1494C2961.96 1492.15 2959.61 1491.7 2956.06 1491.69C2955.23 1491.67 2954.39 1491.65 2953.54 1491.64C2949.4 1492.23 2946.87 1493.89 2944.3 1497.16ZM3936.3 1497.16C3930.86 1506.51 3930.86 1506.51 3929 1517C3940.55 1517 3952.1 1517 3964 1517C3964 1507.84 3963.7 1500.7 3957 1494C3953.96 1492.15 3951.61 1491.7 3948.06 1491.69C3947.23 1491.67 3946.39 1491.65 3945.54 1491.64C3941.4 1492.23 3938.87 1493.89 3936.3 1497.16ZM1863 1511C1862.01 1512.98 1861.02 1514.96 1860 1517C1872.87 1517 1885.74 1517 1899 1517C1897.13 1508.57 1895.41 1501.87 1889.69 1495.37C1877.19 1488.98 1868.92 1501.65 1863 1511ZM1983.64 1499.36C1978.29 1507.67 1978.29 1507.67 1976 1517C1988.21 1517 2000.42 1517 2013 1517C2010.72 1506.72 2008.39 1501.15 2000 1495C1993.28 1491.64 1987.98 1493.72 1983.64 1499.36ZM2610 1511C2609.01 1512.98 2608.02 1514.96 2607 1517C2619.87 1517 2632.74 1517 2646 1517C2644.13 1508.57 2642.41 1501.87 2636.69 1495.37C2624.19 1488.98 2615.92 1501.65 2610 1511ZM3815 1511C3814.01 1512.98 3813.02 1514.96 3812 1517C3824.87 1517 3837.74 1517 3851 1517C3849.13 1508.57 3847.41 1501.87 3841.69 1495.37C3829.19 1488.98 3820.92 1501.65 3815 1511ZM1686.41 1501.99C1682.9 1506.96 1681.23 1511.06 1679 1517C1692.2 1517 1705.4 1517 1719 1517C1716.06 1508.18 1713.9 1503.55 1707.25 1497.5C1699.39 1493.87 1691.91 1495.11 1686.41 1501.99ZM2728 1502C2724.44 1506.93 2722.2 1511 2721 1517C2733.54 1517 2746.08 1517 2759 1517C2755.75 1506.17 2755.75 1506.17 2748.88 1498.06C2741.29 1495.26 2733.52 1495.81 2728 1502ZM3271.48 1506.97C3268.12 1511.57 3268.12 1511.57 3267 1517C3281.52 1517 3296.04 1517 3311 1517C3307.2 1505.24 3307.2 1505.24 3298.08 1497.66C3287.02 1494.15 3278.41 1498.49 3271.48 1506.97ZM3696.48 1506.97C3693.12 1511.57 3693.12 1511.57 3692 1517C3706.52 1517 3721.04 1517 3736 1517C3732.2 1505.24 3732.2 1505.24 3723.08 1497.66C3712.02 1494.15 3703.41 1498.49 3696.48 1506.97ZM1446 1518C1445.38 1529.75 1444.87 1541.48 1444.75 1553.25C1444.73 1554.27 1444.71 1555.29 1444.69 1556.35C1444.65 1565.14 1446.26 1572.89 1450.94 1580.44C1451.66 1581.64 1451.66 1581.64 1452.4 1582.87C1454.6 1585.79 1456.48 1587.72 1460.15 1588.4C1466.12 1588.34 1470.14 1587.56 1474.75 1583.44C1491.24 1566.38 1488.28 1539.63 1488 1518C1474.14 1518 1460.28 1518 1446 1518ZM1678 1518C1668.93 1549.99 1668.93 1549.99 1676.38 1581.56C1678.59 1584.7 1680.28 1586.71 1684 1588C1690.54 1588.91 1695.81 1588.56 1701.23 1584.6C1714.24 1572.85 1718.57 1552.74 1720 1536C1720.59 1526.87 1720.59 1526.87 1719 1518C1705.47 1518 1691.94 1518 1678 1518ZM1975 1518C1969.69 1536.59 1963.32 1563.43 1972.98 1581.88C1975.43 1585.79 1977.62 1588.54 1982 1590C1988.15 1590.76 1993.03 1590.41 1998.13 1586.72C2012.42 1573.56 2016.66 1551.54 2018.41 1533.01C2018.07 1527.61 2018.07 1527.61 2013 1518C2000.46 1518 1987.92 1518 1975 1518ZM2316 1518C2315.38 1529.75 2314.87 1541.48 2314.75 1553.25C2314.73 1554.27 2314.71 1555.29 2314.69 1556.35C2314.65 1565.14 2316.26 1572.89 2320.94 1580.44C2321.66 1581.64 2321.66 1581.64 2322.4 1582.87C2324.6 1585.79 2326.48 1587.72 2330.15 1588.4C2336.12 1588.34 2340.14 1587.56 2344.75 1583.44C2361.24 1566.38 2358.28 1539.63 2358 1518C2344.14 1518 2330.28 1518 2316 1518ZM2720 1518C2717.21 1530.4 2717.21 1530.4 2721 1542C2723.96 1545.2 2727.11 1547.82 2731.54 1548.24C2738.23 1548.4 2743.64 1548.31 2749 1544C2756.87 1535.92 2759 1529.39 2759 1518C2746.13 1518 2733.26 1518 2720 1518ZM3266 1518C3261.13 1529.37 3259.71 1538.78 3259.62 1551.06C3259.6 1552.69 3259.6 1552.69 3259.58 1554.36C3259.65 1566.03 3261.61 1578.36 3270 1587.07C3276.03 1592.53 3280.44 1593.49 3288.57 1593.4C3294.95 1592.66 3299.48 1589.76 3303.77 1585.05C3312.49 1573.07 3315.11 1558.77 3315.31 1544.31C3315.33 1543.54 3315.35 1542.76 3315.37 1541.96C3315.36 1533.52 3313.63 1526.69 3312 1518C3296.82 1518 3281.64 1518 3266 1518ZM3435 1518C3434.38 1529.75 3433.87 1541.48 3433.75 1553.25C3433.73 1554.27 3433.71 1555.29 3433.69 1556.35C3433.65 1565.14 3435.26 1572.89 3439.94 1580.44C3440.66 1581.64 3440.66 1581.64 3441.4 1582.87C3443.6 1585.79 3445.48 1587.72 3449.15 1588.4C3455.12 1588.34 3459.14 1587.56 3463.75 1583.44C3480.24 1566.38 3477.28 1539.63 3477 1518C3463.14 1518 3449.28 1518 3435 1518ZM3691 1518C3686.13 1529.37 3684.71 1538.78 3684.62 1551.06C3684.6 1552.69 3684.6 1552.69 3684.58 1554.36C3684.65 1566.03 3686.61 1578.36 3695 1587.07C3701.03 1592.53 3705.44 1593.49 3713.57 1593.4C3719.95 1592.66 3724.48 1589.76 3728.77 1585.05C3737.49 1573.07 3740.11 1558.77 3740.31 1544.31C3740.33 1543.54 3740.35 1542.76 3740.37 1541.96C3740.36 1533.52 3738.63 1526.69 3737 1518C3721.82 1518 3706.64 1518 3691 1518ZM1296 1529C1296 1544.84 1296 1560.68 1296 1577C1311.32 1584.66 1329.32 1587.19 1346.12 1582.44C1358.61 1577.73 1371.39 1571.07 1378.12 1559.06C1380.33 1554.04 1380.88 1549.41 1380 1544C1377.65 1538.3 1373.23 1535.39 1367.75 1532.94C1353.63 1527.79 1339.09 1527.57 1324.23 1527.72C1321.08 1527.75 1317.93 1527.76 1314.79 1527.77C1312.78 1527.77 1310.77 1527.78 1308.76 1527.8C1307.35 1527.8 1307.35 1527.8 1305.92 1527.81C1305.05 1527.82 1304.19 1527.83 1303.29 1527.84C1302.53 1527.85 1301.77 1527.85 1300.99 1527.86C1298.79 1527.93 1298.79 1527.93 1296 1529ZM2166 1529C2166 1544.84 2166 1560.68 2166 1577C2181.32 1584.66 2199.32 1587.19 2216.12 1582.44C2228.61 1577.73 2241.39 1571.07 2248.12 1559.06C2250.33 1554.04 2250.88 1549.41 2250 1544C2247.65 1538.3 2243.23 1535.39 2237.75 1532.94C2223.63 1527.79 2209.09 1527.57 2194.23 1527.72C2191.08 1527.75 2187.93 1527.76 2184.79 1527.77C2182.78 1527.77 2180.77 1527.78 2178.76 1527.8C2177.35 1527.8 2177.35 1527.8 2175.92 1527.81C2175.05 1527.82 2174.19 1527.83 2173.29 1527.84C2172.53 1527.85 2171.77 1527.85 2170.99 1527.86C2168.79 1527.93 2168.79 1527.93 2166 1529Z" fill="#666666"/>
<path d="M5133.25 842.5C5134.84 843.989 5136.43 845.49 5138 847C5138.94 847.878 5139.88 848.756 5140.85 849.66C5181.97 888.729 5200.48 951.714 5202.91 1006.82C5202.94 1008.21 5202.97 1009.61 5203 1011C5203.02 1011.93 5203.04 1012.87 5203.06 1013.83C5203.71 1048.17 5203.71 1048.17 5200 1063C5090.44 1063 4980.88 1063 4868 1063C4871.35 1109.97 4879.91 1149.62 4913 1184C4913.58 1184.64 4914.16 1185.29 4914.76 1185.95C4940.73 1213.94 4984 1224.62 5020.64 1226.15C5066.17 1227.35 5113.39 1221.73 5155.66 1203.88C5158 1203 5158 1203 5161 1203C5164.47 1215.18 5167.66 1227.41 5170.65 1239.71C5171.32 1242.49 5172.01 1245.26 5172.69 1248.04C5173.12 1249.82 5173.56 1251.59 5173.99 1253.37C5174.19 1254.2 5174.39 1255.02 5174.6 1255.87C5175.35 1258.98 5176 1261.79 5176 1265C5127.74 1287.71 5072.67 1295.26 5019.75 1295.19C5018.85 1295.19 5017.94 1295.19 5017.01 1295.18C5003.91 1295.16 4990.98 1294.98 4978 1293C4976.96 1292.85 4975.93 1292.7 4974.86 1292.54C4949.73 1288.8 4925.96 1281.92 4903 1271C4902.25 1270.64 4901.5 1270.29 4900.73 1269.92C4877.67 1258.76 4855.22 1241.92 4839 1222C4838.11 1220.95 4837.22 1219.89 4836.33 1218.84C4805.97 1182.43 4790.07 1136.76 4785 1090C4784.91 1089.18 4784.81 1088.35 4784.71 1087.51C4783.67 1077.04 4783.76 1066.51 4783.75 1056C4783.75 1054.98 4783.75 1053.95 4783.75 1052.9C4783.77 1036.42 4784.39 1020.3 4787 1004C4787.26 1002.38 4787.26 1002.38 4787.52 1000.73C4797.82 938.193 4826.7 877.001 4878.92 838.891C4952.04 786.702 5063.52 781.192 5133.25 842.5ZM4909.61 901.613C4887.68 927.538 4869 965.445 4869 1000C4951.5 1000 5034 1000 5119 1000C5119 959.264 5108.23 919.842 5079.31 890.25C5072.82 884.061 5065.8 879.384 5058 875C5057.23 874.54 5056.45 874.08 5055.66 873.606C5008.19 847.28 4944.94 863.055 4909.61 901.613Z" fill="#00405F"/>
<path d="M3512.19 844.563C3513.8 846.037 3515.4 847.516 3517 849C3517.89 849.809 3517.89 849.809 3518.8 850.633C3553.56 883.578 3570.71 934.831 3577 981C3577.18 982.262 3577.36 983.524 3577.54 984.824C3579.1 996.704 3579.31 1008.5 3579.26 1020.47C3579.25 1023.69 3579.26 1026.92 3579.27 1030.14C3579.27 1032.25 3579.27 1034.35 3579.27 1036.45C3579.27 1037.39 3579.27 1038.33 3579.28 1039.29C3579.22 1047.46 3578.11 1054.7 3577 1063C3467.11 1063 3357.22 1063 3244 1063C3248.82 1111.16 3257.58 1157.37 3295.88 1190.31C3341.66 1226.46 3398.33 1230.07 3454.39 1223.61C3480.25 1220.41 3507.06 1215.07 3530.93 1204.26C3534 1203 3534 1203 3538 1203C3539.96 1210.79 3541.91 1218.58 3543.87 1226.37C3544.77 1229.98 3545.68 1233.6 3546.59 1237.21C3547.47 1240.7 3548.34 1244.19 3549.22 1247.68C3549.55 1249.01 3549.89 1250.34 3550.22 1251.68C3550.69 1253.54 3551.16 1255.4 3551.62 1257.27C3551.89 1258.33 3552.16 1259.39 3552.43 1260.48C3553 1263 3553 1263 3553 1265C3478.7 1298.3 3377.66 1309.3 3300.4 1280.02C3246.33 1258.62 3204.29 1220.1 3181.04 1166.48C3167.08 1133.27 3161.59 1098.83 3160 1063C3159.96 1062.21 3159.93 1061.43 3159.89 1060.62C3159.71 1056.07 3159.8 1051.55 3160 1047C3160.04 1045.95 3160.08 1044.91 3160.12 1043.83C3162.88 979.071 3181.39 916.124 3225 867C3225.87 866.01 3226.74 865.02 3227.63 864C3232.46 858.573 3237.38 853.595 3243 849C3243.5 848.582 3243.99 848.164 3244.5 847.733C3315.26 787.989 3434.29 777.743 3512.19 844.563ZM3285.38 902.75C3262.01 929.637 3249.37 965.057 3245 1000C3327.5 1000 3410 1000 3495 1000C3495.28 984.813 3495.28 984.813 3493.81 969.938C3493.68 969.124 3493.55 968.31 3493.41 967.471C3489.03 942.137 3479.97 917.649 3463 898C3462.4 897.254 3461.8 896.508 3461.18 895.739C3444.78 876.039 3418.81 864.887 3393.68 862.211C3350.9 858.839 3314.98 871.432 3285.38 902.75Z" fill="#00405F"/>
<path d="M500.998 1047C501.406 1048.9 501.406 1048.9 501.822 1050.85C504.383 1062.82 506.946 1074.8 509.51 1086.77C511.145 1094.41 512.78 1102.04 514.412 1109.68C516.269 1118.36 518.127 1127.05 519.987 1135.73C520.146 1136.47 520.305 1137.22 520.469 1137.98C525.245 1160.28 530.071 1182.56 534.939 1204.84C536.176 1210.5 537.412 1216.17 538.645 1221.83C538.818 1222.62 538.99 1223.42 539.168 1224.23C539.858 1227.4 540.549 1230.57 541.239 1233.74C543.274 1243.09 545.318 1252.44 547.375 1261.78C548.67 1267.67 549.955 1273.55 551.232 1279.44C551.973 1282.85 552.719 1286.26 553.476 1289.67C554.297 1293.37 555.1 1297.08 555.9 1300.79C556.145 1301.87 556.391 1302.96 556.643 1304.08C556.854 1305.07 557.065 1306.07 557.282 1307.09C557.47 1307.95 557.658 1308.81 557.851 1309.69C558.071 1313.14 556.786 1315.08 554.59 1317.64C553.776 1318.45 553.776 1318.45 552.945 1319.26C552.327 1319.88 551.709 1320.49 551.072 1321.13C550.405 1321.78 549.737 1322.44 549.049 1323.11C548.013 1324.14 548.013 1324.14 546.956 1325.19C544.745 1327.38 542.529 1329.57 540.311 1331.75C538.112 1333.92 535.914 1336.09 533.72 1338.27C532.356 1339.62 530.989 1340.97 529.619 1342.32C526.55 1345.35 523.591 1348.43 520.787 1351.71C516.934 1356.14 512.843 1360.28 508.68 1364.42C507.879 1365.22 507.078 1366.02 506.253 1366.84C504.526 1368.56 502.799 1370.28 501.07 1372C498.331 1374.73 495.595 1377.46 492.86 1380.19C487.055 1385.98 481.246 1391.77 475.436 1397.56C468.697 1404.28 461.959 1410.99 455.226 1417.72C452.537 1420.4 449.845 1423.08 447.153 1425.76C445.498 1427.41 443.843 1429.06 442.188 1430.71C441.444 1431.45 440.701 1432.19 439.934 1432.95C439.238 1433.65 438.541 1434.34 437.824 1435.06C436.823 1436.05 436.823 1436.05 435.801 1437.05C433.964 1438.93 433.964 1438.93 432.667 1441.04C430.475 1444.35 429.047 1445.78 425.081 1446.61C421.225 1446.87 417.407 1446.87 413.548 1446.79C412.069 1446.79 410.59 1446.79 409.112 1446.8C405.107 1446.8 401.105 1446.76 397.101 1446.71C392.913 1446.67 388.725 1446.66 384.537 1446.65C376.61 1446.63 368.685 1446.57 360.759 1446.5C351.734 1446.43 342.708 1446.39 333.683 1446.35C315.121 1446.28 296.56 1446.16 277.998 1446C277.928 1420.5 277.875 1395.01 277.843 1369.51C277.828 1357.67 277.807 1345.82 277.772 1333.98C277.742 1323.65 277.723 1313.32 277.716 1302.98C277.712 1297.52 277.703 1292.06 277.681 1286.6C277.501 1240.28 278.107 1195.34 311.998 1160C312.733 1159.2 313.468 1158.4 314.225 1157.58C327.098 1144.04 343.108 1134.55 358.998 1125C360.993 1123.79 362.988 1122.58 364.983 1121.37C401.301 1099.4 438.365 1078.69 476.043 1059.14C480.275 1056.95 484.499 1054.74 488.694 1052.48C489.397 1052.1 490.101 1051.72 490.826 1051.33C492.106 1050.63 493.385 1049.93 494.661 1049.23C498.781 1047 498.781 1047 500.998 1047Z" fill="#00405F"/>
<path d="M1178.92 1162.76C1180.55 1162.75 1182.18 1162.74 1183.82 1162.72C1186.25 1162.69 1188.68 1162.68 1191.11 1162.67C1191.84 1162.66 1192.56 1162.65 1193.31 1162.63C1197.72 1162.65 1200.49 1163.29 1204 1166C1210.97 1175.71 1207.91 1189.42 1207.32 1200.7C1207.19 1203.17 1207.07 1205.65 1206.94 1208.12C1206.72 1212.56 1206.49 1217 1206.27 1221.44C1205.84 1229.69 1205.43 1237.94 1205.01 1246.2C1204.97 1247.1 1204.92 1248 1204.87 1248.93C1204.31 1260.2 1203.8 1271.47 1203.39 1282.74C1203.35 1283.87 1203.31 1285.01 1203.27 1286.17C1203.09 1291.23 1202.92 1296.28 1202.77 1301.34C1202.71 1303.08 1202.65 1304.82 1202.59 1306.57C1202.57 1307.69 1202.57 1307.69 1202.54 1308.84C1202.32 1314.71 1201.17 1320.4 1197.32 1325.02C1196.74 1325.47 1196.16 1325.92 1195.56 1326.38C1194.99 1326.84 1194.41 1327.3 1193.82 1327.77C1189.98 1330.36 1186.89 1331.58 1182.14 1331.44C1176.6 1330.31 1172.6 1325.84 1169.11 1321.64C1164.1 1315.84 1158.64 1310.49 1153.21 1305.08C1151.37 1303.24 1149.53 1301.4 1147.7 1299.56C1146.51 1298.38 1145.33 1297.2 1144.15 1296.02C1143.61 1295.47 1143.06 1294.93 1142.5 1294.36C1139.48 1291.36 1136.39 1288.6 1133 1286C1130.18 1287.28 1128.13 1288.62 1125.95 1290.81C1125.37 1291.38 1124.79 1291.95 1124.2 1292.54C1123.58 1293.16 1122.96 1293.79 1122.32 1294.43C1121.66 1295.09 1121 1295.76 1120.32 1296.44C1118.13 1298.62 1115.94 1300.81 1113.76 1303.01C1112.24 1304.53 1110.71 1306.06 1109.19 1307.58C1105.99 1310.78 1102.8 1313.99 1099.6 1317.19C1095.53 1321.29 1091.44 1325.37 1087.36 1329.46C1084.21 1332.61 1081.06 1335.76 1077.91 1338.92C1076.41 1340.43 1074.9 1341.93 1073.4 1343.44C1071.28 1345.55 1069.17 1347.67 1067.07 1349.79C1066.14 1350.71 1066.14 1350.71 1065.21 1351.65C1062.22 1354.66 1059.35 1357.72 1056.58 1360.93C1052.81 1365.28 1048.78 1369.34 1044.7 1373.4C1043.5 1374.6 1043.5 1374.6 1042.28 1375.82C1040.55 1377.54 1038.83 1379.26 1037.1 1380.97C1034.37 1383.7 1031.64 1386.42 1028.9 1389.15C1022.61 1395.43 1016.32 1401.7 1010.02 1407.97C1003.79 1414.19 997.553 1420.4 991.323 1426.62C988.64 1429.3 985.954 1431.97 983.268 1434.64C981.613 1436.3 979.958 1437.95 978.303 1439.6C977.193 1440.7 977.193 1440.7 976.06 1441.83C972.758 1445.13 969.551 1448.46 966.5 1452C962.76 1456.34 958.758 1460.37 954.697 1464.4C953.898 1465.2 953.099 1466 952.275 1466.82C950.552 1468.54 948.828 1470.26 947.103 1471.97C944.367 1474.7 941.635 1477.42 938.904 1480.15C932.614 1486.43 926.319 1492.7 920.024 1498.97C913.787 1505.19 907.553 1511.4 901.323 1517.62C898.64 1520.3 895.954 1522.97 893.268 1525.64C891.613 1527.3 889.958 1528.95 888.303 1530.6C887.563 1531.33 886.823 1532.07 886.06 1532.83C882.062 1536.82 878.256 1540.92 874.564 1545.21C872.525 1547.55 870.382 1549.77 868.201 1551.98C867.327 1552.86 866.452 1553.75 865.551 1554.67C864.167 1556.06 864.167 1556.06 862.754 1557.48C862.274 1557.97 861.794 1558.45 861.299 1558.95C858.764 1561.51 856.226 1564.06 853.685 1566.61C851.08 1569.23 848.487 1571.85 845.896 1574.48C843.882 1576.52 841.86 1578.56 839.835 1580.58C838.412 1582.01 837 1583.45 835.588 1584.89C827.927 1592.53 821.295 1596.84 810.312 1597.25C801.78 1597.14 794.38 1594.71 788 1589C786.915 1587.8 785.851 1586.58 784.806 1585.34C780.987 1580.93 776.93 1576.8 772.789 1572.69C771.999 1571.9 771.21 1571.12 770.396 1570.3C768.695 1568.61 766.992 1566.91 765.288 1565.21C762.586 1562.52 759.888 1559.83 757.19 1557.14C751.463 1551.42 745.732 1545.71 740 1540C733.354 1533.38 726.71 1526.75 720.07 1520.13C717.421 1517.48 714.768 1514.84 712.116 1512.2C710.481 1510.57 708.846 1508.94 707.211 1507.31C706.48 1506.58 705.75 1505.86 704.997 1505.11C701.057 1501.17 697.32 1497.13 693.682 1492.91C691.02 1489.89 688.185 1487.05 685.33 1484.22C684.392 1483.28 684.392 1483.28 683.436 1482.32C681.398 1480.29 679.357 1478.25 677.316 1476.22C675.891 1474.8 674.466 1473.37 673.042 1471.95C669.314 1468.22 665.583 1464.5 661.851 1460.78C658.035 1456.98 654.222 1453.17 650.408 1449.36C642.942 1441.9 635.472 1434.45 628 1427C623.718 1428.66 620.854 1431.87 617.69 1435.07C617.067 1435.69 616.444 1436.31 615.801 1436.95C613.742 1439.01 611.689 1441.07 609.637 1443.13C608.202 1444.57 606.767 1446 605.332 1447.44C602.322 1450.45 599.316 1453.47 596.312 1456.48C592.477 1460.33 588.636 1464.18 584.793 1468.02C581.826 1470.99 578.863 1473.96 575.9 1476.93C574.486 1478.34 573.071 1479.76 571.656 1481.18C562.498 1490.31 562.498 1490.31 553.845 1499.92C549.106 1505.26 543.973 1510.26 538.945 1515.33C538.323 1515.96 537.701 1516.58 537.06 1517.23C533.772 1520.54 530.48 1523.86 527.186 1527.16C524.475 1529.89 521.772 1532.62 519.075 1535.36C515.797 1538.68 512.507 1542 509.208 1545.31C507.961 1546.56 506.718 1547.82 505.479 1549.08C490.423 1564.41 490.423 1564.41 478.621 1564.56C477.921 1564.54 477.221 1564.52 476.5 1564.5C475.758 1564.49 475.016 1564.47 474.252 1564.46C463.111 1564.03 456.65 1558.87 449 1551C441.635 1542.75 439.712 1535.74 439.406 1524.76C440.854 1515.59 446.158 1509.12 452.68 1502.87C453.776 1501.79 453.776 1501.79 454.895 1500.68C457.21 1498.4 459.541 1496.14 461.875 1493.88C464.198 1491.6 466.517 1489.33 468.834 1487.05C470.269 1485.64 471.708 1484.23 473.151 1482.83C473.815 1482.19 474.479 1481.54 475.164 1480.87C475.737 1480.31 476.31 1479.76 476.901 1479.19C478.746 1477.26 480.482 1475.3 482.221 1473.28C486.065 1468.86 490.148 1464.73 494.303 1460.6C495.102 1459.8 495.901 1459 496.725 1458.18C498.448 1456.46 500.172 1454.74 501.897 1453.03C504.633 1450.31 507.365 1447.58 510.096 1444.85C516.386 1438.58 522.681 1432.3 528.976 1426.03C535.213 1419.81 541.447 1413.6 547.677 1407.38C550.36 1404.7 553.046 1402.03 555.732 1399.36C557.387 1397.7 559.042 1396.05 560.697 1394.4C561.807 1393.3 561.807 1393.3 562.94 1392.17C566.93 1388.18 570.747 1384.1 574.416 1379.82C577.216 1376.61 580.219 1373.6 583.219 1370.58C583.88 1369.91 584.542 1369.24 585.224 1368.56C586.61 1367.16 587.999 1365.77 589.388 1364.37C591.502 1362.25 593.604 1360.11 595.707 1357.98C597.064 1356.62 598.422 1355.25 599.781 1353.89C600.401 1353.26 601.021 1352.63 601.66 1351.97C609.449 1344.23 616.174 1341.68 627.149 1341.69C638.584 1341.94 645.239 1347.1 653 1355C654.745 1356.84 656.475 1358.69 658.203 1360.55C667.029 1370.03 676.112 1379.23 685.293 1388.37C687.891 1390.95 690.485 1393.54 693.078 1396.13C698.57 1401.61 704.066 1407.09 709.562 1412.56C715.972 1418.95 722.38 1425.34 728.784 1431.73C731.327 1434.27 733.874 1436.8 736.42 1439.33C737.985 1440.89 739.55 1442.46 741.115 1444.02C741.813 1444.71 742.511 1445.4 743.23 1446.12C747.112 1450 750.788 1453.99 754.374 1458.15C756.674 1460.77 759.099 1463.22 761.568 1465.68C762.33 1466.44 762.33 1466.44 763.108 1467.22C764.756 1468.87 766.407 1470.51 768.059 1472.16C769.215 1473.31 770.371 1474.47 771.526 1475.62C774.544 1478.63 777.565 1481.64 780.586 1484.65C783.678 1487.74 786.768 1490.82 789.857 1493.91C795.902 1499.94 801.95 1505.97 808 1512C813.097 1507.73 817.876 1503.27 822.568 1498.56C823.29 1497.84 824.011 1497.12 824.754 1496.38C827.12 1494.02 829.482 1491.65 831.844 1489.29C833.498 1487.64 835.153 1485.98 836.808 1484.33C840.269 1480.87 843.729 1477.41 847.187 1473.94C851.605 1469.52 856.028 1465.1 860.451 1460.68C863.868 1457.27 867.282 1453.86 870.695 1450.44C872.324 1448.81 873.954 1447.18 875.584 1445.55C877.869 1443.27 880.151 1440.98 882.432 1438.7C883.429 1437.7 883.429 1437.7 884.447 1436.69C887.564 1433.56 890.574 1430.38 893.46 1427.04C897.188 1422.73 901.167 1418.71 905.211 1414.69C906.001 1413.9 906.79 1413.12 907.604 1412.3C909.305 1410.61 911.008 1408.91 912.712 1407.21C915.414 1404.52 918.112 1401.83 920.81 1399.14C927.023 1392.94 933.24 1386.74 939.458 1380.55C945.618 1374.41 951.775 1368.27 957.93 1362.13C960.579 1359.48 963.232 1356.84 965.884 1354.2C967.519 1352.57 969.154 1350.94 970.789 1349.31C971.52 1348.58 972.25 1347.86 973.003 1347.11C976.283 1343.83 979.464 1340.52 982.494 1337.01C986.236 1332.67 990.24 1328.63 994.303 1324.6C995.502 1323.4 995.502 1323.4 996.725 1322.18C998.448 1320.46 1000.17 1318.74 1001.9 1317.03C1004.63 1314.31 1007.36 1311.58 1010.1 1308.85C1016.39 1302.58 1022.68 1296.3 1028.98 1290.03C1035.21 1283.81 1041.45 1277.6 1047.68 1271.38C1050.36 1268.7 1053.05 1266.03 1055.73 1263.36C1057.39 1261.7 1059.04 1260.05 1060.7 1258.4C1061.81 1257.3 1061.81 1257.3 1062.94 1256.17C1066.95 1252.16 1070.79 1248.06 1074.47 1243.75C1076.54 1241.38 1078.74 1239.19 1081 1237C1079.42 1233.15 1076.97 1230.75 1074.02 1227.86C1073.53 1227.37 1073.04 1226.89 1072.53 1226.39C1070.96 1224.84 1069.39 1223.29 1067.81 1221.75C1065.75 1219.73 1063.7 1217.7 1061.64 1215.67C1061.15 1215.18 1060.65 1214.69 1060.14 1214.18C1056.76 1210.82 1053.57 1207.33 1050.48 1203.7C1047.57 1200.36 1044.32 1197.36 1041.14 1194.3C1038.11 1191.05 1037.1 1189.04 1036.69 1184.63C1037.16 1179.17 1038.85 1176.23 1042.56 1172.25C1050.65 1166.11 1063.62 1167.42 1073.34 1166.97C1075.04 1166.88 1076.73 1166.8 1078.43 1166.71C1082.88 1166.49 1087.34 1166.28 1091.79 1166.07C1095.36 1165.9 1098.92 1165.72 1102.48 1165.54C1157.47 1162.81 1157.47 1162.81 1178.92 1162.76Z" fill="#FF4F3F"/>
<path d="M3100 828C3098.61 835.786 3096.59 843.314 3094.38 850.902C3094.03 852.102 3093.68 853.301 3093.32 854.537C3092.41 857.695 3091.48 860.851 3090.56 864.008C3089.81 866.59 3089.06 869.174 3088.32 871.758C3087.43 874.849 3086.53 877.938 3085.63 881.027C3085.13 882.762 3085.13 882.762 3084.61 884.531C3084.14 886.134 3084.14 886.134 3083.66 887.769C3083.39 888.71 3083.12 889.65 3082.83 890.618C3082 893 3082 893 3080 896C3079.24 895.638 3079.24 895.638 3078.47 895.269C3030.33 872.518 2971.57 865.274 2920.49 882.864C2889.41 894.059 2861.77 913.752 2844 942C2843.59 942.644 2843.17 943.287 2842.75 943.951C2828.58 966.225 2820.3 991.051 2816 1017C2815.82 1018.03 2815.82 1018.03 2815.64 1019.08C2808.38 1062.97 2816.09 1109.94 2837 1149C2837.85 1150.59 2837.85 1150.59 2838.71 1152.21C2858.52 1187.68 2892.46 1210.86 2930.87 1222.16C2943.53 1225.56 2956.89 1227.61 2970 1228C2971.14 1228.04 2972.28 1228.08 2973.46 1228.12C3009.36 1228.75 3043.38 1221.04 3076.58 1207.84C3079.04 1206.99 3081.44 1206.49 3084 1206C3085.83 1214.01 3087.66 1222.03 3089.48 1230.04C3090.32 1233.77 3091.17 1237.49 3092.02 1241.21C3092.84 1244.8 3093.66 1248.39 3094.47 1251.99C3094.78 1253.36 3095.09 1254.73 3095.41 1256.09C3095.85 1258.01 3096.28 1259.93 3096.71 1261.85C3096.96 1262.95 3097.21 1264.04 3097.47 1265.17C3098 1268 3098 1268 3098 1272C3027.39 1303.39 2939.11 1310.48 2866.1 1282.9C2840.89 1272.96 2818.09 1259.35 2798.14 1240.95C2796.41 1239.37 2794.65 1237.89 2792.81 1236.44C2789.14 1233.26 2786.13 1229.7 2783 1226C2782.19 1225.08 2781.37 1224.17 2780.53 1223.23C2744.4 1182.31 2725.06 1124.72 2724.8 1070.44C2724.79 1068.97 2724.79 1068.97 2724.78 1067.46C2724.76 1064.31 2724.75 1061.15 2724.75 1058C2724.75 1056.92 2724.75 1055.84 2724.75 1054.73C2724.76 1038.63 2725.16 1022.89 2728 1007C2728.18 1005.99 2728.35 1004.98 2728.54 1003.95C2738.82 947.066 2767.05 893.053 2813 857C2813.95 856.221 2814.9 855.443 2815.88 854.641C2829.88 843.409 2845.71 834.481 2862 827C2863.07 826.506 2863.07 826.506 2864.16 826.001C2891.7 813.461 2921 807.041 2951 804C2952.93 803.801 2952.93 803.801 2954.89 803.598C3003.23 799.566 3056.27 806.215 3100 828Z" fill="#00405F"/>
<path d="M739 1047C743.28 1048.39 747.16 1049.98 751.156 1052.05C752.019 1052.5 752.019 1052.5 752.899 1052.96C754.768 1053.92 756.634 1054.9 758.5 1055.88C759.812 1056.56 761.125 1057.24 762.437 1057.92C772.714 1063.28 782.914 1068.77 793.058 1074.38C795.718 1075.84 798.381 1077.31 801.046 1078.77C828.07 1093.57 854.763 1108.84 881 1125C881.927 1125.57 882.855 1126.13 883.81 1126.72C917.755 1147.51 946.667 1172.42 956.406 1212.61C959.177 1224.77 961.094 1236.9 961.766 1249.35C962.011 1252.12 962.516 1254.75 963.062 1257.47C964.12 1264.23 964.829 1270.75 960.849 1276.73C954.803 1284.49 947.352 1291.17 939.909 1297.56C936.973 1300.1 934.329 1302.7 931.814 1305.66C927.961 1310.11 923.868 1314.26 919.697 1318.4C918.898 1319.2 918.099 1320 917.275 1320.82C915.552 1322.54 913.828 1324.26 912.103 1325.97C909.367 1328.7 906.635 1331.42 903.904 1334.15C897.614 1340.42 891.319 1346.7 885.024 1352.97C878.787 1359.19 872.553 1365.4 866.323 1371.62C863.64 1374.3 860.954 1376.97 858.268 1379.64C856.613 1381.3 854.958 1382.95 853.303 1384.6C852.193 1385.7 852.193 1385.7 851.06 1386.83C847.07 1390.82 843.253 1394.9 839.586 1399.19C836.789 1402.38 833.768 1405.35 830.754 1408.34C829.77 1409.33 829.77 1409.33 828.766 1410.33C826.701 1412.39 824.632 1414.44 822.562 1416.5C821.149 1417.91 819.735 1419.32 818.322 1420.73C814.884 1424.15 811.443 1427.58 808 1431C803.04 1426.84 798.368 1422.51 793.799 1417.93C793.117 1417.25 792.434 1416.57 791.731 1415.87C789.495 1413.63 787.263 1411.4 785.031 1409.16C783.466 1407.6 781.901 1406.04 780.336 1404.47C777.063 1401.2 773.792 1397.93 770.522 1394.65C766.346 1390.47 762.166 1386.29 757.984 1382.12C754.753 1378.89 751.524 1375.66 748.296 1372.43C746.757 1370.89 745.216 1369.35 743.675 1367.81C741.515 1365.65 739.358 1363.49 737.201 1361.33C736.573 1360.7 735.946 1360.08 735.299 1359.43C731.562 1355.68 728.037 1351.79 724.572 1347.79C722.712 1345.67 720.751 1343.71 718.701 1341.78C717.938 1341.05 717.174 1340.33 716.388 1339.58C715.589 1338.83 714.791 1338.07 713.969 1337.29C712.254 1335.64 710.54 1333.98 708.828 1332.33C706.158 1329.74 703.482 1327.17 700.775 1324.63C698.145 1322.15 695.555 1319.63 692.969 1317.11C692.154 1316.36 691.34 1315.61 690.501 1314.83C689.763 1314.1 689.024 1313.37 688.264 1312.61C687.607 1311.98 686.951 1311.36 686.275 1310.71C682.745 1303.2 686.834 1292.18 688.502 1284.43C688.759 1283.21 689.015 1282 689.279 1280.75C689.983 1277.42 690.692 1274.09 691.404 1270.76C692.167 1267.18 692.922 1263.61 693.679 1260.03C695.145 1253.1 696.619 1246.18 698.094 1239.25C699.798 1231.26 701.494 1223.26 703.189 1215.26C706.959 1197.49 710.74 1179.71 714.523 1161.94C716.093 1154.56 717.661 1147.19 719.229 1139.81C725.808 1108.87 732.396 1077.93 739 1047Z" fill="#00405F"/>
<path d="M3661 588C3689.38 588 3717.76 588 3747 588C3747 818.01 3747 1048.02 3747 1285C3718.62 1285 3690.24 1285 3661 1285C3661 1054.99 3661 824.98 3661 588Z" fill="#00405F"/>
<path d="M3846 810C3874.71 810 3903.42 810 3933 810C3933 966.75 3933 1123.5 3933 1285C3904.29 1285 3875.58 1285 3846 1285C3846 1128.25 3846 971.5 3846 810Z" fill="#00405F"/>
<path d="M657.371 1058.82C664.364 1065.17 667.056 1071.95 667.52 1081.26C667.932 1103.85 656.439 1124.77 643.523 1142.7C641.371 1145.95 639.89 1148.57 640.195 1152.55C640.406 1153.45 640.616 1154.36 640.833 1155.29C641.186 1156.87 641.186 1156.87 641.547 1158.47C641.819 1159.61 642.091 1160.75 642.371 1161.92C642.647 1163.13 642.923 1164.34 643.208 1165.59C643.968 1168.9 644.742 1172.22 645.521 1175.53C646.337 1179.01 647.137 1182.5 647.938 1185.99C649.462 1192.61 651.001 1199.23 652.545 1205.85C654.626 1214.77 656.687 1223.69 658.747 1232.62C659.247 1234.78 659.747 1236.95 660.247 1239.11C660.41 1239.82 660.572 1240.52 660.74 1241.25C661.846 1246.04 662.959 1250.83 664.074 1255.61C667.198 1269.05 670.246 1282.48 673 1296C669.573 1294.67 666.684 1293.22 663.625 1291.19C648.995 1282.35 627.879 1277.64 611 1281C592.984 1285.59 579.657 1295.79 566 1308C564.992 1304.85 565.043 1302.82 565.837 1299.63C566.048 1298.76 566.26 1297.88 566.477 1296.99C566.718 1296.04 566.958 1295.09 567.206 1294.11C567.453 1293.11 567.7 1292.1 567.955 1291.07C568.78 1287.72 569.618 1284.37 570.457 1281.02C571.04 1278.66 571.623 1276.3 572.205 1273.94C573.75 1267.69 575.306 1261.43 576.864 1255.18C578.406 1248.99 579.94 1242.79 581.474 1236.6C581.923 1234.78 581.923 1234.78 582.381 1232.93C582.982 1230.51 583.584 1228.08 584.185 1225.65C584.782 1223.23 585.38 1220.82 585.978 1218.4C589.765 1203.1 593.543 1187.8 597.225 1172.47C597.661 1170.66 598.099 1168.85 598.538 1167.04C599.135 1164.58 599.724 1162.12 600.311 1159.66C600.484 1158.95 600.658 1158.24 600.837 1157.51C602.543 1150.41 602.543 1150.41 600.128 1143.83C599.281 1142.63 598.425 1141.44 597.562 1140.25C584.269 1121.07 573.942 1099.86 576 1076C577.533 1068.78 581.306 1062.69 587 1058C607.518 1044.71 637.504 1043.6 657.371 1058.82Z" fill="#00405F"/>
<path d="M3920.5 632.781C3932.1 642.341 3938.32 656.279 3940 671C3941.26 685.941 3937.13 701.151 3927.67 712.89C3916.46 724.664 3903.53 729.987 3887.42 730.473C3871.19 730.617 3858.49 726.989 3846.25 715.812C3834.83 703.49 3831.01 688.001 3831.62 671.629C3832.53 657.608 3838.62 644.549 3849 635C3870.45 619.085 3898.1 616.825 3920.5 632.781Z" fill="#FF4F3F"/>
<path d="M3631.3 1440.57C3635.04 1441.16 3637.24 1442.45 3640 1445C3642.56 1449.21 3642.67 1453.19 3642 1458C3640.62 1460.56 3640.62 1460.56 3638 1462C3632.97 1462.82 3629.15 1462.57 3624.56 1460.31C3620.76 1456.88 3619.2 1454.63 3618.56 1449.5C3619 1446 3619 1446 3620.31 1443.06C3623.99 1440.24 3626.76 1440.36 3631.3 1440.57Z" fill="#666666"/>
<path d="M2536.3 1440.57C2540.04 1441.16 2542.24 1442.45 2545 1445C2547.56 1449.21 2547.67 1453.19 2547 1458C2545.62 1460.56 2545.62 1460.56 2543 1462C2537.97 1462.82 2534.15 1462.57 2529.56 1460.31C2525.76 1456.88 2524.2 1454.63 2523.56 1449.5C2524 1446 2524 1446 2525.31 1443.06C2528.99 1440.24 2531.76 1440.36 2536.3 1440.57Z" fill="#666666"/>
<path d="M1790.3 1440.57C1794.04 1441.16 1796.24 1442.45 1799 1445C1801.56 1449.21 1801.67 1453.19 1801 1458C1799.62 1460.56 1799.62 1460.56 1797 1462C1791.97 1462.82 1788.15 1462.57 1783.56 1460.31C1779.76 1456.88 1778.2 1454.63 1777.56 1449.5C1778 1446 1778 1446 1779.31 1443.06C1782.99 1440.24 1785.76 1440.36 1790.3 1440.57Z" fill="#666666"/>
<path d="M1558.3 1440.57C1562.04 1441.16 1564.24 1442.45 1567 1445C1569.56 1449.21 1569.67 1453.19 1569 1458C1567.62 1460.56 1567.62 1460.56 1565 1462C1559.97 1462.82 1556.15 1462.57 1551.56 1460.31C1547.76 1456.88 1546.2 1454.63 1545.56 1449.5C1546 1446 1546 1446 1547.31 1443.06C1550.99 1440.24 1553.76 1440.36 1558.3 1440.57Z" fill="#666666"/>
</svg>
