<svg width="1024" height="1024" viewBox="0 0 1024 1024" fill="none" xmlns="http://www.w3.org/2000/svg">
<g clip-path="url(#clip0_1798_48)">
<path d="M511.25 -0.62522C513.286 -0.62091 515.321 -0.616599 517.419 -0.612158C546.637 -0.512817 575.301 -0.0110235 604 5.99978C605.949 6.39713 607.899 6.79449 609.908 7.20388C706.672 27.4451 794.648 71.2782 866 140C867.978 141.896 867.978 141.896 869.996 143.831C888.972 162.12 906.452 180.714 922 202C923.716 204.302 925.432 206.604 927.148 208.906C939.224 225.288 949.942 242.316 960 260C960.729 261.263 961.458 262.527 962.209 263.829C1005.42 339.325 1024.95 424.859 1024.62 511.25C1024.62 513.286 1024.62 515.321 1024.61 517.419C1024.51 546.637 1024.01 575.301 1018 604C1017.4 606.924 1017.4 606.924 1016.8 609.908C996.554 706.672 952.721 794.648 884 866C882.736 867.318 881.471 868.637 880.169 869.996C861.88 888.972 843.285 906.452 822 922C819.698 923.716 817.396 925.432 815.094 927.148C798.714 939.223 781.709 949.989 764 960C762.585 960.804 761.171 961.609 759.714 962.437C713.443 988.488 663.101 1005.99 611.125 1016.62C609.687 1016.92 608.249 1017.21 606.768 1017.52C577.417 1023.1 548.366 1024.7 518.545 1024.63C512.666 1024.62 506.789 1024.67 500.91 1024.72C474.164 1024.81 448.371 1022.4 422 1018C418.589 1017.44 418.589 1017.44 415.109 1016.86C328.574 1001.32 246.474 961.342 180 904C178.51 902.731 177.019 901.463 175.484 900.156C148.474 876.534 123.131 851.033 102 822C100.287 819.7 98.5733 817.4 96.8592 815.101C84.7791 798.721 74.0124 781.712 63.9998 764C63.1954 762.585 62.391 761.171 61.5623 759.714C35.5114 713.443 18.0138 663.101 7.37478 611.125C7.08007 609.687 6.78536 608.249 6.48171 606.768C0.533998 575.475 -0.746227 544.528 -0.62522 512.75C-0.62091 510.714 -0.616599 508.678 -0.612158 506.581C-0.512817 477.363 -0.0110235 448.698 5.99978 420C6.39713 418.05 6.79449 416.1 7.20388 414.092C27.4451 317.328 71.2782 229.351 140 158C141.264 156.681 142.528 155.362 143.831 154.004C162.12 135.027 180.714 117.547 202 102C204.302 100.284 206.604 98.5675 208.906 96.8513C225.285 84.7762 242.291 74.0106 260 63.9998C261.414 63.1954 262.829 62.391 264.286 61.5623C310.557 35.5114 360.899 18.0138 412.875 7.37478C414.313 7.08007 415.75 6.78536 417.232 6.48171C448.524 0.533998 479.471 -0.746227 511.25 -0.62522Z" fill="#FEFEFE"/>
<path d="M511.25 -0.62522C513.286 -0.62091 515.321 -0.616599 517.419 -0.612158C546.637 -0.512817 575.301 -0.0110235 604 5.99978C605.949 6.39713 607.899 6.79449 609.908 7.20388C706.672 27.4451 794.648 71.2782 866 140C867.978 141.896 867.978 141.896 869.996 143.831C888.972 162.12 906.452 180.714 922 202C923.716 204.302 925.432 206.604 927.148 208.906C939.224 225.288 949.942 242.316 960 260C960.729 261.263 961.458 262.527 962.209 263.829C1005.42 339.325 1024.95 424.859 1024.62 511.25C1024.62 513.286 1024.62 515.321 1024.61 517.419C1024.51 546.637 1024.01 575.301 1018 604C1017.4 606.924 1017.4 606.924 1016.8 609.908C996.554 706.672 952.721 794.648 884 866C882.736 867.318 881.471 868.637 880.169 869.996C861.88 888.972 843.285 906.452 822 922C819.698 923.716 817.396 925.432 815.094 927.148C798.714 939.223 781.709 949.989 764 960C762.585 960.804 761.171 961.609 759.714 962.437C713.443 988.488 663.101 1005.99 611.125 1016.62C609.687 1016.92 608.249 1017.21 606.768 1017.52C577.417 1023.1 548.366 1024.7 518.545 1024.63C512.666 1024.62 506.789 1024.67 500.91 1024.72C474.164 1024.81 448.371 1022.4 422 1018C418.589 1017.44 418.589 1017.44 415.109 1016.86C328.574 1001.32 246.474 961.342 180 904C178.51 902.731 177.019 901.463 175.484 900.156C148.474 876.534 123.131 851.033 102 822C100.287 819.7 98.5733 817.4 96.8592 815.101C84.7791 798.721 74.0124 781.712 63.9998 764C63.1954 762.585 62.391 761.171 61.5623 759.714C35.5114 713.443 18.0138 663.101 7.37478 611.125C7.08007 609.687 6.78536 608.249 6.48171 606.768C0.533998 575.475 -0.746227 544.528 -0.62522 512.75C-0.62091 510.714 -0.616599 508.678 -0.612158 506.581C-0.512817 477.363 -0.0110235 448.698 5.99978 420C6.39713 418.05 6.79449 416.1 7.20388 414.092C27.4451 317.328 71.2782 229.351 140 158C141.264 156.681 142.528 155.362 143.831 154.004C162.12 135.027 180.714 117.547 202 102C204.302 100.284 206.604 98.5675 208.906 96.8513C225.285 84.7762 242.291 74.0106 260 63.9998C261.414 63.1954 262.829 62.391 264.286 61.5623C310.557 35.5114 360.899 18.0138 412.875 7.37478C414.313 7.08007 415.75 6.78536 417.232 6.48171C448.524 0.533998 479.471 -0.746227 511.25 -0.62522ZM128 224C128 414.08 128 604.16 128 800C381.44 800 634.88 800 896 800C896 609.92 896 419.84 896 224C642.56 224 389.12 224 128 224Z" fill="#CCCCCC"/>
<path d="M760 338C784.835 358.764 802.671 385.417 806.47 418.033C809.015 448.303 801.2 479.273 781.859 503.101C757.766 530.666 731.397 544.854 694.773 548.773C665.413 549.738 641.534 540.598 618 524C615.855 522.515 613.71 521.03 611.5 519.5C586.914 494.914 573.95 466.607 573.5 431.625C573.802 400.906 584.818 372.529 606 350C648.74 309.638 711.683 303.624 760 338Z" fill="#EF5A0D"/>
<path d="M200 712C408.56 712 617.12 712 832 712C832 717.28 832 722.56 832 728C623.44 728 414.88 728 200 728C200 722.72 200 717.44 200 712Z" fill="#CCCCCC"/>
<path d="M200 664C408.56 664 617.12 664 832 664C832 669.28 832 674.56 832 680C623.44 680 414.88 680 200 680C200 674.72 200 669.44 200 664Z" fill="#CCCCCC"/>
<path d="M200 616C408.56 616 617.12 616 832 616C832 621.28 832 626.56 832 632C623.44 632 414.88 632 200 632C200 626.72 200 621.44 200 616Z" fill="#CCCCCC"/>
<path d="M200 568C318.8 568 437.6 568 560 568C560 573.28 560 578.56 560 584C441.2 584 322.4 584 200 584C200 578.72 200 573.44 200 568Z" fill="#CCCCCC"/>
<path d="M200 520C302.96 520 405.92 520 512 520C512 525.28 512 530.56 512 536C409.04 536 306.08 536 200 536C200 530.72 200 525.44 200 520Z" fill="#CCCCCC"/>
<path d="M200 472C292.4 472 384.8 472 480 472C480 477.28 480 482.56 480 488C387.6 488 295.2 488 200 488C200 482.72 200 477.44 200 472Z" fill="#CCCCCC"/>
<path d="M200 424C292.4 424 384.8 424 480 424C480 429.28 480 434.56 480 440C387.6 440 295.2 440 200 440C200 434.72 200 429.44 200 424Z" fill="#CCCCCC"/>
<path d="M200 376C292.4 376 384.8 376 480 376C480 381.28 480 386.56 480 392C387.6 392 295.2 392 200 392C200 386.72 200 381.44 200 376Z" fill="#CCCCCC"/>
<path d="M200 328C292.4 328 384.8 328 480 328C480 333.28 480 338.56 480 344C387.6 344 295.2 344 200 344C200 338.72 200 333.44 200 328Z" fill="#CCCCCC"/>
<path d="M633.082 360.7C638.512 360.584 643.943 360.469 649.538 360.35C652.103 360.274 652.103 360.274 654.72 360.196C656.82 360.171 656.82 360.171 657.806 360.166C658.489 360.158 659.172 360.138 659.855 360.11C665.472 359.887 665.472 359.887 667.003 361.241C668.041 362.565 668.702 364.019 669.295 365.601C669.682 366.589 670.186 367.469 670.71 368.385C671.055 369.027 671.4 369.668 671.744 370.31C673.107 372.843 674.477 375.372 675.868 377.888C676.02 378.163 676.171 378.437 676.328 378.72C676.822 379.613 677.316 380.506 677.811 381.4C678.644 382.905 679.477 384.411 680.309 385.918C680.416 386.112 680.524 386.306 680.634 386.506C682.367 389.643 684.076 392.794 685.774 395.952C687.012 398.249 688.281 400.525 689.598 402.775C690.5 404.331 690.5 404.331 690.5 405.057C698.456 405.057 706.412 405.057 714.609 405.057C714.609 390.419 714.609 375.781 714.609 360.7C725.601 360.7 736.593 360.7 747.918 360.7C747.918 375.337 747.918 389.975 747.918 405.057C753.885 405.057 759.852 405.057 766 405.057C766 410.262 766 415.466 766 420.828C760.033 420.828 754.066 420.828 747.918 420.828C747.918 426.25 747.918 431.671 747.918 437.257C753.885 437.257 759.852 437.257 766 437.257C766 442.462 766 447.666 766 453.029C760.033 453.029 754.066 453.029 747.918 453.029C747.918 469.618 747.918 486.208 747.918 503.3C742.488 503.416 737.057 503.531 731.462 503.65C729.752 503.7 728.042 503.751 726.28 503.804C724.18 503.829 724.18 503.829 723.194 503.834C722.511 503.842 721.828 503.862 721.145 503.89C715.525 504.113 715.525 504.113 713.995 502.756C712.955 501.427 712.29 499.968 711.695 498.381C711.347 497.482 710.886 496.668 710.404 495.84C710.1 495.281 709.797 494.721 709.494 494.162C707.95 491.322 706.397 488.489 704.835 485.66C704.62 485.271 704.406 484.883 704.191 484.494C703.216 482.729 702.241 480.964 701.265 479.2C700.73 478.232 700.195 477.264 699.66 476.296C699.502 476.01 699.502 476.01 699.341 475.718C697.845 473.01 696.368 470.293 694.902 467.568C692.902 463.853 690.843 460.177 688.761 456.512C688.171 455.464 687.591 454.41 687.011 453.357C676.804 453.195 676.804 453.195 666.391 453.029C666.391 469.618 666.391 486.208 666.391 503.3C655.399 503.3 644.407 503.3 633.082 503.3C633.082 486.711 633.082 470.121 633.082 453.029C627.115 453.029 621.148 453.029 615 453.029C615 447.824 615 442.619 615 437.257C620.967 437.257 626.934 437.257 633.082 437.257C633.082 431.836 633.082 426.414 633.082 420.828C627.115 420.828 621.148 420.828 615 420.828C615 415.624 615 410.419 615 405.057C620.967 405.057 626.934 405.057 633.082 405.057C633.082 390.419 633.082 375.781 633.082 360.7ZM666.391 420.828C666.391 426.25 666.391 431.671 666.391 437.257C670.369 437.257 674.347 437.257 678.445 437.257C676.869 434.195 675.287 431.144 673.647 428.119C673.463 427.777 673.278 427.435 673.088 427.082C672.725 426.411 672.358 425.742 671.987 425.076C671.643 424.44 671.319 423.792 671.018 423.133C670.872 422.832 670.727 422.531 670.577 422.221C670.456 421.952 670.336 421.683 670.213 421.406C669.305 420.472 669.305 420.472 666.391 420.828ZM699.382 420.828C700.799 423.762 702.214 426.602 703.824 429.412C704.194 430.064 704.564 430.715 704.934 431.366C705.122 431.682 705.311 431.998 705.505 432.324C706.044 433.314 706.044 433.314 706.454 434.436C706.915 435.72 706.915 435.72 708.265 437.257C710.358 437.257 712.452 437.257 714.609 437.257C714.609 431.836 714.609 426.414 714.609 420.828C709.584 420.828 704.559 420.828 699.382 420.828Z" fill="white"/>
</g>
<defs>
<clipPath id="clip0_1798_48">
<rect width="1024" height="1024" fill="white"/>
</clipPath>
</defs>
</svg>
