<?xml version="1.0" encoding="UTF-8"?>
<svg version="1.1" xmlns="http://www.w3.org/2000/svg" width="148" height="148">
<path d="M0 0 C48.84 0 97.68 0 148 0 C148 48.84 148 97.68 148 148 C99.16 148 50.32 148 0 148 C0 99.16 0 50.32 0 0 Z " fill="#FCFEFD" transform="translate(0,0)"/>
<path d="M0 0 C48.84 0 97.68 0 148 0 C148 48.84 148 97.68 148 148 C129.911875 148.04125 111.82375 148.0825 93.1875 148.125 C87.47203857 148.14320801 81.75657715 148.16141602 75.86791992 148.18017578 C68.89904785 148.18920898 68.89904785 148.18920898 65.6386261 148.19088745 C63.35708334 148.19396252 61.07554387 148.20100464 58.79402161 148.21115112 C55.34203425 148.22573808 51.89024586 148.22781375 48.43823242 148.22705078 C47.41850688 148.234247 46.39878134 148.24144321 45.34815502 148.2488575 C44.42040421 148.2461025 43.49265341 148.24334751 42.53678894 148.24050903 C41.32417027 148.24327441 41.32417027 148.24327441 40.08705425 148.24609566 C38 148 38 148 35 146 C34.625 143 34.625 143 35 140 C38.94550355 137.3696643 42.31311876 137.73019998 46.89013672 137.76049805 C48.25400009 137.75747681 48.25400009 137.75747681 49.64541626 137.75439453 C51.62120128 137.7508471 53.59699765 137.75161849 55.57278061 137.75617027 C58.69978712 137.76175464 61.82642147 137.75261915 64.95339966 137.7389679 C73.84443797 137.70180183 82.73535108 137.68330716 91.62646484 137.69458008 C97.06362646 137.70042924 102.5002656 137.6821785 107.93732071 137.64869118 C110.00974187 137.64073192 112.0822199 137.64202123 114.15462875 137.65271568 C117.05402206 137.66703276 119.95177181 137.65078195 122.85107422 137.62768555 C123.70735413 137.63945328 124.56363403 137.65122101 125.44586182 137.66334534 C129.43445742 137.60102749 131.56269689 137.26589633 135.03137207 135.15681458 C137.96058929 130.45963667 137.69893492 126.29946522 137.64697266 120.86328125 C137.65573425 119.7391684 137.66449585 118.61505554 137.67352295 117.45687866 C137.69552653 113.74169296 137.68095925 110.02769778 137.6640625 106.3125 C137.66743032 103.73087333 137.67228264 101.1492482 137.67855835 98.56762695 C137.68593107 93.15722089 137.67568789 87.74726212 137.65185547 82.33691406 C137.62464502 76.08765316 137.63345978 69.83920792 137.6609875 63.58996677 C137.6864374 57.57079895 137.68371106 51.55202924 137.66907883 45.5328064 C137.66574172 42.97472011 137.6698425 40.41661303 137.68147659 37.85855103 C137.69416548 34.2840448 137.67483228 30.71110798 137.64697266 27.13671875 C137.65709381 26.07786469 137.66721497 25.01901062 137.67764282 23.92807007 C137.61338407 19.48122698 137.4266397 16.7299473 135.15560913 12.84439087 C130.44086434 10.08871617 126.23638478 10.30166804 120.86328125 10.35302734 C119.7391684 10.34426575 118.61505554 10.33550415 117.45687866 10.32647705 C113.74169296 10.30447347 110.02769778 10.31904075 106.3125 10.3359375 C103.73087333 10.33256968 101.1492482 10.32771736 98.56762695 10.32144165 C93.15722089 10.31406893 87.74726212 10.32431211 82.33691406 10.34814453 C76.08765316 10.37535498 69.83920792 10.36654022 63.58996677 10.3390125 C57.57079895 10.3135626 51.55202924 10.31628894 45.5328064 10.33092117 C42.97472011 10.33425828 40.41661303 10.3301575 37.85855103 10.31852341 C34.2840448 10.30583452 30.71110798 10.32516772 27.13671875 10.35302734 C26.07786469 10.34290619 25.01901062 10.33278503 23.92807007 10.32235718 C19.48122698 10.38661593 16.7299473 10.5733603 12.84439087 12.84439087 C10.08871617 17.55913566 10.30166804 21.76361522 10.35302734 27.13671875 C10.34426575 28.2608316 10.33550415 29.38494446 10.32647705 30.54312134 C10.30447347 34.25830704 10.31904075 37.97230222 10.3359375 41.6875 C10.33256968 44.26912667 10.32771736 46.8507518 10.32144165 49.43237305 C10.31406893 54.84277911 10.32431211 60.25273788 10.34814453 65.66308594 C10.37535498 71.91234684 10.36654022 78.16079208 10.3390125 84.41003323 C10.3135626 90.42920105 10.31628894 96.44797076 10.33092117 102.4671936 C10.33425828 105.02527989 10.3301575 107.58338697 10.31852341 110.14144897 C10.30583452 113.7159552 10.32516772 117.28889202 10.35302734 120.86328125 C10.34290619 121.92213531 10.33278503 122.98098938 10.32235718 124.07192993 C10.40645337 130.01899132 10.40645337 130.01899132 13.30606079 135.11791992 C16.44660122 137.31201122 19.28659449 138.14306027 23 139 C24 140 24 140 24.25 142.9375 C24.1675 143.948125 24.085 144.95875 24 146 C17.32052512 150.45298325 8.02772972 148 0 148 C0 99.16 0 50.32 0 0 Z " fill="#05D63A" transform="translate(0,0)"/>
<path d="M0 0 C3.94932761 2.38370131 6.45572871 5.18359307 9 9 C9.265625 11.33984375 9.265625 11.33984375 9.25 13.9375 C9.25773437 15.21947266 9.25773437 15.21947266 9.265625 16.52734375 C8.98586513 19.13157899 8.23189558 20.71926161 7 23 C7.27047967 25.70479673 8.18516679 27.31848689 9.5625 29.6875 C11.32648635 33.75233811 11.89456451 37.61487986 11 42 C8 44 8 44 5.4375 43.75 C3 43 3 43 1 41 C0.855625 39.865625 0.71125 38.73125 0.5625 37.5625 C0.25504534 34.13839531 0.25504534 34.13839531 -1.1875 32.0625 C-3.99093325 30.41910809 -5.8187528 30.4806127 -9 31 C-12.7763097 34.46161722 -13.78074606 38.12298425 -15 43 C-16 44 -16 44 -18.4375 44.1875 C-21 44 -21 44 -23 42 C-23.74921113 37.15626296 -23.53789611 33.09648053 -21.375 28.6875 C-15.24852993 21.75491544 -11.17061462 20.09329391 -2 19 C-2 16.03 -2 13.06 -2 10 C-5.3324787 9.66582071 -5.3324787 9.66582071 -9 10 C-9.680625 10.680625 -10.36125 11.36125 -11.0625 12.0625 C-11.701875 12.701875 -12.34125 13.34125 -13 14 C-18.3125 13.6875 -18.3125 13.6875 -20 12 C-20.06938536 8.46134649 -19.78964546 5.98758325 -17.53515625 3.16796875 C-12.05969715 -1.61326036 -6.87440728 -2.14825227 0 0 Z " fill="#08D63B" transform="translate(117,84)"/>
<path d="M0 0 C4.49628924 2.08161539 7.07934275 4.7342655 9.3125 9.0703125 C11.1949318 14.3539563 10.10518717 18.9475508 8 24 C8.2637919 26.72584959 9.17281626 28.29724398 10.5625 30.6875 C12.35406958 34.81589948 12.68597043 38.54564653 12 43 C10 45 10 45 7.5 45.25 C5 45 5 45 3 43 C2.47265625 41.16015625 2.47265625 41.16015625 2.0625 39.0625 C1.4982734 36.68930264 1.05072779 35.08116446 -0.25 33 C-2.98878707 31.43497882 -4.91175165 31.55882166 -8 32 C-10.45714369 33.45668762 -10.45714369 33.45668762 -12 36 C-12.40047444 38.32275177 -12.7397104 40.65739357 -13 43 C-15 45 -15 45 -17.5 45.25 C-20 45 -20 45 -22 43 C-22.82391029 38.73784867 -22.77401168 34.67323114 -20.9375 30.703125 C-15.9687371 23.52002212 -9.18873137 21.04718284 -1 19 C-0.95758277 16.66705225 -0.95907063 14.33297433 -1 12 C-2.09923541 10.69253291 -2.09923541 10.69253291 -4.8125 10.6875 C-8.1049416 10.66350674 -8.1049416 10.66350674 -10 13.0625 C-10.66 13.701875 -11.32 14.34125 -12 15 C-15.25 14.75 -15.25 14.75 -18 14 C-18.75 11.3125 -18.75 11.3125 -19 8 C-14.43700151 0.45350249 -8.37135445 -1.18247061 0 0 Z " fill="#07D63B" transform="translate(42,83)"/>
<path d="M0 0 C4.83763525 2.32923179 7.63619663 5.18147775 10 10 C10.69666969 15.00731342 10.30380373 18.52297251 8 23 C8.24793763 26.14054328 9.05097756 28.09379872 10.5625 30.875 C12.25794354 34.56074684 12.45448859 36.98535081 12 41 C10.8125 43 10.8125 43 9 44 C5.65807308 43.75546876 4.39456443 43.39456443 2 41 C1.87625 39.865625 1.7525 38.73125 1.625 37.5625 C1.32886921 34.01876126 1.32886921 34.01876126 -0.75 32.0625 C-3.44963365 30.787673 -5.04916349 30.54602515 -8 31 C-9.89350331 31.97521537 -9.89350331 31.97521537 -11 34 C-11.165 35.155 -11.33 36.31 -11.5 37.5 C-12 41 -12 41 -13.25 42.9375 C-15.66797273 44.40555487 -17.22590267 44.4267842 -20 44 C-22.50615062 40.24077407 -22.84186282 37.34461348 -22 33 C-19.37766163 27.11902057 -15.98129307 23.21609476 -10.03515625 20.70703125 C-7.04356007 19.66772432 -4.07376796 18.76844199 -1 18 C-0.95745644 16.00045254 -0.95919217 13.99958364 -1 12 C-2.10528442 10.68031822 -2.10528442 10.68031822 -4.875 10.75 C-7.98296601 10.65873278 -7.98296601 10.65873278 -9.5 12.5 C-11 14 -11 14 -14.125 14.25 C-17 14 -17 14 -18 13 C-18.375 10.25 -18.375 10.25 -18 7 C-12.57416905 0.5476605 -8.17621141 -1.020432 0 0 Z " fill="#09D63C" transform="translate(79,20)"/>
<path d="M0 0 C2.4375 0.8125 2.4375 0.8125 4.4375 2.8125 C4.53515263 4.5185489 4.56725999 6.22866524 4.5625 7.9375 C4.87559963 12.82568806 5.88108609 14.83681285 9.5 18.125 C10.221875 18.75148438 10.94375 19.37796875 11.6875 20.0234375 C13.4375 21.8125 13.4375 21.8125 14 25.25 C13.4375 27.8125 13.4375 27.8125 12.4375 28.8125 C9.75 29.25 9.75 29.25 6.4375 28.8125 C4.1052637 27.00672788 2.39618037 25.05099185 0.4375 22.8125 C-2.12686322 23.91151281 -3.56689032 24.81747569 -5.4375 26.9375 C-7.5625 28.8125 -7.5625 28.8125 -10.6875 29.25 C-11.63625 29.105625 -12.585 28.96125 -13.5625 28.8125 C-15.5625 25.8125 -15.5625 25.8125 -15.4375 23.84765625 C-14.30583726 21.21552996 -12.76278494 20.06916416 -10.5625 18.25 C-7.03109803 14.91304468 -6.02601904 12.85279989 -5.75 8 C-5.76417969 7.08605469 -5.77835938 6.17210938 -5.79296875 5.23046875 C-5.5625 2.8125 -5.5625 2.8125 -4.2109375 0.9765625 C-2.5625 -0.1875 -2.5625 -0.1875 0 0 Z " fill="#02D537" transform="translate(74.5625,69.1875)"/>
<path d="M0 0 C0.33 0 0.66 0 1 0 C1 5.61 1 11.22 1 17 C-4.61 17 -10.22 17 -16 17 C-13.50827759 15.7541388 -11.00938872 14.52238385 -8.5 13.3125 C-3.78494598 10.61095617 -1.83788246 6.72311799 -0.25 1.5625 C-0.1675 1.046875 -0.085 0.53125 0 0 Z " fill="#F1FBF3" transform="translate(147,131)"/>
<path d="M0 0 C1.25 2.5 2.5 5 3.75 7.5 C5.85311998 11.14332309 8.25245872 13.01150871 12 15 C14.7282504 15.78215588 14.7282504 15.78215588 17 16 C17 16.33 17 16.66 17 17 C11.39 17 5.78 17 0 17 C0 11.39 0 5.78 0 0 Z " fill="#F2FBF4" transform="translate(0,131)"/>
<path d="M0 0 C5.61 0 11.22 0 17 0 C17 5.61 17 11.22 17 17 C16.67 17 16.34 17 16 17 C15.7525 15.948125 15.505 14.89625 15.25 13.8125 C13.8002688 8.82904899 11.57616618 5.88659348 7 3.3125 C6.01 2.879375 5.02 2.44625 4 2 C2.68 1.34 1.36 0.68 0 0 Z " fill="#F2FBF4" transform="translate(131,0)"/>
<path d="M0 0 C5.61 0 11.22 0 17 0 C17 0.33 17 0.66 17 1 C15.4221875 1.37125 15.4221875 1.37125 13.8125 1.75 C9.08645594 3.11530162 6.12854874 5.42809282 3.25 9.4375 C2.00312957 11.99358439 1.40073806 14.19483356 1 17 C0.67 17 0.34 17 0 17 C0 11.39 0 5.78 0 0 Z " fill="#F4FCF5" transform="translate(0,0)"/>
</svg>
