<?xml version="1.0" encoding="UTF-8"?>
<svg version="1.1" xmlns="http://www.w3.org/2000/svg" width="512" height="512">
<path d="M0 0 C0.91662918 -0.00428513 1.83325836 -0.00857025 2.77766418 -0.01298523 C4.70650407 -0.01870739 6.63536552 -0.01924444 8.56420898 -0.01489258 C11.52038946 -0.01171783 14.47558263 -0.03526884 17.43164062 -0.06054688 C19.30859249 -0.06281855 21.18554704 -0.06352398 23.0625 -0.0625 C23.94689255 -0.07170975 24.8312851 -0.08091949 25.74247742 -0.09040833 C26.56375626 -0.08417953 27.3850351 -0.07795074 28.23120117 -0.0715332 C28.9525676 -0.07216263 29.67393402 -0.07279205 30.41716003 -0.07344055 C32.94593883 0.42075673 33.83505568 1.22240459 35.33203125 3.30078125 C35.33203125 4.62078125 35.33203125 5.94078125 35.33203125 7.30078125 C41.93203125 7.30078125 48.53203125 7.30078125 55.33203125 7.30078125 C55.66203125 5.65078125 55.99203125 4.00078125 56.33203125 2.30078125 C59.09258568 -0.45977318 60.67278294 0.04723014 64.54167747 0.04071903 C65.1887255 0.03691336 65.83577353 0.03310769 66.50242907 0.0291867 C68.69167059 0.01880079 70.88065619 0.02278984 73.06991577 0.02662659 C74.64701551 0.0221779 76.224113 0.01686508 77.80120718 0.01075786 C82.15174254 -0.00347815 86.50220666 -0.00508437 90.85276198 -0.00464523 C95.53876852 -0.00628862 100.22474528 -0.01934654 104.91073608 -0.03083801 C115.16729418 -0.0537288 125.42383164 -0.06161369 135.68041182 -0.06666446 C142.08441572 -0.06991816 148.48841359 -0.07643884 154.89241409 -0.08366585 C172.62050623 -0.10324072 190.34859275 -0.11963852 208.0766964 -0.12254238 C209.21217013 -0.12272995 210.34764386 -0.12291752 211.51752589 -0.12311077 C213.81949528 -0.12347703 216.12146467 -0.12384073 218.42343406 -0.12420189 C219.56615688 -0.1243847 220.70887969 -0.12456751 221.88623047 -0.12475586 C223.03034781 -0.12493641 224.17446516 -0.12511696 225.35325272 -0.12530298 C243.87813588 -0.12884202 262.40290259 -0.1558436 280.92774539 -0.19325375 C299.94372157 -0.23134834 318.95964001 -0.25069996 337.9756552 -0.25100189 C348.65355051 -0.25158637 359.33130712 -0.26007147 370.00916672 -0.28899956 C379.10557983 -0.31352934 388.20180369 -0.32078584 397.29824094 -0.30575203 C401.93774043 -0.29858848 406.57686637 -0.29941637 411.21632385 -0.32216263 C415.46936582 -0.34281388 419.72174855 -0.34009527 423.97478385 -0.31928778 C425.50790683 -0.31580448 427.04107797 -0.32065351 428.57413785 -0.33499222 C441.9899954 -0.45231484 452.31724922 2.35987415 462.13671875 11.83203125 C469.56940157 20.19049307 472.63910163 28.5682799 472.59945679 39.60404968 C472.6039879 40.53246495 472.60851901 41.46088021 472.61318743 42.41742927 C472.62583329 45.52402383 472.62421092 48.63044312 472.62255859 51.73706055 C472.6285438 53.96637701 472.63534933 56.19569139 472.64291382 58.42500305 C472.66058373 64.47892336 472.66526968 70.53278712 472.66654539 76.58673072 C472.66796721 80.3708993 472.67223744 84.15505351 472.67753983 87.93921852 C472.69508981 100.46501129 472.70437967 112.99077192 472.70287888 125.51657441 C472.70275901 126.52870333 472.70275901 126.52870333 472.70263672 127.5612793 C472.70255496 128.23686104 472.7024732 128.91244279 472.70238896 129.6084967 C472.70157667 140.54857257 472.72070102 151.48851056 472.74891345 162.42854657 C472.77768798 173.67580996 472.79108548 184.9230083 472.7897259 196.17031604 C472.78921658 202.4790974 472.79488311 208.78772278 472.816082 215.09647179 C472.83548635 221.033355 472.83557354 226.9699338 472.82104874 232.90682793 C472.81896215 235.08078202 472.82365247 237.25475528 472.83576965 239.42867661 C472.91488099 254.61030217 472.34870622 266.76054153 461.33203125 278.30078125 C452.33257174 286.8919477 442.4356319 289.93668144 430.16918945 289.75488281 C429.11419754 289.75546692 428.05920563 289.75605103 426.97224426 289.75665283 C423.52541857 289.75389196 420.07948493 289.72289428 416.6328125 289.69140625 C414.22715222 289.68393677 411.82148582 289.67824718 409.41581726 289.67425537 C403.11437897 289.65905486 396.81331524 289.61982108 390.51202393 289.57543945 C384.06991643 289.53436613 377.62774784 289.51621865 371.18554688 289.49609375 C358.56751812 289.45332139 345.94986458 289.38301715 333.33203125 289.30078125 C333.66203125 296.89078125 333.99203125 304.48078125 334.33203125 312.30078125 C335.65203125 311.97078125 336.97203125 311.64078125 338.33203125 311.30078125 C347.35704406 310.50512521 354.87295761 310.78161321 362.33203125 316.30078125 C364.61965081 318.52409022 366.41606852 320.72935759 368.33203125 323.30078125 C369.20601563 322.86765625 369.20601563 322.86765625 370.09765625 322.42578125 C378.03957697 318.82943979 386.04168167 317.72203178 394.51953125 320.30078125 C400.73428074 323.04411209 405.88842465 327.9385159 409.39453125 333.67578125 C410.33203125 336.30078125 410.33203125 336.30078125 410.33203125 338.30078125 C411.03972656 337.98753906 411.74742187 337.67429687 412.4765625 337.3515625 C419.71512085 334.68785225 427.6715048 334.52859076 434.9453125 337.09375 C441.99116674 340.65703799 447.05555846 346.20175687 450.33203125 353.30078125 C451.22073942 356.22120472 451.47136331 358.86717548 451.5090332 361.9140625 C451.52186844 362.8218042 451.53470367 363.7295459 451.54792786 364.66479492 C451.55900826 366.12429565 451.55900826 366.12429565 451.5703125 367.61328125 C451.57838425 368.61915283 451.58645599 369.62502441 451.59477234 370.66137695 C451.60858766 372.78627815 451.6193212 374.9112013 451.62719727 377.03613281 C451.64446782 380.28883448 451.68838362 383.54053452 451.73242188 386.79296875 C451.74254431 388.85806545 451.75106181 390.92317077 451.7578125 392.98828125 C451.77532059 393.96128174 451.79282867 394.93428223 451.81086731 395.93676758 C451.7892527 402.64332437 451.7892527 402.64332437 449.49291992 405.9453125 C447.33203125 407.30078125 447.33203125 407.30078125 444.33203125 407.30078125 C444.35482526 410.40657619 444.43210944 413.50868609 444.51953125 416.61328125 C444.52533203 417.49435547 444.53113281 418.37542969 444.53710938 419.28320312 C444.62057899 421.72237081 444.74291745 423.93115832 445.33203125 426.30078125 C447.68268595 428.36325132 447.68268595 428.36325132 450.33203125 429.30078125 C452.05173545 432.74018964 451.53897333 436.69357714 451.5703125 440.48046875 C451.57838425 441.4036087 451.58645599 442.32674866 451.59477234 443.27786255 C451.60862624 445.23991006 451.61934253 447.2019818 451.62719727 449.1640625 C451.64426426 452.12939245 451.68811968 455.0935643 451.73242188 458.05859375 C451.85204172 472.51968547 450.23695953 483.48462642 441.33203125 495.30078125 C440.75453125 496.16703125 440.17703125 497.03328125 439.58203125 497.92578125 C432.7362821 505.1518498 422.24366666 511.83680191 412.04333401 512.43500233 C411.19850995 512.43927581 410.35368589 512.44354929 409.48326111 512.44795227 C408.02217422 512.45868523 408.02217422 512.45868523 406.53157043 512.46963501 C404.93800972 512.47366837 404.93800972 512.47366837 403.31225586 512.4777832 C401.6261319 512.48764 401.6261319 512.48764 399.90594482 512.49769592 C396.18208753 512.51742161 392.45827059 512.52909135 388.734375 512.5390625 C386.82425723 512.54517579 386.82425723 512.54517579 384.87555122 512.55141258 C378.82764836 512.57012227 372.77976987 512.58468675 366.7318458 512.59302455 C359.77361951 512.60277791 352.81571296 512.62905015 345.8575992 512.66952544 C339.81345624 512.70346473 333.76946698 512.71518119 327.72522163 512.71922874 C325.16370034 512.72408811 322.60218229 512.73568341 320.0407238 512.75426674 C316.44608308 512.7787201 312.8522675 512.77768101 309.25756836 512.77075195 C308.20936417 512.78356201 307.16115997 512.79637207 306.08119202 512.80957031 C294.07219661 512.72566153 282.89476812 508.152024 273.91796875 500.1484375 C263.76793762 489.67591375 260.19362136 476.43047273 256.65234375 462.71484375 C256.23269685 461.12590075 255.81200742 459.53723277 255.39035034 457.94882202 C254.2879802 453.78459657 253.20000534 449.61674455 252.1151123 445.44793701 C251.03626976 441.31317442 249.94323023 437.18217236 248.8515625 433.05078125 C246.93789095 425.80083153 245.04223245 418.54633561 243.15605545 411.28918839 C241.95407313 406.67005995 240.73818663 402.05491549 239.50855446 397.44307137 C238.74551772 394.5777712 237.98905401 391.71075954 237.2336998 388.84342575 C236.71531057 386.88501178 236.18837203 384.92886703 235.66116333 382.97280884 C233.14967259 373.3975711 232.01592119 365.55155218 236.33203125 356.30078125 C241.2101524 349.12767905 246.71850596 344.08896925 255.33203125 342.30078125 C263.27165125 341.32391701 269.37271803 342.36420004 276.33203125 346.30078125 C276.36941406 345.34816406 276.40679687 344.39554687 276.4453125 343.4140625 C276.54392578 341.53267578 276.54392578 341.53267578 276.64453125 339.61328125 C276.70253906 338.37191406 276.76054687 337.13054687 276.8203125 335.8515625 C277.3552241 332.13984768 277.97176155 330.19250241 280.33203125 327.30078125 C281.98203125 326.64078125 283.63203125 325.98078125 285.33203125 325.30078125 C285.33203125 319.03078125 285.33203125 312.76078125 285.33203125 306.30078125 C283.68203125 305.97078125 282.03203125 305.64078125 280.33203125 305.30078125 C276.28683561 299.86069056 277.33203125 296.71504309 277.33203125 289.30078125 C259.84203125 289.30078125 242.35203125 289.30078125 224.33203125 289.30078125 C224.49007263 304.16948347 224.49007263 304.16948347 224.69238281 319.03759766 C224.70407126 320.90917039 224.71426272 322.78075334 224.72265625 324.65234375 C224.74312012 325.61487061 224.76358398 326.57739746 224.78466797 327.5690918 C224.78834084 334.65956095 223.49205917 337.90667718 218.64453125 343.11328125 C215.06669171 344.9505502 211.34218852 345.59927192 207.33203125 345.30078125 C202.6704796 343.31896884 199.55905106 340.88752592 196.0168457 337.29443359 C195.52335632 336.79816971 195.02986694 336.30190582 194.52142334 335.79060364 C192.90574177 334.16272101 191.30076138 332.52468799 189.6953125 330.88671875 C188.56844874 329.74916997 187.44076531 328.61243261 186.31230164 327.47647095 C183.35291435 324.49436668 180.40180155 321.50422535 177.45324707 318.51141357 C172.72508835 313.7128925 167.98928576 308.92202068 163.24431419 304.14012527 C161.58964272 302.46874418 159.94153014 300.79108322 158.29377747 299.11288452 C157.28245961 298.09110869 156.27089176 297.06958022 155.2590332 296.04833984 C154.37778275 295.15359955 153.49653229 294.25885925 152.58857727 293.33700562 C148.92665068 290.03261737 145.87195691 290.17474771 141.1229248 290.16947937 C139.82208954 290.16547119 138.52125427 290.16146301 137.18099976 290.15733337 C135.73590086 290.15780849 134.29080198 290.1583446 132.84570312 290.15893555 C131.32618102 290.15590385 129.80665982 290.15238237 128.28713989 290.14840698 C125.01159056 290.14051571 121.73605214 290.13537208 118.460495 290.13211632 C113.27363766 290.12620227 108.08684881 290.10965612 102.90002441 290.09077454 C101.12316136 290.08443686 99.34629826 290.07811124 97.56943512 290.07179737 C96.6794473 290.06863156 95.78945948 290.06546575 94.87250233 290.062204 C82.79750086 290.02016757 70.72253066 289.98717899 58.64746094 289.97485352 C50.5029343 289.96645467 42.35857674 289.9438936 34.21413469 289.90549785 C29.90733165 289.88579244 25.60078104 289.87331405 21.29393005 289.87833214 C17.23574924 289.88300258 13.17804552 289.86904361 9.11996078 289.84132004 C7.63781679 289.83444735 6.15562304 289.83423905 4.67348099 289.84152031 C-8.50011857 289.89965475 -18.9166781 287.6096693 -28.66796875 278.30078125 C-40.49320435 265.91355425 -40.2553379 252.47370749 -40.20141602 236.31274414 C-40.2084812 234.08430919 -40.21722873 231.85587904 -40.2275238 229.62745667 C-40.24995965 223.59848984 -40.24709159 217.56978625 -40.23820233 211.54079366 C-40.23307989 206.4986238 -40.24039519 201.45650287 -40.24767441 196.41433805 C-40.26562431 183.8362221 -40.25928163 171.25826284 -40.2415046 158.68016326 C-40.22681076 147.77983549 -40.24143742 136.87978345 -40.27027477 125.97949118 C-40.29973254 114.76029675 -40.31011547 103.54122606 -40.30109257 92.32198328 C-40.29617306 86.03390657 -40.29832647 79.74604411 -40.31888008 73.45799446 C-40.33728723 67.5439421 -40.33121642 61.63040057 -40.30668068 55.71637535 C-40.30168896 53.5525195 -40.30511967 51.38862439 -40.31782913 49.22480011 C-40.40182873 33.6884303 -39.44013171 22.21396518 -28.13671875 10.49609375 C-19.64887792 2.94836187 -11.19161359 -0.01161322 0 0 Z " fill="#9AE49C" transform="translate(39.66796875,-0.30078125)"/>
<path d="M0 0 C3.8026029 2.0050088 5.61790841 3.42686262 8 7 C8.25333309 8.90408993 8.25333309 8.90408993 8.25828552 11.0922699 C8.26511353 11.9236145 8.27194153 12.75495911 8.27897644 13.61149597 C8.27642349 14.52014908 8.27387054 15.42880219 8.27124023 16.36499023 C8.27646698 17.32460663 8.28169373 18.28422302 8.28707886 19.2729187 C8.29732711 21.35837097 8.3031007 23.44384887 8.30496025 25.52932549 C8.30861555 28.82827136 8.32531892 32.12691436 8.34571838 35.42579651 C8.40121439 44.80569842 8.4318415 54.18564511 8.45629883 63.56567383 C8.47215607 69.30098719 8.50235588 75.03608569 8.54106331 80.77128792 C8.55272967 82.95896184 8.5586438 85.14667417 8.55874443 87.3343792 C8.55893606 90.39168666 8.57717135 93.44839986 8.59936523 96.50561523 C8.59478806 97.41224411 8.59021088 98.31887299 8.585495 99.25297546 C8.62856343 104.11243213 8.62856343 104.11243213 10.40174866 108.56239319 C12.39600536 110.3562018 13.40593138 110.51198323 16.0625 110.4375 C18.0115625 110.2209375 18.0115625 110.2209375 20 110 C22.44348005 106.33477993 22.25251954 104.50433329 22.2734375 100.13671875 C22.29373426 98.76105969 22.31458519 97.38540871 22.3359375 96.00976562 C22.35848244 93.85059789 22.37498844 91.69175052 22.38085938 89.5324707 C22.39043608 87.44163674 22.42427697 85.35222964 22.4609375 83.26171875 C22.46915527 82.01350342 22.47737305 80.76528809 22.48583984 79.47924805 C23.22755695 74.46015476 25.40222281 71.29549502 29.3125 68.125 C32.83891192 66.64882757 35.20389 66.53381105 39 67 C43.4503451 69.31075611 45.83141899 71.50872165 48 76 C48.38476562 79.36572266 48.38476562 79.36572266 48.40625 83.1640625 C48.41708618 83.83795013 48.42792236 84.51183777 48.43908691 85.20614624 C48.48475948 88.07193358 48.49645683 90.93762472 48.51123047 93.80371094 C48.5269134 95.90332288 48.55989555 98.00217774 48.59375 100.1015625 C48.60083984 101.35275879 48.60792969 102.60395508 48.61523438 103.89306641 C48.7520379 106.95172535 48.7520379 106.95172535 50.30664062 108.90380859 C53.20905133 110.78267596 55.6667338 110.41665828 59 110 C61.12285714 107.87225851 61.92601155 106.51771445 62.35302734 103.52978516 C62.34456787 102.17312744 62.34456787 102.17312744 62.3359375 100.7890625 C62.34882813 99.79132813 62.36171875 98.79359375 62.375 97.765625 C62.375 95.67967287 62.36724591 93.59370567 62.3515625 91.5078125 C62.48410734 82.93657939 62.48410734 82.93657939 65.4140625 79.3359375 C69.47631845 75.6664072 72.19384622 75.66482767 77.51953125 75.7109375 C80.99962092 76.11649126 82.66684061 77.44810692 85 80 C87.1923587 83.28853805 87.25746874 84.35790587 87.30859375 88.18359375 C87.33373047 89.19357422 87.35886719 90.20355469 87.38476562 91.24414062 C87.41985638 93.36908067 87.45112083 95.49408743 87.47851562 97.61914062 C87.5181543 99.13604492 87.5181543 99.13604492 87.55859375 100.68359375 C87.57877563 102.06889282 87.57877563 102.06889282 87.59936523 103.48217773 C88.06997203 106.43974497 88.96436385 107.83293202 91 110 C93.88320917 110.72508429 95.97257312 110.33638076 99 110 C101.23512776 107.04715525 101.23512776 107.04715525 101.8125 103.1875 C102.85261381 98.67756654 104.78631288 96.2940293 108 93 C111.21685579 91.39157211 114.5111009 91.53221465 118 92 C122.46934718 94.27683724 124.91553658 96.46044347 127 101 C127.41920348 104.18019219 127.39350572 107.33130675 127.37109375 110.53515625 C127.38846846 112.41471543 127.40605292 114.29427269 127.42382812 116.17382812 C127.43391869 119.12544205 127.43749168 122.07693395 127.43579102 125.02856445 C127.43935629 127.88529732 127.46667218 130.74109036 127.49609375 133.59765625 C127.48791122 134.48002457 127.4797287 135.36239288 127.47129822 136.27149963 C127.50426945 141.24306349 127.50426945 141.24306349 129.84399414 145.52514648 C132.02198008 147.15989749 132.02198008 147.15989749 135 148 C135.00410889 148.55985596 135.00821777 149.11971191 135.01245117 149.6965332 C135.04537305 152.2362587 135.11600694 154.77357981 135.1875 157.3125 C135.19330078 158.19357422 135.19910156 159.07464844 135.20507812 159.98242188 C135.28854774 162.42158956 135.4108862 164.63037707 136 167 C138.3506547 169.06247007 138.3506547 169.06247007 141 170 C142.7197042 173.43940839 142.20694208 177.39279589 142.23828125 181.1796875 C142.246353 182.10282745 142.25442474 183.02596741 142.26274109 183.9770813 C142.27659499 185.93912881 142.28731128 187.90120055 142.29516602 189.86328125 C142.31223301 192.8286112 142.35608843 195.79278305 142.40039062 198.7578125 C142.52001047 213.21890422 140.90492828 224.18384517 132 236 C131.4225 236.86625 130.845 237.7325 130.25 238.625 C123.40425085 245.85106855 112.91163541 252.53602066 102.71130276 253.13422108 C101.8664787 253.13849456 101.02165464 253.14276804 100.15122986 253.14717102 C98.69014297 253.15790398 98.69014297 253.15790398 97.19953918 253.16885376 C96.13716537 253.17154266 95.07479156 253.17423157 93.98022461 253.17700195 C92.85614197 253.18357315 91.73205933 253.19014435 90.57391357 253.19691467 C86.85005628 253.21664036 83.12623934 253.2283101 79.40234375 253.23828125 C77.49222598 253.24439454 77.49222598 253.24439454 75.54351997 253.25063133 C69.49561711 253.26934102 63.44773862 253.2839055 57.39981455 253.2922433 C50.44158826 253.30199666 43.48368171 253.3282689 36.52556795 253.36874419 C30.48142499 253.40268348 24.43743573 253.41439994 18.39319038 253.41844749 C15.83166909 253.42330686 13.27015104 253.43490216 10.70869255 253.45348549 C7.11405183 253.47793885 3.52023625 253.47689976 -0.07446289 253.4699707 C-1.12266708 253.48278076 -2.17087128 253.49559082 -3.25083923 253.50878906 C-15.25983464 253.42488028 -26.43726313 248.85124275 -35.4140625 240.84765625 C-45.56409363 230.3751325 -49.13840989 217.12969148 -52.6796875 203.4140625 C-53.0993344 201.8251195 -53.52002383 200.23645152 -53.94168091 198.64804077 C-55.04405105 194.48381532 -56.13202591 190.3159633 -57.21691895 186.14715576 C-58.29576149 182.01239317 -59.38880102 177.88139111 -60.48046875 173.75 C-62.3941403 166.50005028 -64.2897988 159.24555436 -66.1759758 151.98840714 C-67.37795812 147.3692787 -68.59384462 142.75413424 -69.82347679 138.14229012 C-70.58651353 135.27698995 -71.34297724 132.40997829 -72.09833145 129.5426445 C-72.61672068 127.58423053 -73.14365922 125.62808578 -73.67086792 123.67202759 C-76.18235866 114.09678985 -77.31611006 106.25077093 -73 97 C-68.12187885 89.8268978 -62.61352529 84.788188 -54 83 C-46.06038 82.02313576 -39.95931322 83.06341879 -33 87 C-32.96261719 86.04738281 -32.92523438 85.09476562 -32.88671875 84.11328125 C-32.82097656 82.85902344 -32.75523437 81.60476563 -32.6875 80.3125 C-32.60048828 78.45044922 -32.60048828 78.45044922 -32.51171875 76.55078125 C-31.97680715 72.83906643 -31.3602697 70.89172116 -29 68 C-26.525 67.01 -26.525 67.01 -24 66 C-24 59.73 -24 53.46 -24 47 C-22.02 46.34 -20.04 45.68 -18 45 C-16.25601716 41.64410197 -16.84703105 37.33963548 -16.82421875 33.6015625 C-16.80102135 32.13800644 -16.77690405 30.67446472 -16.75195312 29.2109375 C-16.71687519 26.91787067 -16.68750195 24.62533358 -16.67407227 22.33203125 C-16.6585264 20.10873335 -16.61828683 17.88695481 -16.57421875 15.6640625 C-16.57612717 14.98574371 -16.57803558 14.30742493 -16.58000183 13.60855103 C-16.45375951 8.65314476 -15.10397827 5.81719239 -12 2 C-7.96127401 -0.69248399 -4.74486631 -0.67205444 0 0 Z " fill="#FDD1A3" transform="translate(349,259)"/>
<path d="M0 0 C0.91662918 -0.00428513 1.83325836 -0.00857025 2.77766418 -0.01298523 C4.70650407 -0.01870739 6.63536552 -0.01924444 8.56420898 -0.01489258 C11.52038946 -0.01171783 14.47558263 -0.03526884 17.43164062 -0.06054688 C19.30859249 -0.06281855 21.18554704 -0.06352398 23.0625 -0.0625 C23.94689255 -0.07170975 24.8312851 -0.08091949 25.74247742 -0.09040833 C26.56375626 -0.08417953 27.3850351 -0.07795074 28.23120117 -0.0715332 C28.9525676 -0.07216263 29.67393402 -0.07279205 30.41716003 -0.07344055 C32.92697243 0.41705014 33.80367152 1.27766868 35.33203125 3.30078125 C35.83203125 6.67578125 35.83203125 6.67578125 35.33203125 10.30078125 C32.60118041 13.92309055 31.1510097 15.17285457 26.6184082 15.88085938 C25.18563577 15.88815687 23.75258681 15.87050728 22.3203125 15.83203125 C21.55204636 15.83529419 20.78378021 15.83855713 19.99223328 15.84191895 C16.72514035 15.85500164 13.45943615 15.81068052 10.19262695 15.77099609 C-4.59431126 15.5777835 -4.59431126 15.5777835 -17.26025391 22.70849609 C-22.97782351 28.94490142 -24.11402622 35.39330148 -24.06237793 43.46528625 C-24.06846903 44.36667664 -24.07456014 45.26806703 -24.08083582 46.19677228 C-24.09743512 49.20593662 -24.09269433 52.21467638 -24.08789062 55.22387695 C-24.09523277 57.38600096 -24.10381942 59.54812105 -24.11355591 61.7102356 C-24.13576637 67.57604266 -24.13870277 73.44170923 -24.1368084 79.30755258 C-24.13668866 84.2080412 -24.14525411 89.1085001 -24.15358591 94.00898045 C-24.17281871 105.57298307 -24.1757044 117.1369135 -24.16894531 128.70092773 C-24.162306 140.62126024 -24.18516502 152.54128319 -24.22225904 164.46155292 C-24.25297219 174.70382192 -24.26431426 184.94599143 -24.26042223 195.18830556 C-24.25835624 201.3020114 -24.263811 207.41547641 -24.28831482 213.52913857 C-24.31060547 219.28060544 -24.30868431 225.03156976 -24.2883873 230.78303909 C-24.2849813 232.88968612 -24.29004857 234.99636712 -24.30437088 237.10296822 C-24.84203072 252.0885171 -24.84203072 252.0885171 -18.66796875 265.30078125 C-12.75320414 270.81291459 -7.33815479 273.54737498 0.8465271 273.55906677 C2.16430649 273.56589478 3.48208588 273.57272278 4.83979797 273.57975769 C6.29342679 273.57733847 7.74705534 273.57475421 9.20068359 273.57202148 C10.73684464 273.57641031 12.27300331 273.58171303 13.80915833 273.58786011 C17.11361521 273.59934937 20.41800806 273.60481874 23.72248459 273.6057415 C28.95043505 273.6076842 34.17825333 273.62574852 39.40615845 273.64649963 C52.39193087 273.69566126 65.37773916 273.72656381 78.36358643 273.74780273 C88.45531723 273.76433356 98.54693463 273.78716979 108.6385895 273.83082348 C113.83256676 273.85257723 119.02632845 273.8606598 124.22034812 273.85843074 C127.45586817 273.86010052 130.69124813 273.87416768 133.92671776 273.89164352 C135.42344962 273.8972306 136.92021068 273.89773972 138.4169445 273.89270592 C155.05252453 273.84263655 155.05252453 273.84263655 162.14648438 280.37133789 C163.15304077 281.29500656 163.15304077 281.29500656 164.17993164 282.23733521 C168.27415858 286.16290461 172.3018203 290.14939048 176.30078125 294.171875 C177.22169556 295.09420425 178.14260986 296.01653351 179.09143066 296.96681213 C181.51350679 299.39266602 183.93256204 301.82150977 186.35095215 304.2510376 C188.82976962 306.74017241 191.31149922 309.2264002 193.79296875 311.71289062 C198.64214049 316.57271583 203.48811988 321.43571303 208.33203125 326.30078125 C208.33614014 324.99931152 208.34024902 323.6978418 208.34448242 322.35693359 C208.36630228 317.51473734 208.42062216 312.67335035 208.48461914 307.83154297 C208.50777416 305.73852308 208.52218898 303.64538709 208.52758789 301.55224609 C208.53689553 298.53800309 208.57792654 295.52557994 208.625 292.51171875 C208.62106735 291.58024017 208.6171347 290.6487616 208.61308289 289.6890564 C208.71037787 285.32801617 208.89255916 282.25935901 211.6887207 278.78759766 C215.75284098 274.96408892 217.78421194 274.05109952 223.2722168 274.07373047 C225.10377571 274.07395706 225.10377571 274.07395706 226.97233582 274.07418823 C228.95056084 274.08967209 228.95056084 274.08967209 230.96875 274.10546875 C232.33209526 274.10919964 233.69544321 274.11204625 235.05879211 274.11404419 C238.64437279 274.12167472 242.22979104 274.1413181 245.81530762 274.16345215 C249.47515669 274.18392314 253.13503204 274.19304858 256.79492188 274.203125 C263.97403232 274.22456465 271.15300901 274.25869346 278.33203125 274.30078125 C278.32432709 273.68127594 278.31662292 273.06177063 278.3086853 272.42349243 C278.29969711 271.20573624 278.29969711 271.20573624 278.29052734 269.96337891 C278.28282318 269.1582486 278.27511902 268.35311829 278.2671814 267.52359009 C278.44975903 261.26551606 282.34412131 255.34613876 286.5234375 250.875 C293.10720997 245.14441619 299.66786476 243.55895535 308.2890625 243.953125 C316.33316357 244.8721558 321.96346889 248.21106872 327.33203125 254.30078125 C330.82558401 259.34232469 332.44761779 263.33506352 332.3828125 269.4831543 C332.37181519 270.83584663 332.37181519 270.83584663 332.3605957 272.21586609 C332.35116943 272.90388809 332.34174316 273.5919101 332.33203125 274.30078125 C345.98019427 274.28588668 359.62799084 274.24420392 373.27596092 274.16869068 C379.61387198 274.1344573 385.95154291 274.10931629 392.28955078 274.10522461 C398.41059271 274.10093398 404.53109328 274.07240662 410.65196609 274.02734947 C412.98259956 274.01439911 415.31329789 274.01005801 417.64396286 274.01462746 C420.91866659 274.01955067 424.19179853 273.99336234 427.46630859 273.96020508 C428.42153412 273.96883072 429.37675964 273.97745636 430.3609314 273.98634338 C437.22279111 273.87051402 442.62455768 272.18459818 448.33203125 268.30078125 C454.73248383 261.57710559 456.6323965 255.47706909 456.60618591 246.37678528 C456.61142259 245.47710374 456.61665927 244.5774222 456.62205464 243.65047759 C456.63705861 240.63518555 456.63775988 237.62006314 456.63842773 234.60473633 C456.64604904 232.44290887 456.65447648 230.28108412 456.66365051 228.1192627 C456.68560744 222.24510251 456.69439624 216.37099439 456.69947696 210.4967978 C456.70311964 206.82571116 456.70935931 203.15463818 456.71647835 199.48355675 C456.74097867 186.67286963 456.75402565 173.86222302 456.75756836 161.05151367 C456.76120227 149.11646604 456.79108602 137.18167578 456.83297294 125.24670678 C456.86768556 114.99599477 456.88311699 104.745368 456.88381439 94.49459761 C456.88460698 88.37414228 456.89333746 82.25394899 456.92181206 76.13355446 C456.9480084 70.37392418 456.95018873 64.61477288 456.93415642 58.85511017 C456.9323431 56.74523308 456.93902194 54.63532835 456.95497513 52.52551079 C457.35957193 36.47946551 457.35957193 36.47946551 449.92470455 22.72033405 C442.01460359 15.40642797 433.2528411 15.87645969 423.17355347 15.93569946 C421.61189893 15.93384004 420.05024552 15.93065048 418.48859608 15.92624795 C414.20419171 15.91792095 409.92000174 15.92814494 405.63561702 15.94133663 C401.01255575 15.95225126 396.38951625 15.94577268 391.76644897 15.94120789 C383.75783972 15.93546314 375.74929101 15.9400896 367.74068832 15.95122147 C356.15615984 15.96687226 344.57171293 15.96131404 332.98718323 15.94960503 C314.18465151 15.93071262 295.38213088 15.92149301 276.57958984 15.921875 C275.45440752 15.92189244 274.3292252 15.92190988 273.16994645 15.92192785 C260.61122045 15.92238025 248.05249844 15.92571177 235.49377441 15.93280029 C233.79934275 15.93374887 233.79934275 15.93374887 232.07068015 15.9347166 C230.94217064 15.93534917 229.81366113 15.93598173 228.65095437 15.93663347 C226.37521307 15.93790324 224.09947177 15.93916865 221.82373047 15.94042969 C220.1371031 15.94137197 220.1371031 15.94137197 218.41640244 15.9423333 C199.68165437 15.95227972 180.94697249 15.942981 162.21223843 15.91824567 C150.65343118 15.90379421 139.09485644 15.90591732 127.53606249 15.92920767 C119.62091584 15.94392869 111.70590581 15.94083215 103.79076467 15.92357875 C99.22095946 15.91421927 94.65153301 15.91315935 90.08175659 15.93380928 C85.90081862 15.95255536 81.72055698 15.94845934 77.53964318 15.92598169 C76.0249667 15.92193613 74.51023935 15.92640497 72.99561952 15.94011565 C70.93994654 15.95751383 68.8866704 15.94426215 66.8310833 15.92325783 C65.68850213 15.92374488 64.54592096 15.92423194 63.36871612 15.92473376 C59.3513898 15.09928728 57.84465737 13.47861217 55.33203125 10.30078125 C54.53072533 4.49131336 54.53072533 4.49131336 56.46748787 1.61378813 C59.20349655 -0.31290248 61.33794368 -0.07781828 64.6647253 -0.0823288 C65.31292717 -0.08728831 65.96112904 -0.09224783 66.62897339 -0.09735763 C68.81623496 -0.11038314 71.00289295 -0.1019075 73.19017029 -0.09362793 C74.76813491 -0.09851364 76.34609596 -0.10470195 77.92405087 -0.11208582 C82.27236317 -0.12855061 86.62049495 -0.12615413 90.96882761 -0.12071085 C95.6541426 -0.1180485 100.33940861 -0.13255787 105.02470398 -0.14480591 C114.21055185 -0.16589956 123.39633666 -0.17039837 132.58220588 -0.16861802 C140.05057551 -0.16731176 147.51892542 -0.1711076 154.98729134 -0.17854309 C157.13649672 -0.18064226 159.28570211 -0.18273986 161.4349075 -0.18483591 C163.03942437 -0.1864012 163.03942437 -0.1864012 164.67635573 -0.18799812 C184.92657367 -0.20691814 205.17675542 -0.2058456 225.42697854 -0.19902879 C243.94533631 -0.19345855 262.4635555 -0.21425348 280.9818809 -0.24738926 C299.99337438 -0.28114332 319.00480153 -0.29629201 338.01632553 -0.29167223 C348.69084552 -0.28942843 359.36523759 -0.29465684 370.03973198 -0.31956482 C379.13246929 -0.34060068 388.22500865 -0.34414778 397.31775414 -0.32526523 C401.95522938 -0.31611946 406.5923358 -0.31492844 411.2297821 -0.33562088 C415.48094335 -0.35437919 419.731435 -0.34977336 423.98257113 -0.32707506 C425.51498732 -0.32290133 427.04745532 -0.32704786 428.57981663 -0.340671 C441.99179783 -0.45172158 452.32017094 2.36269252 462.13671875 11.83203125 C469.56940157 20.19049307 472.63910163 28.5682799 472.59945679 39.60404968 C472.6039879 40.53246495 472.60851901 41.46088021 472.61318743 42.41742927 C472.62583329 45.52402383 472.62421092 48.63044312 472.62255859 51.73706055 C472.6285438 53.96637701 472.63534933 56.19569139 472.64291382 58.42500305 C472.66058373 64.47892336 472.66526968 70.53278712 472.66654539 76.58673072 C472.66796721 80.3708993 472.67223744 84.15505351 472.67753983 87.93921852 C472.69508981 100.46501129 472.70437967 112.99077192 472.70287888 125.51657441 C472.70275901 126.52870333 472.70275901 126.52870333 472.70263672 127.5612793 C472.70255496 128.23686104 472.7024732 128.91244279 472.70238896 129.6084967 C472.70157667 140.54857257 472.72070102 151.48851056 472.74891345 162.42854657 C472.77768798 173.67580996 472.79108548 184.9230083 472.7897259 196.17031604 C472.78921658 202.4790974 472.79488311 208.78772278 472.816082 215.09647179 C472.83548635 221.033355 472.83557354 226.9699338 472.82104874 232.90682793 C472.81896215 235.08078202 472.82365247 237.25475528 472.83576965 239.42867661 C472.91488099 254.61030217 472.34870622 266.76054153 461.33203125 278.30078125 C452.33257174 286.8919477 442.4356319 289.93668144 430.16918945 289.75488281 C429.11419754 289.75546692 428.05920563 289.75605103 426.97224426 289.75665283 C423.52541857 289.75389196 420.07948493 289.72289428 416.6328125 289.69140625 C414.22715222 289.68393677 411.82148582 289.67824718 409.41581726 289.67425537 C403.11437897 289.65905486 396.81331524 289.61982108 390.51202393 289.57543945 C384.06991643 289.53436613 377.62774784 289.51621865 371.18554688 289.49609375 C358.56751812 289.45332139 345.94986458 289.38301715 333.33203125 289.30078125 C333.66203125 296.89078125 333.99203125 304.48078125 334.33203125 312.30078125 C335.65203125 311.97078125 336.97203125 311.64078125 338.33203125 311.30078125 C347.35704406 310.50512521 354.87295761 310.78161321 362.33203125 316.30078125 C364.61965081 318.52409022 366.41606852 320.72935759 368.33203125 323.30078125 C369.20601563 322.86765625 369.20601563 322.86765625 370.09765625 322.42578125 C378.03957697 318.82943979 386.04168167 317.72203178 394.51953125 320.30078125 C400.73428074 323.04411209 405.88842465 327.9385159 409.39453125 333.67578125 C410.33203125 336.30078125 410.33203125 336.30078125 410.33203125 338.30078125 C411.03972656 337.98753906 411.74742187 337.67429687 412.4765625 337.3515625 C419.71512085 334.68785225 427.6715048 334.52859076 434.9453125 337.09375 C441.99116674 340.65703799 447.05555846 346.20175687 450.33203125 353.30078125 C451.22073942 356.22120472 451.47136331 358.86717548 451.5090332 361.9140625 C451.52186844 362.8218042 451.53470367 363.7295459 451.54792786 364.66479492 C451.55900826 366.12429565 451.55900826 366.12429565 451.5703125 367.61328125 C451.57838425 368.61915283 451.58645599 369.62502441 451.59477234 370.66137695 C451.60858766 372.78627815 451.6193212 374.9112013 451.62719727 377.03613281 C451.64446782 380.28883448 451.68838362 383.54053452 451.73242188 386.79296875 C451.74254431 388.85806545 451.75106181 390.92317077 451.7578125 392.98828125 C451.77532059 393.96128174 451.79282867 394.93428223 451.81086731 395.93676758 C451.78921995 402.65348587 451.78921995 402.65348587 449.48901367 405.91015625 C446.48128701 407.84926333 444.84531644 407.94607853 441.33203125 407.30078125 C438.58591767 405.291239 436.63799367 403.69507029 435.88571167 400.26687622 C435.72332601 397.77730502 435.71859176 395.3303659 435.765625 392.8359375 C435.75717308 391.46954384 435.75717308 391.46954384 435.74855042 390.07554626 C435.73211821 387.17093212 435.74762366 384.26784213 435.76953125 381.36328125 C435.78615157 378.46243261 435.79518126 375.56259255 435.77980042 372.66172791 C435.77055656 370.85977345 435.77956418 369.05760523 435.80943298 367.25587463 C435.78498222 361.62645667 434.97118064 358.64565853 431.33203125 354.30078125 C428.32684645 351.93956462 425.06714687 351.88217488 421.296875 351.98046875 C418.12897692 352.49690542 416.4924819 354.01324527 414.33203125 356.30078125 C412.23799609 359.38672781 411.65593746 362.89301077 410.89453125 366.49609375 C410.33203125 368.30078125 410.33203125 368.30078125 408.33203125 370.30078125 C402.69208214 370.9375497 402.69208214 370.9375497 400.33203125 370.30078125 C397.61117934 368.09068575 396.47077992 366.30587028 395.98876953 362.81420898 C395.81089097 358.7641841 395.82856982 354.7249822 395.84375 350.671875 C395.81229613 344.60864664 395.81229613 344.60864664 393.42578125 339.14453125 C389.69198731 335.85656345 386.65384767 335.91652843 381.81640625 335.9375 C378.09652245 336.48144527 376.53663324 338.38501733 374.33203125 341.30078125 C374.00203125 341.63078125 373.67203125 341.96078125 373.33203125 342.30078125 C373.22304534 343.94926355 373.17621717 345.60194586 373.15625 347.25390625 C373.13240234 348.26582031 373.10855469 349.27773438 373.08398438 350.3203125 C373.0413313 352.45813624 373.00991068 354.59621633 372.99023438 356.734375 C372.77812071 364.51845305 372.77812071 364.51845305 370.5078125 368.5 C368.33203125 370.30078125 368.33203125 370.30078125 364.83203125 370.86328125 C360.73437915 370.20473002 359.79480228 369.56521481 357.33203125 366.30078125 C356.84960938 363.09619141 356.84960938 363.09619141 356.86328125 359.33984375 C356.85623169 358.67165619 356.84918213 358.00346863 356.84191895 357.31503296 C356.81253269 354.46925663 356.8290141 351.62417191 356.84130859 348.77832031 C356.84370187 346.69425236 356.82270452 344.61127569 356.80078125 342.52734375 C356.80529297 341.28549316 356.80980469 340.04364258 356.81445312 338.76416016 C356.16797302 334.12298267 354.28138059 330.77959799 350.51953125 327.92578125 C345.75822852 326.56540904 342.40865408 326.73199938 338.01953125 329.05078125 C335.35727133 331.27965002 334.50034757 332.14595863 333.33203125 335.30078125 C333.01329179 338.62616423 333.01329179 338.62616423 333.0234375 342.33203125 C332.99828616 343.71354604 332.97288801 345.09505636 332.94726562 346.4765625 C332.91850246 348.64240441 332.89446735 350.80816894 332.87573242 352.97412109 C332.85405289 355.07298614 332.81462668 357.17097159 332.7734375 359.26953125 C332.75998291 360.52185547 332.74652832 361.77417969 332.73266602 363.06445312 C332.30661801 366.50606947 331.85873829 367.9546302 329.33203125 370.30078125 C323.86115746 371.08233465 323.86115746 371.08233465 321.33203125 370.30078125 C318.19035843 367.39456767 317.06956953 365.15509029 316.84669495 360.97473145 C316.83264071 359.22473599 316.84042201 357.47448188 316.86547852 355.72460938 C316.8631723 354.76630722 316.86086609 353.80800507 316.85848999 352.82066345 C316.85586336 350.74395536 316.86229184 348.6672204 316.87674141 346.59056091 C316.89862672 343.30361261 316.89491144 340.01758464 316.88426208 336.73059082 C316.86259208 328.56875084 316.87998152 320.40711553 316.90576172 312.24530029 C316.92714724 305.34549809 316.9291345 298.44628565 316.90284538 291.54649353 C316.89848968 288.30832708 316.92314747 285.07118085 316.94837952 281.83312988 C316.9431091 279.84773298 316.93638688 277.86233922 316.92797852 275.87695312 C316.94288834 274.97706161 316.95779816 274.0771701 316.97315979 273.15000916 C316.9220221 268.67115496 316.79482688 266.88324759 313.91978455 263.26477051 C309.97748816 260.2727435 307.45590343 259.91008803 302.59375 259.94140625 C299.00682196 260.51134991 297.46364231 262.50304174 295.33203125 265.30078125 C293.84816633 268.26851109 294.13457799 271.31720668 294.0859375 274.57421875 C294.05299644 276.05339128 294.01978484 277.5325578 293.98632812 279.01171875 C293.9389387 281.34435865 293.89451115 283.67697465 293.85522461 286.00976562 C293.8154382 288.26067574 293.76390816 290.51108567 293.7109375 292.76171875 C293.70252335 293.45663422 293.69410919 294.15154968 293.68544006 294.86752319 C293.59339999 298.48412735 293.3756057 301.25778774 291.33203125 304.30078125 C288.69459909 306.35211737 287.16264482 306.30078125 283.76953125 306.30078125 C280.33203125 305.30078125 280.33203125 305.30078125 278.39453125 302.86328125 C277.33203125 299.30078125 277.33203125 299.30078125 277.33203125 289.30078125 C259.84203125 289.30078125 242.35203125 289.30078125 224.33203125 289.30078125 C224.49007263 304.16948347 224.49007263 304.16948347 224.69238281 319.03759766 C224.70407126 320.90917039 224.71426272 322.78075334 224.72265625 324.65234375 C224.74312012 325.61487061 224.76358398 326.57739746 224.78466797 327.5690918 C224.78834084 334.65956095 223.49205917 337.90667718 218.64453125 343.11328125 C215.06669171 344.9505502 211.34218852 345.59927192 207.33203125 345.30078125 C202.6704796 343.31896884 199.55905106 340.88752592 196.0168457 337.29443359 C195.52335632 336.79816971 195.02986694 336.30190582 194.52142334 335.79060364 C192.90574177 334.16272101 191.30076138 332.52468799 189.6953125 330.88671875 C188.56844874 329.74916997 187.44076531 328.61243261 186.31230164 327.47647095 C183.35291435 324.49436668 180.40180155 321.50422535 177.45324707 318.51141357 C172.72508835 313.7128925 167.98928576 308.92202068 163.24431419 304.14012527 C161.58964272 302.46874418 159.94153014 300.79108322 158.29377747 299.11288452 C157.28245961 298.09110869 156.27089176 297.06958022 155.2590332 296.04833984 C154.37778275 295.15359955 153.49653229 294.25885925 152.58857727 293.33700562 C148.92665068 290.03261737 145.87195691 290.17474771 141.1229248 290.16947937 C139.82208954 290.16547119 138.52125427 290.16146301 137.18099976 290.15733337 C135.73590086 290.15780849 134.29080198 290.1583446 132.84570312 290.15893555 C131.32618102 290.15590385 129.80665982 290.15238237 128.28713989 290.14840698 C125.01159056 290.14051571 121.73605214 290.13537208 118.460495 290.13211632 C113.27363766 290.12620227 108.08684881 290.10965612 102.90002441 290.09077454 C101.12316136 290.08443686 99.34629826 290.07811124 97.56943512 290.07179737 C96.6794473 290.06863156 95.78945948 290.06546575 94.87250233 290.062204 C82.79750086 290.02016757 70.72253066 289.98717899 58.64746094 289.97485352 C50.5029343 289.96645467 42.35857674 289.9438936 34.21413469 289.90549785 C29.90733165 289.88579244 25.60078104 289.87331405 21.29393005 289.87833214 C17.23574924 289.88300258 13.17804552 289.86904361 9.11996078 289.84132004 C7.63781679 289.83444735 6.15562304 289.83423905 4.67348099 289.84152031 C-8.50011857 289.89965475 -18.9166781 287.6096693 -28.66796875 278.30078125 C-40.49320435 265.91355425 -40.2553379 252.47370749 -40.20141602 236.31274414 C-40.2084812 234.08430919 -40.21722873 231.85587904 -40.2275238 229.62745667 C-40.24995965 223.59848984 -40.24709159 217.56978625 -40.23820233 211.54079366 C-40.23307989 206.4986238 -40.24039519 201.45650287 -40.24767441 196.41433805 C-40.26562431 183.8362221 -40.25928163 171.25826284 -40.2415046 158.68016326 C-40.22681076 147.77983549 -40.24143742 136.87978345 -40.27027477 125.97949118 C-40.29973254 114.76029675 -40.31011547 103.54122606 -40.30109257 92.32198328 C-40.29617306 86.03390657 -40.29832647 79.74604411 -40.31888008 73.45799446 C-40.33728723 67.5439421 -40.33121642 61.63040057 -40.30668068 55.71637535 C-40.30168896 53.5525195 -40.30511967 51.38862439 -40.31782913 49.22480011 C-40.40182873 33.6884303 -39.44013171 22.21396518 -28.13671875 10.49609375 C-19.64887792 2.94836187 -11.19161359 -0.01161322 0 0 Z " fill="#000000" transform="translate(39.66796875,-0.30078125)"/>
<path d="M0 0 C4.63843279 1.7394123 4.63843279 1.7394123 6.5 4.3125 C6.90786743 7.12504578 6.90786743 7.12504578 6.95166016 10.5847168 C6.9740274 11.8800383 6.99639465 13.1753598 7.0194397 14.50993347 C7.02734767 15.92718826 7.03385342 17.34445147 7.0390625 18.76171875 C7.05124719 20.21800483 7.06373334 21.67428843 7.07650757 23.13056946 C7.098993 26.18630589 7.10853808 29.2417929 7.11083984 32.29760742 C7.11610776 36.19759053 7.16733427 40.0954722 7.23035622 43.99489117 C7.27140712 47.00543703 7.28048343 50.01548465 7.28095627 53.02628517 C7.28631509 54.46275493 7.30306918 55.89923214 7.33180618 57.33542442 C7.56291673 69.94273653 7.56291673 69.94273653 3.20068359 75.06958008 C1.39413452 76.80085754 1.39413452 76.80085754 -0.5 78.3125 C-1.16285004 78.87567429 -1.82570007 79.43884857 -2.50863647 80.01908875 C-4.5 81.3125 -4.5 81.3125 -8.0625 81.25 C-11.5 80.3125 -11.5 80.3125 -13.4375 78.625 C-14.8613395 75.5260552 -15.05153827 73.69067188 -14.5 70.3125 C-13.675 69.52875 -12.85 68.745 -12 67.9375 C-9.13575945 65.47987522 -9.13575945 65.47987522 -9.203125 61.72265625 C-9.35804705 56.99538188 -10.45189851 52.65317275 -11.75 48.125 C-11.95496094 47.34447266 -12.15992188 46.56394531 -12.37109375 45.75976562 C-13.90216228 40.28967532 -15.71627327 35.96768887 -20.8125 32.9375 C-24.41243865 32.10030496 -26.91841597 32.41710399 -30.5 33.3125 C-33.20567626 35.13589052 -35.03728718 36.38707436 -36.5 39.3125 C-37.07982747 46.73604868 -35.24559169 53.35156345 -33.375 60.5 C-33.05805176 61.73943359 -32.74110352 62.97886719 -32.41455078 64.25585938 C-30.28828647 72.49739159 -28.01810702 80.6909191 -25.63037109 88.86010742 C-23.9462157 94.64679346 -22.42955509 100.45802249 -21 106.3125 C-18.85343233 115.09146701 -16.4360706 123.77463264 -13.90234375 132.44921875 C-13.03533341 135.42091553 -12.20640385 138.39499433 -11.44140625 141.39453125 C-8.50204002 152.65193803 -4.92239816 160.36423456 4.9375 166.9375 C11.29087941 170.34663042 16.88265753 170.60512593 23.93652344 170.5871582 C24.97472229 170.59226913 26.01292114 170.59738007 27.08258057 170.60264587 C30.50823769 170.61652376 33.93369314 170.61558606 37.359375 170.61328125 C39.74823074 170.61716989 42.13708579 170.6215049 44.52593994 170.62626648 C49.53261557 170.63372536 54.53922068 170.63344031 59.54589844 170.62817383 C65.94577998 170.6223875 72.34537133 170.63929186 78.74520493 170.6625185 C83.67988763 170.6772898 88.61450106 170.67812277 93.54920197 170.67500877 C95.90778426 170.67552053 98.26637057 170.68073084 100.62493134 170.69082069 C103.93210885 170.70322987 107.23872907 170.69636562 110.54589844 170.68481445 C111.51039917 170.69245819 112.4748999 170.70010193 113.46862793 170.70797729 C122.58323167 170.63801409 130.12736418 168.70711157 137.5 163.3125 C138.49 162.9825 139.48 162.6525 140.5 162.3125 C141.52651373 160.59730253 141.52651373 160.59730253 142.5 158.3125 C144.5 154.9375 144.5 154.9375 145.5 153.2890625 C148.41247197 147.53237961 148.78100505 142.42798882 148.7734375 136.1171875 C148.7937124 134.33202482 148.8145629 132.5468686 148.8359375 130.76171875 C148.85859144 127.96592711 148.87503564 125.17039116 148.88085938 122.37451172 C148.89036748 119.6632758 148.92410324 116.95317046 148.9609375 114.2421875 C148.95589203 113.4067038 148.95084656 112.57122009 148.94564819 111.7104187 C149.04399111 105.91834207 149.04399111 105.91834207 151.38134766 102.81298828 C153.90504002 101.02563944 155.39887843 100.38813711 158.5 100.3125 C163.09701493 102.50652985 163.09701493 102.50652985 164.5 105.3125 C164.63628356 108.37991405 164.71288431 111.42333017 164.73828125 114.4921875 C164.746353 115.41532745 164.75442474 116.33846741 164.76274109 117.2895813 C164.77659499 119.25162881 164.78731128 121.21370055 164.79516602 123.17578125 C164.81223301 126.1411112 164.85608843 129.10528305 164.90039062 132.0703125 C165.02001047 146.53140422 163.40492828 157.49634517 154.5 169.3125 C153.9225 170.17875 153.345 171.045 152.75 171.9375 C145.90425085 179.16356855 135.41163541 185.84852066 125.21130276 186.44672108 C124.3664787 186.45099456 123.52165464 186.45526804 122.65122986 186.45967102 C121.19014297 186.47040398 121.19014297 186.47040398 119.69953918 186.48135376 C118.63716537 186.48404266 117.57479156 186.48673157 116.48022461 186.48950195 C115.35614197 186.49607315 114.23205933 186.50264435 113.07391357 186.50941467 C109.35005628 186.52914036 105.62623934 186.5408101 101.90234375 186.55078125 C99.99222598 186.55689454 99.99222598 186.55689454 98.04351997 186.56313133 C91.99561711 186.58184102 85.94773862 186.5964055 79.89981455 186.6047433 C72.94158826 186.61449666 65.98368171 186.6407689 59.02556795 186.68124419 C52.98142499 186.71518348 46.93743573 186.72689994 40.89319038 186.73094749 C38.33166909 186.73580686 35.77015104 186.74740216 33.20869255 186.76598549 C29.61405183 186.79043885 26.02023625 186.78939976 22.42553711 186.7824707 C21.37733292 186.79528076 20.32912872 186.80809082 19.24916077 186.82128906 C7.24016536 186.73738028 -3.93726313 182.16374275 -12.9140625 174.16015625 C-23.06409363 163.6876325 -26.63840989 150.44219148 -30.1796875 136.7265625 C-30.5993344 135.1376195 -31.02002383 133.54895152 -31.44168091 131.96054077 C-32.54405105 127.79631532 -33.63202591 123.6284633 -34.71691895 119.45965576 C-35.79576149 115.32489317 -36.88880102 111.19389111 -37.98046875 107.0625 C-39.8941403 99.81255028 -41.7897988 92.55805436 -43.6759758 85.30090714 C-44.87795812 80.6817787 -46.09384462 76.06663424 -47.32347679 71.45479012 C-48.08651353 68.58948995 -48.84297724 65.72247829 -49.59833145 62.8551445 C-50.11672068 60.89673053 -50.64365922 58.94058578 -51.17086792 56.98452759 C-53.68235866 47.40928985 -54.81611006 39.56327093 -50.5 30.3125 C-45.62187885 23.1393978 -40.11352529 18.100688 -31.5 16.3125 C-23.56038 15.33563576 -17.45931322 16.37591879 -10.5 20.3125 C-10.46261719 19.35988281 -10.42523438 18.40726562 -10.38671875 17.42578125 C-10.32097656 16.17152344 -10.25523437 14.91726563 -10.1875 13.625 C-10.10048828 11.76294922 -10.10048828 11.76294922 -10.01171875 9.86328125 C-9.48253228 6.19129272 -8.72400638 4.24438489 -6.5 1.3125 C-3.5 -0.6875 -3.5 -0.6875 0 0 Z " fill="#010100" transform="translate(326.5,325.6875)"/>
<path d="M0 0 C20.26573984 -1.05795626 20.26573984 -1.05795626 28.828125 6.64453125 C34.85058923 13.12014206 36.44940783 19.56890069 36.39440918 28.164505 C36.40354584 29.51659059 36.40354584 29.51659059 36.41286707 30.89599103 C36.42946637 33.90515537 36.42472558 36.91389513 36.41992188 39.9230957 C36.42726402 42.08521971 36.43585067 44.2473398 36.44558716 46.40945435 C36.46779762 52.27526141 36.47073402 58.14092798 36.46883965 64.00677133 C36.46871991 68.90725995 36.47728536 73.80771885 36.48561716 78.7081992 C36.50484996 90.27220182 36.50773565 101.83613225 36.50097656 113.40014648 C36.49433725 125.32047899 36.51719627 137.24050194 36.55429029 149.16077167 C36.58500344 159.40304067 36.59634551 169.64521018 36.59245348 179.88752431 C36.59038749 186.00123015 36.59584225 192.11469516 36.62034607 198.22835732 C36.64263672 203.97982419 36.64071556 209.73078851 36.62041855 215.48225784 C36.61701255 217.58890487 36.62207982 219.69558587 36.63640213 221.80218697 C36.77569721 243.81554391 36.77569721 243.81554391 29.24459076 251.87964344 C22.45675566 258.40874554 15.53061222 259.44168663 6.47485352 259.34057617 C5.43995285 259.34101425 4.40505219 259.34145233 3.33879089 259.34190369 C-0.06469927 259.3398221 -3.46769017 259.31652023 -6.87109375 259.29296875 C-9.23763256 259.28737057 -11.60417485 259.28310152 -13.97071838 259.28010559 C-20.18665232 259.26867438 -26.40237456 259.23922176 -32.6182251 259.20599365 C-38.9661574 259.17525576 -45.31412404 259.16159229 -51.66210938 259.14648438 C-64.10816571 259.11435063 -76.55406522 259.06317491 -89 259 C-89 257.02 -89 255.04 -89 253 C-88.67 253 -88.34 253 -88 253 C-88 254.65 -88 256.3 -88 258 C-76.49921218 258.05466903 -64.9992576 258.06635891 -53.49839592 258.02334595 C-48.1578187 258.00471925 -42.81808244 258.00083613 -37.47753906 258.03076172 C-32.32235462 258.05910433 -27.16857435 258.0485688 -22.01346207 258.01119995 C-20.04791683 258.00375971 -18.08226712 258.01027289 -16.11681747 258.03103638 C-13.359995 258.05776408 -10.60771498 258.0346483 -7.85107422 258 C-7.04043015 258.01941147 -6.22978607 258.03882294 -5.39457703 258.05882263 C-1.94478742 257.97037355 0.15895932 257.75908763 2.77447128 255.3984375 C8.42541898 248.21254659 10.45237093 241.72977064 10.38095093 232.75283813 C10.3856309 231.84257508 10.39031087 230.93231202 10.39513266 229.99446523 C10.40706409 226.95530749 10.3976325 223.91660221 10.38818359 220.87744141 C10.39225017 218.69399249 10.39759253 216.51054563 10.40411377 214.32710266 C10.41778451 208.40349671 10.4124892 202.4800476 10.40297651 196.55643892 C10.3953768 190.35332602 10.40242658 184.15022647 10.40713501 177.94711304 C10.41294196 166.86093139 10.40362171 155.77481906 10.388357 144.68864851 C10.37496102 134.64916784 10.37727707 124.60979128 10.39111328 114.5703125 C10.40713427 102.89900745 10.41313104 91.22776751 10.40427649 79.55645311 C10.39960467 73.38304482 10.3989615 67.20970814 10.40888596 61.03630447 C10.41756826 55.22994305 10.4115104 49.42377767 10.39420319 43.61743736 C10.39024476 41.48941434 10.39136133 39.36137476 10.39799118 37.23335838 C10.40622234 34.32239443 10.39586586 31.41205369 10.38095093 28.50112915 C10.38764309 27.66443809 10.39433526 26.82774703 10.40123022 25.9657017 C10.2967042 15.40520249 6.22937953 8.29994035 0 0 Z " fill="#6FD6A2" transform="translate(461,15)"/>
<path d="M0 0 C1.70736328 -0.03577148 1.70736328 -0.03577148 3.44921875 -0.07226562 C12.35166888 -0.0569342 19.00006193 1.79752925 25.8125 7.66015625 C26.5859375 8.63275391 26.5859375 8.63275391 27.375 9.625 C27.91125 10.27597656 28.4475 10.92695313 29 11.59765625 C33.40361308 17.89031926 33.03302327 24.04584958 32.375 31.5625 C30.74049194 38.04880731 26.00778449 43.10465187 20.375 46.5625 C17.1171875 47.25390625 17.1171875 47.25390625 14.375 47.5625 C15.68403944 49.19028899 16.99749006 50.81453047 18.3125 52.4375 C19.53066406 53.94376953 19.53066406 53.94376953 20.7734375 55.48046875 C23.17819316 58.39144093 25.79500079 61.05297303 28.4375 63.75 C31.16435392 66.75383734 32.98334773 68.81581774 33.25 72.9375 C32.375 76.5625 32.375 76.5625 30.25 79.125 C27.375 80.5625 27.375 80.5625 24.5 80.75 C17.06791252 77.92580676 12.37722835 70.24761802 7.5859375 64.2109375 C5.37195729 61.46822216 5.37195729 61.46822216 2.6015625 58.8515625 C0.375 56.5625 0.375 56.5625 0.375 54.5625 C-0.285 54.5625 -0.945 54.5625 -1.625 54.5625 C-1.59881592 55.13693848 -1.57263184 55.71137695 -1.5456543 56.30322266 C-1.441082 58.93103171 -1.37649056 61.55840231 -1.3125 64.1875 C-1.2496582 65.54294922 -1.2496582 65.54294922 -1.18554688 66.92578125 C-1.10439965 71.37264908 -1.12448299 74.60001706 -3.91796875 78.20703125 C-6.625 80.5625 -6.625 80.5625 -10.25 80.625 C-14.76209219 79.20452653 -14.76209219 79.20452653 -16.625 76.5625 C-17.01268005 73.49525452 -17.01268005 73.49525452 -17.02905273 69.67602539 C-17.03591599 68.9797554 -17.04277924 68.28348541 -17.04985046 67.56611633 C-17.06815553 65.26392233 -17.06427584 62.96240743 -17.05859375 60.66015625 C-17.06315399 59.05976642 -17.06845909 57.45937854 -17.07447815 55.85899353 C-17.08341664 52.50397794 -17.08097809 49.14920029 -17.07104492 45.79418945 C-17.0595574 41.49531371 -17.0797589 37.19725963 -17.10896206 32.89849186 C-17.12731195 29.59304082 -17.12703402 26.28778709 -17.12132454 22.9822979 C-17.12117116 21.39746384 -17.12722952 19.81261655 -17.13961601 18.22783089 C-17.15450132 16.01082018 -17.14386921 13.79533231 -17.12670898 11.57836914 C-17.12654282 10.31722794 -17.12637665 9.05608673 -17.12620544 7.75672913 C-15.67166421 -1.51319805 -7.4443734 -0.07022994 0 0 Z " fill="#020302" transform="translate(190.625,153.4375)"/>
<path d="M0 0 C3.58259706 2.09260753 5.59457474 3.99710594 7.1875 7.9375 C7 11 7 11 5 14.4375 C2 17 2 17 -1.1875 17.1875 C-4.43485333 16.17602929 -6.91178753 15.03625649 -9.875 13.4375 C-14.67112235 10.9262883 -18.63272466 9.86949122 -24 11 C-27.14849606 12.41670711 -27.14849606 12.41670711 -29 15 C-29.41809201 18.16848027 -29.41809201 18.16848027 -29 21 C-27.82050781 21.38091797 -27.82050781 21.38091797 -26.6171875 21.76953125 C-22.07993625 23.31298065 -17.59860024 24.96918549 -13.125 26.6875 C-12.26519531 27.00138672 -11.40539062 27.31527344 -10.51953125 27.63867188 C-2.94046596 30.57714104 3.31713843 34.74784092 7.5 41.875 C9.80890666 47.2589976 10.01407924 52.03404258 8.1171875 57.58203125 C4.59352924 65.36441556 -0.01989752 69.84683912 -7.75 73.375 C-17.53609558 76.89326397 -26.6859569 75.23483689 -36 71 C-38.90600298 69.22700634 -41.45107339 67.24869247 -44 65 C-45.2375 64.0409375 -45.2375 64.0409375 -46.5 63.0625 C-48 61 -48 61 -48.5625 57.5 C-48 54 -48 54 -45.9375 51.5 C-42.01951428 49.49932644 -40.19401899 49.74915223 -36 51 C-33.95880212 52.61594832 -31.95927063 54.2856382 -30 56 C-24.66731465 58.86384954 -20.91540191 59.56337161 -15 59 C-10.9773783 57.43564712 -9.40850891 56.61276337 -7 53 C-6.52277514 50.01272813 -6.52277514 50.01272813 -8 47 C-12.23369265 43.88299233 -17.38408768 42.24244606 -22.234375 40.30859375 C-22.97816406 40.00945068 -23.72195312 39.71030762 -24.48828125 39.40209961 C-25.96494584 38.81312339 -27.44661837 38.2365094 -28.93359375 37.67407227 C-35.97548378 34.90726681 -41.13890205 31.2483366 -44.3046875 24.171875 C-46.00454794 18.86219858 -45.70832877 13.98176029 -43.5 8.875 C-33.99950361 -7.94389997 -15.60124284 -7.83289985 0 0 Z " fill="#030403" transform="translate(92,159)"/>
<path d="M0 0 C3.58259706 2.09260753 5.59457474 3.99710594 7.1875 7.9375 C7 11 7 11 5 14.4375 C2 17 2 17 -1.1875 17.1875 C-4.43485333 16.17602929 -6.91178753 15.03625649 -9.875 13.4375 C-14.67112235 10.9262883 -18.63272466 9.86949122 -24 11 C-27.14849606 12.41670711 -27.14849606 12.41670711 -29 15 C-29.41809201 18.16848027 -29.41809201 18.16848027 -29 21 C-27.82050781 21.38091797 -27.82050781 21.38091797 -26.6171875 21.76953125 C-22.07993625 23.31298065 -17.59860024 24.96918549 -13.125 26.6875 C-12.26519531 27.00138672 -11.40539062 27.31527344 -10.51953125 27.63867188 C-2.94046596 30.57714104 3.31713843 34.74784092 7.5 41.875 C9.80890666 47.2589976 10.01407924 52.03404258 8.1171875 57.58203125 C4.59352924 65.36441556 -0.01989752 69.84683912 -7.75 73.375 C-17.53609558 76.89326397 -26.6859569 75.23483689 -36 71 C-38.90600298 69.22700634 -41.45107339 67.24869247 -44 65 C-45.2375 64.0409375 -45.2375 64.0409375 -46.5 63.0625 C-48 61 -48 61 -48.5625 57.5 C-48 54 -48 54 -45.9375 51.5 C-42.01951428 49.49932644 -40.19401899 49.74915223 -36 51 C-33.95880212 52.61594832 -31.95927063 54.2856382 -30 56 C-24.66731465 58.86384954 -20.91540191 59.56337161 -15 59 C-10.9773783 57.43564712 -9.40850891 56.61276337 -7 53 C-6.52277514 50.01272813 -6.52277514 50.01272813 -8 47 C-12.23369265 43.88299233 -17.38408768 42.24244606 -22.234375 40.30859375 C-22.97816406 40.00945068 -23.72195312 39.71030762 -24.48828125 39.40209961 C-25.96494584 38.81312339 -27.44661837 38.2365094 -28.93359375 37.67407227 C-35.97548378 34.90726681 -41.13890205 31.2483366 -44.3046875 24.171875 C-46.00454794 18.86219858 -45.70832877 13.98176029 -43.5 8.875 C-33.99950361 -7.94389997 -15.60124284 -7.83289985 0 0 Z " fill="#030403" transform="translate(92,60)"/>
<path d="M0 0 C1.49609375 1.18359375 1.49609375 1.18359375 2.49609375 3.18359375 C2.88112751 6.72590436 2.91545334 8.54616717 0.93359375 11.55859375 C-2.53205506 13.86902629 -4.37080338 13.71689735 -8.50390625 13.18359375 C-10.12240416 12.55251557 -11.72608149 11.8826376 -13.31640625 11.18359375 C-19.47197905 8.5854019 -24.73037395 7.92202822 -31.14453125 10.06640625 C-37.73281222 13.04494046 -42.47673983 16.98297055 -45.640625 23.5390625 C-47.81460232 30.19871247 -47.32780624 38.04931564 -44.4765625 44.44140625 C-40.86927561 50.90265105 -36.10717574 54.76720314 -29.06640625 56.93359375 C-21.62475455 57.65960855 -16.8218284 57.3860768 -10.50390625 53.18359375 C-9.82328125 52.44109375 -9.14265625 51.69859375 -8.44140625 50.93359375 C-6.50390625 49.18359375 -6.50390625 49.18359375 -3.00390625 48.74609375 C2.33159159 49.41303098 2.33159159 49.41303098 4.49609375 52.18359375 C5.24723181 56.28071045 5.54067224 58.61830394 3.203125 62.12109375 C-2.72634222 68.41691249 -10.9274417 72.56796352 -19.546875 73.51953125 C-31.97217132 73.67388276 -42.40776273 69.95654658 -51.4765625 61.30078125 C-60.27688342 51.77177134 -63.24839429 41.15705211 -62.87109375 28.2578125 C-62.15779091 17.41915052 -56.3101473 9.33931471 -48.50390625 2.18359375 C-34.05445694 -9.60018129 -15.59849394 -10.0746812 0 0 Z " fill="#020402" transform="translate(405.50390625,160.81640625)"/>
<path d="M0 0 C1.0370105 -0.00361794 1.0370105 -0.00361794 2.0949707 -0.00730896 C3.55067708 -0.00633331 5.00642186 0.00699336 6.46191406 0.03198242 C8.6816291 0.06631544 10.8973626 0.05262782 13.1171875 0.03320312 C14.53647516 0.04010211 15.95575262 0.04977499 17.375 0.0625 C18.65761719 0.07337646 19.94023437 0.08425293 21.26171875 0.09545898 C25.24042516 0.71500527 26.92693912 1.73400757 29.6875 4.62890625 C30.3125 8.12890625 30.3125 8.12890625 29.6875 11.62890625 C27.46119834 14.30616453 25.69672303 15.49976397 22.21484375 15.9453125 C19.25832064 16.02290081 16.33082359 15.97724459 13.375 15.87890625 C11.83489258 15.85183594 11.83489258 15.85183594 10.26367188 15.82421875 C7.73787929 15.77722726 5.21256863 15.70548794 2.6875 15.62890625 C2.6875 21.23890625 2.6875 26.84890625 2.6875 32.62890625 C4.76611328 32.55929688 4.76611328 32.55929688 6.88671875 32.48828125 C8.71612424 32.45075498 10.54555309 32.41435574 12.375 32.37890625 C13.74301758 32.32863281 13.74301758 32.32863281 15.13867188 32.27734375 C19.45219175 32.21460164 21.99716207 32.22996724 25.796875 34.42578125 C27.6875 36.62890625 27.6875 36.62890625 28.25 40.12890625 C27.6875 43.62890625 27.6875 43.62890625 26.32421875 45.83203125 C22.12807901 48.69162277 17.88262195 48.05010887 12.9375 47.87890625 C11.95394531 47.86085937 10.97039062 47.8428125 9.95703125 47.82421875 C7.53343659 47.77715866 5.11034375 47.70541711 2.6875 47.62890625 C2.6875 53.56890625 2.6875 59.50890625 2.6875 65.62890625 C4.30140625 65.5825 5.9153125 65.53609375 7.578125 65.48828125 C9.69789817 65.45076314 11.81769134 65.41436303 13.9375 65.37890625 C15.00097656 65.34539062 16.06445312 65.311875 17.16015625 65.27734375 C18.18496094 65.26445312 19.20976562 65.2515625 20.265625 65.23828125 C21.67956543 65.20686035 21.67956543 65.20686035 23.12207031 65.17480469 C26.47560871 65.76840779 27.62845645 66.9653076 29.6875 69.62890625 C30.25 73.12890625 30.25 73.12890625 29.6875 76.62890625 C26.92001118 79.54546127 25.25146207 80.54669429 21.24584961 81.13061523 C19.95686768 81.12876221 18.66788574 81.12690918 17.33984375 81.125 C16.64613174 81.12645523 15.95241974 81.12791046 15.23768616 81.12940979 C13.77779928 81.12775653 12.31789393 81.11625943 10.8581543 81.09545898 C8.6279891 81.06644514 6.40019566 81.07487107 4.16992188 81.08789062 C-6.57817204 81.04076943 -6.57817204 81.04076943 -9.70092773 79.28930664 C-12.87717316 76.01682593 -12.45920729 72.35570055 -12.50537109 68.03369141 C-12.51354858 67.36828842 -12.52172607 66.70288544 -12.53015137 66.01731873 C-12.55494353 63.81754446 -12.57150377 61.61783437 -12.5859375 59.41796875 C-12.59126118 58.66571392 -12.59658485 57.91345909 -12.60206985 57.13840866 C-12.62877229 53.15803802 -12.64815797 49.17769846 -12.66259766 45.19726562 C-12.6759468 41.90499142 -12.7038201 38.61333559 -12.74462891 35.32128906 C-12.79393965 31.34311483 -12.81871609 27.36550217 -12.82582474 23.38703537 C-12.8325366 21.87275433 -12.84775729 20.3584858 -12.87171555 18.84437943 C-12.90336941 16.72322599 -12.90340568 14.60423816 -12.89599609 12.48291016 C-12.90408295 11.27728424 -12.9121698 10.07165833 -12.92050171 8.82949829 C-11.53959254 1.56023104 -6.74930251 -0.00381556 0 0 Z " fill="#020302" transform="translate(128.3125,153.37109375)"/>
<path d="M0 0 C1.0370105 -0.00361794 1.0370105 -0.00361794 2.0949707 -0.00730896 C3.55067708 -0.00633331 5.00642186 0.00699336 6.46191406 0.03198242 C8.6816291 0.06631544 10.8973626 0.05262782 13.1171875 0.03320312 C14.53647516 0.04010211 15.95575262 0.04977499 17.375 0.0625 C18.65761719 0.07337646 19.94023437 0.08425293 21.26171875 0.09545898 C25.24042516 0.71500527 26.92693912 1.73400757 29.6875 4.62890625 C30.3125 8.12890625 30.3125 8.12890625 29.6875 11.62890625 C27.46119834 14.30616453 25.69672303 15.49976397 22.21484375 15.9453125 C19.25832064 16.02290081 16.33082359 15.97724459 13.375 15.87890625 C11.83489258 15.85183594 11.83489258 15.85183594 10.26367188 15.82421875 C7.73787929 15.77722726 5.21256863 15.70548794 2.6875 15.62890625 C2.6875 21.23890625 2.6875 26.84890625 2.6875 32.62890625 C4.76611328 32.55929688 4.76611328 32.55929688 6.88671875 32.48828125 C8.71612424 32.45075498 10.54555309 32.41435574 12.375 32.37890625 C13.74301758 32.32863281 13.74301758 32.32863281 15.13867188 32.27734375 C19.45219175 32.21460164 21.99716207 32.22996724 25.796875 34.42578125 C27.6875 36.62890625 27.6875 36.62890625 28.25 40.12890625 C27.6875 43.62890625 27.6875 43.62890625 26.32421875 45.83203125 C22.12807901 48.69162277 17.88262195 48.05010887 12.9375 47.87890625 C11.95394531 47.86085937 10.97039062 47.8428125 9.95703125 47.82421875 C7.53343659 47.77715866 5.11034375 47.70541711 2.6875 47.62890625 C2.6875 53.56890625 2.6875 59.50890625 2.6875 65.62890625 C4.30140625 65.5825 5.9153125 65.53609375 7.578125 65.48828125 C9.69789817 65.45076314 11.81769134 65.41436303 13.9375 65.37890625 C15.00097656 65.34539062 16.06445312 65.311875 17.16015625 65.27734375 C18.18496094 65.26445313 19.20976562 65.2515625 20.265625 65.23828125 C21.67956543 65.20686035 21.67956543 65.20686035 23.12207031 65.17480469 C26.47560871 65.76840779 27.62845645 66.9653076 29.6875 69.62890625 C30.25 73.12890625 30.25 73.12890625 29.6875 76.62890625 C26.92001118 79.54546127 25.25146207 80.54669429 21.24584961 81.13061523 C19.95686768 81.12876221 18.66788574 81.12690918 17.33984375 81.125 C16.64613174 81.12645523 15.95241974 81.12791046 15.23768616 81.12940979 C13.77779928 81.12775653 12.31789393 81.11625943 10.8581543 81.09545898 C8.6279891 81.06644514 6.40019566 81.07487107 4.16992188 81.08789062 C-6.57817204 81.04076943 -6.57817204 81.04076943 -9.70092773 79.28930664 C-12.87717316 76.01682593 -12.45920729 72.35570055 -12.50537109 68.03369141 C-12.51354858 67.36828842 -12.52172607 66.70288544 -12.53015137 66.01731873 C-12.55494353 63.81754446 -12.57150377 61.61783437 -12.5859375 59.41796875 C-12.59126118 58.66571392 -12.59658485 57.91345909 -12.60206985 57.13840866 C-12.62877229 53.15803802 -12.64815797 49.17769846 -12.66259766 45.19726562 C-12.6759468 41.90499142 -12.7038201 38.61333559 -12.74462891 35.32128906 C-12.79393965 31.34311483 -12.81871609 27.36550217 -12.82582474 23.38703537 C-12.8325366 21.87275433 -12.84775729 20.3584858 -12.87171555 18.84437943 C-12.90336941 16.72322599 -12.90340568 14.60423816 -12.89599609 12.48291016 C-12.90408295 11.27728424 -12.9121698 10.07165833 -12.92050171 8.82949829 C-11.53959254 1.56023104 -6.74930251 -0.00381556 0 0 Z " fill="#020302" transform="translate(128.3125,54.37109375)"/>
<path d="M0 0 C0.69134033 -0.0038269 1.38268066 -0.00765381 2.0949707 -0.01159668 C3.55063338 -0.01430787 5.00634544 -0.00700211 6.46191406 0.00976562 C8.68145045 0.0311916 10.89775096 0.00994228 13.1171875 -0.015625 C14.53646543 -0.01298158 15.95574135 -0.00785629 17.375 0 C19.29892578 0.00676758 19.29892578 0.00676758 21.26171875 0.01367188 C25.24902743 0.61608738 26.92470765 1.63109556 29.6875 4.53125 C30.3125 8.03125 30.3125 8.03125 29.6875 11.53125 C27.46119834 14.20850828 25.69672303 15.40210772 22.21484375 15.84765625 C19.25832064 15.92524456 16.33082359 15.87958834 13.375 15.78125 C11.83489258 15.75417969 11.83489258 15.75417969 10.26367188 15.7265625 C7.73787929 15.67957101 5.21256863 15.60783169 2.6875 15.53125 C2.6875 21.14125 2.6875 26.75125 2.6875 32.53125 C4.07324219 32.47324219 5.45898438 32.41523438 6.88671875 32.35546875 C8.7161121 32.30856123 10.54554194 32.26306213 12.375 32.21875 C13.28701172 32.17685547 14.19902344 32.13496094 15.13867188 32.09179688 C19.7992279 32.00705949 21.96449239 31.9899026 25.796875 34.859375 C27.6875 37.53125 27.6875 37.53125 28.25 40.59375 C27.52203545 44.39534267 26.88035575 45.31280652 23.6875 47.53125 C20.09355235 48.02982571 16.55688669 47.906555 12.9375 47.78125 C11.95394531 47.76320312 10.97039062 47.74515625 9.95703125 47.7265625 C7.53343659 47.67950241 5.11034375 47.60776086 2.6875 47.53125 C2.6875 53.47125 2.6875 59.41125 2.6875 65.53125 C4.30140625 65.48484375 5.9153125 65.4384375 7.578125 65.390625 C9.69789817 65.35310689 11.81769134 65.31670678 13.9375 65.28125 C15.00097656 65.24773437 16.06445312 65.21421875 17.16015625 65.1796875 C18.18496094 65.16679687 19.20976562 65.15390625 20.265625 65.140625 C21.67956543 65.1092041 21.67956543 65.1092041 23.12207031 65.07714844 C26.4622855 65.66839323 27.61839435 66.89751794 29.6875 69.53125 C30.25 72.46875 30.25 72.46875 29.6875 75.53125 C27.03077091 78.91895412 25.5423189 80.36981399 21.26171875 81.17822266 C19.97910156 81.1838623 18.69648438 81.18950195 17.375 81.1953125 C16.3379895 81.20248795 16.3379895 81.20248795 15.2800293 81.20980835 C13.82435824 81.21319736 12.36861004 81.2040645 10.91308594 81.18310547 C8.69292503 81.15631546 6.47781739 81.18287647 4.2578125 81.21484375 C2.83853058 81.21153946 1.41925179 81.20513281 0 81.1953125 C-1.28261719 81.18967285 -2.56523437 81.1840332 -3.88671875 81.17822266 C-8.27176155 80.35008957 -9.54109416 78.98420957 -12.3125 75.53125 C-12.94741821 72.26145935 -12.94741821 72.26145935 -12.95947266 68.50952148 C-12.96823425 67.82271301 -12.97699585 67.13590454 -12.98602295 66.42828369 C-13.00794395 64.16898525 -12.99349478 61.91166034 -12.9765625 59.65234375 C-12.97993242 58.0772311 -12.98478651 56.50212098 -12.99105835 54.92701721 C-12.99841934 51.63086107 -12.98774865 48.33538371 -12.96435547 45.03930664 C-12.93584348 40.81647807 -12.95229008 36.59523667 -12.98221779 32.37246609 C-13.00029239 29.12185215 -12.99453267 25.87161415 -12.98157883 22.62098885 C-12.97824642 21.06407546 -12.98232619 19.5071278 -12.99397659 17.95025444 C-13.00669214 15.77377877 -12.98730647 13.59986865 -12.95947266 11.42358398 C-12.95549469 10.18624008 -12.95151672 8.94889618 -12.94741821 7.67405701 C-12.3125 4.53125 -12.3125 4.53125 -9.98617554 2.13282776 C-6.49537103 0.04177565 -4.05564429 0.01426609 0 0 Z " fill="#020302" transform="translate(438.3125,153.46875)"/>
<path d="M0 0 C2.32543833 2.59184274 3.58349366 5.11109313 4.70166016 8.38549805 C4.99851715 9.24286057 5.29537415 10.10022308 5.60122681 10.98356628 C6.06545547 12.35875175 6.06545547 12.35875175 6.5390625 13.76171875 C7.02854874 15.18131645 7.02854874 15.18131645 7.52792358 16.6295929 C8.56709848 19.64660498 9.59655864 22.66681395 10.625 25.6875 C11.66206807 28.71835782 12.70117497 31.74848804 13.74349976 34.77754211 C14.39129621 36.66161766 15.03576789 38.54684012 15.67666626 40.43327332 C15.96721893 41.28117935 16.25777161 42.12908539 16.55712891 43.00268555 C16.81233307 43.7522905 17.06753723 44.50189545 17.33047485 45.2742157 C17.86709595 47.00158993 17.86709595 47.00158993 19 48 C19.4031543 46.75911621 19.80630859 45.51823242 20.22167969 44.23974609 C21.72577337 39.61852448 23.24194484 35.0013401 24.76171875 30.38525391 C25.41669344 28.39023466 26.06842704 26.39414821 26.71679688 24.39697266 C27.65156086 21.51956266 28.59807344 18.64624475 29.546875 15.7734375 C29.83246277 14.88570648 30.11805054 13.99797546 30.41229248 13.08334351 C32.04972735 8.16838857 33.71867929 4.04354249 37 0 C40.4375 -1.1875 40.4375 -1.1875 44 -1 C47 1 47 1 49 4 C48.6447807 8.99715285 47.3311194 13.4129518 45.6875 18.125 C44.10655125 22.68331912 42.60881453 27.24638872 41.20703125 31.86328125 C38.86315163 39.52411616 36.3589148 47.12639383 33.79101562 54.71459961 C33.25879408 56.29434485 32.73153409 57.87576942 32.20898438 59.45874023 C31.44233235 61.77986008 30.66041632 64.09532868 29.875 66.41015625 C29.64570801 67.11431168 29.41641602 67.8184671 29.18017578 68.54396057 C27.78631194 72.5865305 26.39640616 75.34961348 23 78 C19.5625 79 19.5625 79 16 79 C10.57928104 75.88727406 9.35329372 71.64392075 7.51171875 66.01171875 C7.05471085 64.68037903 7.05471085 64.68037903 6.58847046 63.32214355 C5.6060395 60.44891428 4.64644685 57.56864277 3.6875 54.6875 C3.02090625 52.72061585 2.35285403 50.75422538 1.68334961 48.78833008 C0.37224129 44.93406935 -0.93118544 41.07733996 -2.22949219 37.21875 C-3.69470726 32.87890943 -5.20752169 28.56016214 -6.7578125 24.25 C-7.32568481 22.66699097 -7.32568481 22.66699097 -7.9050293 21.05200195 C-8.56993444 19.20727932 -9.24025213 17.36449404 -9.91723633 15.52416992 C-11.44113628 11.23882311 -12.57380734 7.61844935 -12 3 C-8.27967458 -1.39674823 -5.40387298 -1.60114755 0 0 Z " fill="#030403" transform="translate(248,155)"/>
<path d="M0 0 C5.27690036 0.61388148 8.17383375 1.17383375 12 5 C13.70608037 7.84865481 14.24963408 9.94120698 14.25537109 13.24609375 C14.26233002 14.07375244 14.26928894 14.90141113 14.27645874 15.75415039 C14.27546173 16.63965576 14.27446472 17.52516113 14.2734375 18.4375 C14.29372043 20.32031851 14.3145711 22.20313097 14.3359375 24.0859375 C14.35856792 27.04855466 14.37502154 30.01093308 14.38085938 32.97363281 C14.39036915 35.83702498 14.42411996 38.6993471 14.4609375 41.5625 C14.45589203 42.44800537 14.45084656 43.33351074 14.44564819 44.24584961 C14.49857479 49.23237431 14.49857479 49.23237431 16.84619141 53.52734375 C19.0225283 55.15996293 19.0225283 55.15996293 22 56 C22 62.6 22 69.2 22 76 C19.525 76.99 19.525 76.99 17 78 C14.38324276 80.61675724 14.76663349 82.45559065 14.74919128 86.01742554 C14.75332535 86.84440948 14.75745941 87.67139343 14.76171875 88.5234375 C14.746277 90.28516376 14.72997181 92.04688262 14.71289062 93.80859375 C14.69655718 96.5774777 14.68742459 99.34581878 14.69458008 102.11474609 C14.70782339 115.47604031 14.09923543 126.3887422 5 137 C2.81640625 138.73046875 2.81640625 138.73046875 0.5625 140.1875 C-0.54931641 140.92033203 -0.54931641 140.92033203 -1.68359375 141.66796875 C-5.88525553 144.08410141 -9.11475553 145.27915683 -14 145 C-13.62488281 144.52691406 -13.24976563 144.05382812 -12.86328125 143.56640625 C-3.66795523 131.68428472 -0.71110148 122.03298825 -0.68115234 107.05444336 C-0.67110672 105.89245422 -0.6610611 104.73046509 -0.65071106 103.53326416 C-0.61998998 99.7187954 -0.60287456 95.90439649 -0.5859375 92.08984375 C-0.56721694 89.43468729 -0.54773767 86.77954721 -0.5272522 84.12440491 C-0.48062687 77.86673686 -0.44380465 71.6090518 -0.41057932 65.35129982 C-0.37224249 58.22178833 -0.32286297 51.09236636 -0.27259517 43.96293056 C-0.16951727 29.30868942 -0.08017903 14.65438411 0 0 Z " fill="#FBBA84" transform="translate(462,351)"/>
<path d="M0 0 C0.69275528 -0.00619858 1.38551056 -0.01239716 2.09925842 -0.01878357 C3.56086831 -0.02587032 5.02255912 -0.02272748 6.48413086 -0.01000977 C8.71294805 0.0038459 10.93755373 -0.030205 13.16601562 -0.06835938 C14.58984477 -0.0693108 16.01367914 -0.06745046 17.4375 -0.0625 C18.72648193 -0.0632251 20.01546387 -0.0639502 21.34350586 -0.06469727 C25.65333045 0.72560539 27.15917453 2.11516079 29.78515625 5.56640625 C29.84765625 9.19140625 29.84765625 9.19140625 28.78515625 12.56640625 C26.66158539 14.61464175 25.34040747 15.48701147 22.40332031 15.90698242 C21.54448242 15.89127197 20.68564453 15.87556152 19.80078125 15.859375 C18.86621094 15.84970703 17.93164062 15.84003906 16.96875 15.83007812 C16.00066406 15.80494141 15.03257812 15.77980469 14.03515625 15.75390625 C13.05160156 15.74037109 12.06804687 15.72683594 11.0546875 15.71289062 C8.63127548 15.67759822 6.20814576 15.62379284 3.78515625 15.56640625 C3.78515625 21.17640625 3.78515625 26.78640625 3.78515625 32.56640625 C5.09871094 32.50839844 6.41226563 32.45039062 7.765625 32.390625 C9.50126648 32.34371577 11.23694648 32.29821686 12.97265625 32.25390625 C13.83697266 32.21201172 14.70128906 32.17011719 15.59179688 32.12695312 C20.12273773 32.04015349 22.14126055 32.09097634 25.890625 34.859375 C27.78515625 37.56640625 27.78515625 37.56640625 27.91015625 41.19140625 C26.78515625 44.56640625 26.78515625 44.56640625 24.796875 46.265625 C20.62156753 48.06896792 16.96425319 47.89216377 12.47265625 47.75390625 C11.2187207 47.73360352 11.2187207 47.73360352 9.93945312 47.71289062 C7.88774127 47.67771842 5.8363635 47.62391673 3.78515625 47.56640625 C3.79562988 48.36336914 3.80610352 49.16033203 3.81689453 49.98144531 C3.85847397 53.59306687 3.88448886 57.20463804 3.91015625 60.81640625 C3.92691406 62.07066406 3.94367188 63.32492188 3.9609375 64.6171875 C3.96738281 65.82246094 3.97382813 67.02773437 3.98046875 68.26953125 C3.99094238 69.37973633 4.00141602 70.48994141 4.01220703 71.63378906 C3.78746912 74.53653297 3.35693513 76.14753159 1.78515625 78.56640625 C-0.75753409 80.473424 -2.07084268 80.57228384 -5.27734375 80.44140625 C-8.79175709 79.39455972 -9.43718382 78.71596184 -11.21484375 75.56640625 C-11.6025238 72.41687012 -11.6025238 72.41687012 -11.61889648 68.65820312 C-11.62575974 67.97154068 -11.63262299 67.28487823 -11.63969421 66.57740784 C-11.65795963 64.31311222 -11.65412583 62.04950955 -11.6484375 59.78515625 C-11.65299908 58.20861587 -11.65830458 56.63207749 -11.6643219 55.05554199 C-11.67325217 51.75357986 -11.67083052 48.4518596 -11.66088867 45.14990234 C-11.649392 40.91943194 -11.66962077 36.68979537 -11.69880581 32.45943451 C-11.71715436 29.20459699 -11.71687822 25.94995987 -11.71116829 22.69508362 C-11.71101494 21.13536915 -11.71707019 19.57564122 -11.72945976 18.01597595 C-11.74434563 15.83498839 -11.73371339 13.65554862 -11.71655273 11.47460938 C-11.71638657 10.23424927 -11.7162204 8.99388916 -11.71604919 7.71594238 C-10.60813622 0.75390321 -6.35011004 0.05362933 0 0 Z " fill="#020302" transform="translate(238.21484375,54.43359375)"/>
<path d="M0 0 C3.13226509 0.575314 4.83463375 1.30133911 7.02377319 3.63021851 C9.50471861 8.24537321 8.65282613 14.088172 8.55078125 19.17578125 C8.54144787 20.51383643 8.53433423 21.85190877 8.52934265 23.18998718 C8.51031319 26.70032486 8.46125053 30.20961698 8.40582275 33.71954346 C8.35454083 37.30572365 8.33180974 40.89207392 8.30664062 44.47851562 C8.25312549 51.5069381 8.16786371 58.53466876 8.0625 65.5625 C9.31546875 65.51609375 10.5684375 65.4696875 11.859375 65.421875 C13.51039281 65.38435187 15.16143642 65.34795229 16.8125 65.3125 C17.6375 65.27898437 18.4625 65.24546875 19.3125 65.2109375 C25.43738595 65.11214902 25.43738595 65.11214902 28.60546875 67.39453125 C30.62506832 70.39956546 30.71482858 72.01093326 30.0625 75.5625 C28.40892534 78.1593378 27.69888627 79.14014718 25.0625 80.5625 C20.55405383 81.29537738 16.11978934 81.21384073 11.5625 81.125 C10.33917969 81.13595703 9.11585938 81.14691406 7.85546875 81.15820312 C-1.07111259 81.08503443 -1.07111259 81.08503443 -4.58348083 78.96665955 C-7.72637555 75.75682147 -7.56520597 74.00698699 -7.56860352 69.5625 C-7.57933647 68.51787598 -7.57933647 68.51787598 -7.59028625 67.45214844 C-7.60716643 65.15492733 -7.587778 62.85965989 -7.56640625 60.5625 C-7.56723503 58.96354003 -7.56969475 57.36458013 -7.57371521 55.765625 C-7.57657271 52.41640543 -7.56187774 49.06785479 -7.53442383 45.71875 C-7.50034027 41.4276803 -7.50635922 37.13780665 -7.5250864 32.84667969 C-7.53565984 29.54547168 -7.52671563 26.24454155 -7.51170158 22.94335938 C-7.50652178 21.36133652 -7.50699916 19.77928462 -7.51324654 18.19726562 C-7.51870326 15.98504341 -7.49831292 13.77452768 -7.47094727 11.5625 C-7.46474869 10.304375 -7.45855011 9.04625 -7.4521637 7.75 C-6.68137329 2.97621388 -4.73845368 0.90736347 0 0 Z " fill="#030503" transform="translate(180.9375,54.4375)"/>
<path d="M0 0 C4.48791479 1.32975253 4.48791479 1.32975253 6.375 4 C6.76940918 7.02255249 6.76940918 7.02255249 6.79492188 10.77880859 C6.80339142 11.46371872 6.81186096 12.14862885 6.82058716 12.85429382 C6.84399202 15.11919715 6.84497843 17.38342236 6.84375 19.6484375 C6.85085045 21.22401197 6.85854927 22.79958384 6.86682129 24.37515259 C6.88027473 27.67888574 6.8818315 30.98237992 6.87597656 34.28613281 C6.87008501 38.51555529 6.90064386 42.74382802 6.94109344 46.97302818 C6.96697381 50.22791702 6.96984751 53.48252933 6.96620178 56.73750687 C6.96789331 58.29641226 6.97753913 59.85533038 6.99534607 61.41413498 C7.0175409 63.59766693 7.00783482 65.77887679 6.99023438 67.96240234 C6.99228882 69.20355804 6.99434326 70.44471375 6.99645996 71.72348022 C6.20482107 75.89723341 4.64993576 77.38262077 1.375 80 C-1.1875 80.5625 -1.1875 80.5625 -3.625 80 C-5.86932982 78.12972515 -7.31943202 76.61113596 -8.625 74 C-8.74252391 71.84167785 -8.7948275 69.67970717 -8.81787109 67.51831055 C-8.82604858 66.85305359 -8.83422607 66.18779663 -8.84265137 65.50238037 C-8.86749694 63.29716899 -8.88401942 61.09202196 -8.8984375 58.88671875 C-8.90376118 58.13354685 -8.90908485 57.38037495 -8.91456985 56.60437965 C-8.94129832 52.61752973 -8.96067378 48.63071108 -8.97509766 44.64379883 C-8.99174165 40.52765821 -9.03651691 36.41231888 -9.0874691 32.29648113 C-9.12114121 29.13000072 -9.13267494 25.96371049 -9.13832474 22.79706764 C-9.14503784 21.27999564 -9.16026175 19.76293618 -9.18421555 18.24603844 C-9.21587194 16.11998786 -9.21590499 13.99609785 -9.20849609 11.86987305 C-9.21658295 10.66123093 -9.2246698 9.45258881 -9.23300171 8.20732117 C-8.20733173 2.79672284 -5.53256586 0 0 0 Z " fill="#030503" transform="translate(320.625,154)"/>
<path d="M0 0 C12.2920399 -0.40523208 12.2920399 -0.40523208 17 3 C19 5 19 5 19.4375 8.8125 C19.3071201 11.92461163 18.91655189 13.15405804 17.375 16 C11.80741865 19.29930747 6.37638055 18.29796171 0 18 C0 12.06 0 6.12 0 0 Z " fill="#99E39B" transform="translate(189,169)"/>
</svg>
