<svg width="24" height="24" viewBox="0 0 24 24" fill="none" xmlns="http://www.w3.org/2000/svg">
<path fill-rule="evenodd" clip-rule="evenodd" d="M10.2831 0C10.0559 0 9.86327 0.167312 9.83152 0.392339L9.44201 3.15269C8.78305 3.34543 8.15455 3.6097 7.56539 3.93654L5.33857 2.24821C5.157 2.11055 4.90167 2.12802 4.74055 2.28914L2.30007 4.72963C2.13937 4.89032 2.1215 5.1448 2.25817 5.32638L3.94209 7.5636C3.61656 8.15099 3.35268 8.77746 3.15919 9.43416L0.39392 9.8145C0.168182 9.84554 0 10.0384 0 10.2663V13.7177C0 13.9449 0.167312 14.1375 0.392339 14.1693L3.11449 14.5534C3.30196 15.2337 3.56464 15.8828 3.893 16.491L2.24743 18.6614C2.10977 18.843 2.12724 19.0983 2.28837 19.2594L4.72885 21.6999C4.88955 21.8606 5.14403 21.8785 5.3256 21.7418L7.4501 20.1428C8.07629 20.502 8.74839 20.7899 9.45545 20.9956L9.8145 23.6061C9.84554 23.8318 10.0384 24 10.2663 24H13.7177C13.9449 24 14.1375 23.8327 14.1693 23.6077L14.5344 21.0198C15.254 20.818 15.9381 20.5312 16.5753 20.1708L18.6614 21.7525C18.843 21.8901 19.0983 21.8726 19.2594 21.7115L21.6999 19.271C21.8606 19.1103 21.8785 18.8559 21.7418 18.6743L20.1468 16.5551C20.4922 15.9273 20.7672 15.2551 20.9614 14.5493L23.6061 14.1855C23.8318 14.1545 24 13.9616 24 13.7337V10.2823C24 10.0551 23.8327 9.8625 23.6077 9.83074L20.9207 9.45158C20.7212 8.7695 20.4457 8.11991 20.1042 7.51267L21.7526 5.33857C21.8902 5.157 21.8728 4.90167 21.7116 4.74055L19.2711 2.30007C19.1105 2.13937 18.856 2.1215 18.6744 2.25817L16.472 3.91591C15.8728 3.58714 15.2334 3.32292 14.563 3.13258L14.1863 0.39392C14.1552 0.168182 13.9623 0 13.7345 0H10.2831ZM14.9693 12.0714C14.9693 13.7129 13.6524 15.0367 12.0364 15.0367C10.4205 15.0367 9.10364 13.7129 9.10364 12.0714C9.10364 10.4299 10.4205 9.10597 12.0364 9.10597C13.6524 9.10597 14.9693 10.4299 14.9693 12.0714Z" fill="#A7A7A7"/>
</svg>
