<svg width="24" height="24" viewBox="0 0 24 24" fill="none" xmlns="http://www.w3.org/2000/svg">
<path d="M23.1628 21.9069H0.837209C0.379535 21.9069 0 22.2865 0 22.7441C0 23.2018 0.379535 23.5813 0.837209 23.5813H23.1628C23.6205 23.5813 24 23.2018 24 22.7441C24 22.2865 23.6205 21.9069 23.1628 21.9069Z" fill="#A7A7A7"/>
<path d="M17.5814 0.418518H6.41859C3.06976 0.418518 1.95348 2.41666 1.95348 4.88363V22.7441H22.0465V4.88363C22.0465 2.41666 20.9302 0.418518 17.5814 0.418518ZM9.76743 17.4418H6.41859C5.96092 17.4418 5.58138 17.0622 5.58138 16.6046C5.58138 16.1469 5.96092 15.7674 6.41859 15.7674H9.76743C10.2251 15.7674 10.6046 16.1469 10.6046 16.6046C10.6046 17.0622 10.2251 17.4418 9.76743 17.4418ZM9.76743 12.4185H6.41859C5.96092 12.4185 5.58138 12.039 5.58138 11.5813C5.58138 11.1236 5.96092 10.7441 6.41859 10.7441H9.76743C10.2251 10.7441 10.6046 11.1236 10.6046 11.5813C10.6046 12.039 10.2251 12.4185 9.76743 12.4185ZM9.76743 7.39526H6.41859C5.96092 7.39526 5.58138 7.01573 5.58138 6.55805C5.58138 6.10038 5.96092 5.72084 6.41859 5.72084H9.76743C10.2251 5.72084 10.6046 6.10038 10.6046 6.55805C10.6046 7.01573 10.2251 7.39526 9.76743 7.39526ZM17.5814 17.4418H14.2325C13.7749 17.4418 13.3953 17.0622 13.3953 16.6046C13.3953 16.1469 13.7749 15.7674 14.2325 15.7674H17.5814C18.0391 15.7674 18.4186 16.1469 18.4186 16.6046C18.4186 17.0622 18.0391 17.4418 17.5814 17.4418ZM17.5814 12.4185H14.2325C13.7749 12.4185 13.3953 12.039 13.3953 11.5813C13.3953 11.1236 13.7749 10.7441 14.2325 10.7441H17.5814C18.0391 10.7441 18.4186 11.1236 18.4186 11.5813C18.4186 12.039 18.0391 12.4185 17.5814 12.4185ZM17.5814 7.39526H14.2325C13.7749 7.39526 13.3953 7.01573 13.3953 6.55805C13.3953 6.10038 13.7749 5.72084 14.2325 5.72084H17.5814C18.0391 5.72084 18.4186 6.10038 18.4186 6.55805C18.4186 7.01573 18.0391 7.39526 17.5814 7.39526Z" fill="#A7A7A7"/>
</svg>
