<svg width="24" height="22" viewBox="0 0 24 22" fill="none" xmlns="http://www.w3.org/2000/svg">
<path d="M19.2 0.199951H4.8C2.148 0.199951 0 2.33595 0 4.96395V17.036C0 19.664 2.148 21.8 4.8 21.8H19.2C21.852 21.8 24 19.664 24 17.036V4.96395C24 2.33595 21.852 0.199951 19.2 0.199951ZM7.8 5.20395C9.324 5.20395 10.572 6.45195 10.572 7.97595C10.572 9.49995 9.324 10.748 7.8 10.748C6.276 10.748 5.028 9.49995 5.028 7.97595C5.028 6.45195 6.276 5.20395 7.8 5.20395ZM12.444 16.592C12.336 16.712 12.168 16.784 12 16.784H3.6C3.432 16.784 3.264 16.712 3.156 16.592C3.048 16.472 2.988 16.304 3 16.136C3.204 14.12 4.812 12.524 6.828 12.332C7.464 12.272 8.124 12.272 8.76 12.332C10.776 12.524 12.396 14.12 12.588 16.136C12.612 16.304 12.552 16.472 12.444 16.592ZM20.4 16.7H18C17.508 16.7 17.1 16.292 17.1 15.8C17.1 15.308 17.508 14.9 18 14.9H20.4C20.892 14.9 21.3 15.308 21.3 15.8C21.3 16.292 20.892 16.7 20.4 16.7ZM20.4 11.9H15.6C15.108 11.9 14.7 11.492 14.7 11C14.7 10.508 15.108 10.1 15.6 10.1H20.4C20.892 10.1 21.3 10.508 21.3 11C21.3 11.492 20.892 11.9 20.4 11.9ZM20.4 7.09995H14.4C13.908 7.09995 13.5 6.69195 13.5 6.19995C13.5 5.70795 13.908 5.29995 14.4 5.29995H20.4C20.892 5.29995 21.3 5.70795 21.3 6.19995C21.3 6.69195 20.892 7.09995 20.4 7.09995Z" fill="#A7A7A7"/>
</svg>
